#VRML V2.0 utf8
# 3D model generated by easyeda2kicad.py (https://github.com/uPesy/easyeda2kicad.py)

Shape{
    appearance Appearance {
        material  Material 	{
            diffuseColor 0.0 0.5019607843137255 0.25098039215686274
            specularColor 0.0 0.25098039215686274 0.12549019607843137
            ambientIntensity 0.3233
            transparency 0.0
            shininess 0.5
        }
    }
    geometry IndexedFaceSet {
        ccw TRUE
        solid FALSE
        coord DEF co Coordinate {
            point [
                -2.0075 1.6083 0.0, -2.0075 1.1925 0.0, -2.0075 1.6083 1.3982, -2.0075 1.1925 1.8663, -2.0075 1.0602 1.8663, -2.0075 -0.8107 3.937, -2.0075 0.8978 3.937, -2.0075 -1.2759 0.0, -2.0075 -1.6201 0.0, -2.0075 -1.2759 1.8663, -2.0075 -1.6201 2.1804, -2.0075 -1.1051 1.8663, -2.0075 -1.3462 2.1804, -2.0075 1.0602 0.0, -2.0075 0.8844 0.0, -2.0075 0.4806 0.0, -2.0075 0.284 0.0, -2.0075 -1.1051 0.0, -0.5012 0.284 0.0, -1.0472 0.284 0.0, -1.0472 0.4806 0.0, -0.1176 -1.6201 0.0, -0.5012 -1.6201 0.0, 1.7957 -1.2759 0.0, 1.9925 -1.2759 0.0, 1.9925 -1.6201 0.0, 0.8011 0.8794 0.0, 0.8011 0.526 0.0, 0.7276 0.526 0.0, 0.8364 0.4857 0.0, 0.8364 0.8794 0.0, 1.9925 0.8844 0.0, 1.9925 0.4806 0.0, 0.7276 0.4806 0.0, 0.7276 0.4857 0.0, 0.7276 0.8844 0.0, 0.6269 0.8844 0.0, 0.6497 0.4857 0.0, 0.6269 0.4806 0.0, 0.6497 0.526 0.0, -2.2043 -1.2759 0.0, -2.2043 -1.1051 0.0, -1.0472 -1.6201 0.0, -1.0472 -0.1043 0.0, -0.8205 -0.1043 0.0, -0.8205 0.0925 0.0, -1.0472 0.0925 0.0, -1.1945 0.0925 0.0, 0.3924 0.8895 0.0, 0.1802 1.6083 0.0, 0.4098 0.8888 0.0, 0.6269 1.6083 0.0, 0.4237 0.8844 0.0, 0.6042 0.6848 0.0, 0.5789 0.7854 0.0, 0.5115 0.8564 0.0, 0.5922 0.61 0.0, 0.42 0.4806 0.0, 0.4811 0.4916 0.0, 0.5194 0.5125 0.0, 0.5418 0.5311 0.0, 0.5543 0.5444 0.0, 0.3919 0.4756 0.0, 0.6269 0.284 0.0, 0.3722 0.4763 0.0, 0.1802 0.284 0.0, 0.3422 0.4806 0.0, 0.1802 0.8844 0.0, 0.3684 0.8844 0.0, 0.2963 0.8692 0.0, 0.2206 0.5581 0.0, 0.2961 0.496 0.0, 0.1802 0.4806 0.0, 0.3409 0.4808 0.0, 0.256 0.8443 0.0, 0.233 0.8226 0.0, 0.2206 0.8071 0.0, 0.4819 0.8275 0.0, 0.5429 0.7725 0.0, 0.3946 0.8491 0.0, 0.5683 0.698 0.0, 0.5689 0.6821 0.0, 0.5485 0.601 0.0, 0.4942 0.5441 0.0, 0.4169 0.5172 0.0, 0.7276 1.6083 0.0, 1.9925 1.6083 0.0, 1.9925 1.1925 0.0, 1.7957 1.1925 0.0, 1.7957 1.0602 0.0, 1.9925 1.0602 0.0, -1.0472 1.6083 0.0, -2.2043 1.1925 0.0, -2.2043 1.0602 0.0, 0.8055 0.0925 0.0, 0.7276 0.284 0.0, 1.1795 0.0925 0.0, 1.9925 0.284 0.0, 1.1795 -0.1043 0.0, 1.9925 -1.1051 0.0, 0.8055 -0.1043 0.0, 0.7276 -1.6201 0.0, 1.7957 -1.1051 0.0, 0.6269 -1.6201 0.0, 0.1802 -1.6201 0.0, -0.1176 0.284 0.0, -0.1176 0.4806 0.0, -0.5012 0.4806 0.0, -0.1176 0.8844 0.0, -0.0822 0.839 0.0, -0.0822 0.8794 0.0, 0.1399 0.8794 0.0, 0.1399 0.4857 0.0, -0.0822 0.6775 0.0, 0.1045 0.6775 0.0, 0.1045 0.526 0.0, -0.0822 0.526 0.0, -0.0822 0.7178 0.0, 0.1045 0.7178 0.0, 0.1045 0.839 0.0, -0.0822 0.4857 0.0, 0.2515 0.5816 0.0, 0.2515 0.7835 0.0, 0.3144 0.5326 0.0, 0.3154 0.8329 0.0, 0.3922 0.516 0.0, 0.3525 0.8449 0.0, 0.3783 0.8485 0.0, -0.3573 0.8652 0.0, -0.4283 0.8174 0.0, -0.5012 0.8844 0.0, -0.4685 0.7395 0.0, -0.4759 0.6775 0.0, -0.4537 0.5785 0.0, -0.3967 0.5132 0.0, -0.2324 0.8794 0.0, -0.2955 0.877 0.0, -0.3174 0.4878 0.0, -0.2749 0.4857 0.0, -0.1529 0.4857 0.0, -0.1529 0.8794 0.0, -0.8615 0.4857 0.0, -0.8999 0.4857 0.0, -0.7182 0.8794 0.0, -1.0472 0.8844 0.0, -0.8033 0.6119 0.0, -0.6248 0.6119 0.0, -0.565 0.4857 0.0, -0.5264 0.4857 0.0, -0.7132 0.8794 0.0, -1.1945 -0.1043 0.0, -0.5012 1.6083 0.0, -0.1176 1.6083 0.0, 0.4511 -1.3051 0.3972, 0.4511 -1.1476 0.3972, 0.4511 -1.1476 1.612, 0.4511 -0.8327 1.612, 0.4511 -0.8327 1.7968, 0.4511 -1.4626 0.2397, 0.4511 -1.4626 1.9543, 0.4511 -1.3051 1.7968, 1.5339 -1.3051 0.3972, 1.5339 -1.4626 0.2397, 1.5339 -1.4626 1.9543, 1.5339 -0.8327 1.7968, 1.5339 -0.8327 1.612, 1.5339 -1.3051 1.7968, 1.5339 -1.1476 1.612, 1.5339 -1.1476 0.3972, 0.6086 -0.8327 1.612, 1.3764 -0.8327 1.612, 1.3764 -0.8327 0.6296, 0.6086 -0.8327 0.6296, 0.6382 1.6083 1.3982, 0.6382 1.3755 2.2298, 0.6382 1.3755 1.781, 0.6382 1.2968 0.7874, 0.6382 1.6083 0.7874, 0.6382 1.2968 1.2965, 0.6382 1.2651 1.4146, 0.6382 1.1787 1.5011, 0.6382 1.0606 1.5328, 0.6382 0.9818 1.781, 0.6382 0.9818 1.5328, 1.3468 1.3755 1.781, 1.3468 1.3755 2.2298, 1.3468 1.6083 1.3982, 1.3468 1.6083 0.7874, 1.3468 1.2968 0.7874, 1.3468 1.2968 1.2965, 1.3468 1.2651 1.4146, 1.3468 1.1787 1.5011, 1.3468 0.9818 1.781, 1.3468 1.0606 1.5328, 1.3468 0.9818 1.5328, -1.5489 -1.3051 0.3972, -1.5489 -1.1476 0.3972, -1.5489 -1.1476 1.612, -1.5489 -0.8327 1.612, -1.5489 -0.8327 1.7968, -1.5489 -1.4626 0.2397, -1.5489 -1.4626 1.9543, -1.5489 -1.3051 1.7968, -0.4661 -1.3051 0.3972, -0.4661 -1.4626 0.2397, -0.4661 -1.4626 1.9543, -0.4661 -0.8327 1.7968, -0.4661 -0.8327 1.612, -0.4661 -1.3051 1.7968, -0.4661 -1.1476 1.612, -0.4661 -1.1476 0.3972, -1.3914 -0.8327 1.612, -0.6236 -0.8327 1.612, -0.6236 -0.8327 0.6296, -1.3914 -0.8327 0.6296, -1.3618 1.6083 1.3982, -1.3618 1.3755 2.2298, -1.3618 1.3755 1.781, -1.3618 1.2968 0.7874, -1.3618 1.6083 0.7874, -1.3618 1.2968 1.2965, -1.3618 1.2651 1.4146, -1.3618 1.1787 1.5011, -1.3618 1.0606 1.5328, -1.3618 0.9818 1.781, -1.3618 0.9818 1.5328, -0.6532 1.3755 1.781, -0.6532 1.3755 2.2298, -0.6532 1.6083 1.3982, -0.6532 1.6083 0.7874, -0.6532 1.2968 0.7874, -0.6532 1.2968 1.2965, -0.6532 1.2651 1.4146, -0.6532 1.1787 1.5011, -0.6532 0.9818 1.781, -0.6532 1.0606 1.5328, -0.6532 0.9818 1.5328
            ]
        }
        coordIndex [
            0,1,2,-1,2,1,3,-1,4,5,3,-1,3,5,6,-1,3,6,2,-1,7,8,9,-1,9,8,10,-1,9,10,11,-1,11,10,12,-1,11,12,5,-1,13,14,4,-1,4,14,15,-1,4,15,5,-1,5,15,16,-1,5,16,11,-1,11,16,17,-1,18,19,20,-1,21,22,18,-1,23,24,25,-1,26,27,28,-1,29,30,31,-1,31,32,29,-1,29,32,33,-1,29,33,34,-1,30,26,35,-1,35,26,28,-1,35,28,36,-1,34,33,37,-1,37,33,38,-1,37,38,39,-1,40,41,7,-1,7,41,17,-1,42,43,22,-1,22,43,44,-1,22,44,18,-1,18,44,45,-1,18,45,19,-1,19,45,46,-1,19,46,47,-1,48,49,50,-1,50,49,51,-1,50,51,52,-1,53,54,36,-1,36,54,55,-1,28,39,36,-1,36,39,38,-1,36,38,53,-1,53,38,56,-1,57,58,38,-1,38,58,59,-1,59,60,38,-1,38,60,61,-1,38,61,56,-1,62,63,64,-1,64,63,65,-1,64,65,66,-1,67,68,69,-1,70,71,72,-1,72,71,73,-1,69,74,67,-1,67,74,75,-1,67,75,76,-1,77,78,79,-1,79,78,80,-1,79,80,81,-1,81,82,79,-1,79,82,83,-1,79,83,84,-1,85,86,87,-1,88,89,35,-1,30,35,31,-1,31,35,89,-1,31,89,90,-1,14,13,91,-1,0,91,1,-1,1,91,13,-1,1,13,92,-1,92,13,93,-1,94,95,96,-1,96,95,97,-1,96,97,98,-1,98,97,99,-1,98,99,100,-1,25,101,23,-1,23,101,100,-1,23,100,102,-1,102,100,99,-1,94,100,95,-1,95,100,101,-1,95,101,63,-1,63,101,103,-1,63,103,65,-1,65,103,104,-1,65,104,105,-1,62,57,63,-1,63,57,38,-1,63,38,95,-1,95,38,33,-1,95,33,97,-1,97,33,32,-1,73,66,72,-1,72,66,65,-1,72,65,106,-1,106,65,105,-1,106,105,107,-1,106,108,109,-1,109,108,110,-1,110,108,111,-1,111,108,67,-1,111,67,112,-1,113,114,115,-1,115,116,113,-1,113,116,106,-1,113,106,117,-1,117,106,109,-1,117,109,118,-1,118,109,119,-1,116,120,106,-1,106,120,112,-1,106,112,72,-1,72,112,67,-1,72,67,70,-1,70,67,76,-1,70,76,121,-1,121,76,122,-1,121,122,123,-1,123,122,124,-1,123,124,125,-1,125,124,126,-1,125,126,84,-1,84,126,127,-1,84,127,79,-1,128,129,130,-1,129,131,130,-1,130,131,132,-1,130,132,107,-1,107,132,133,-1,107,133,134,-1,108,135,130,-1,130,135,136,-1,130,136,128,-1,134,137,107,-1,107,137,138,-1,107,138,106,-1,106,138,139,-1,106,139,108,-1,108,139,140,-1,108,140,135,-1,104,21,105,-1,105,21,18,-1,105,18,107,-1,107,18,20,-1,107,20,141,-1,141,20,142,-1,142,20,143,-1,143,20,144,-1,143,144,130,-1,145,146,141,-1,141,146,147,-1,141,147,107,-1,107,147,148,-1,107,148,130,-1,130,148,149,-1,130,149,143,-1,55,52,36,-1,36,52,51,-1,36,51,35,-1,35,51,85,-1,35,85,88,-1,88,85,87,-1,42,8,43,-1,43,8,7,-1,43,7,150,-1,150,7,17,-1,150,17,47,-1,47,17,16,-1,47,16,19,-1,19,16,15,-1,19,15,20,-1,20,15,14,-1,20,14,144,-1,144,14,91,-1,144,91,130,-1,130,91,151,-1,130,151,108,-1,108,151,152,-1,108,152,67,-1,67,152,49,-1,67,49,68,-1,68,49,48,-1,153,154,155,-1,155,156,157,-1,158,153,159,-1,159,153,155,-1,159,155,160,-1,160,155,157,-1,161,162,163,-1,164,165,166,-1,166,165,167,-1,166,167,163,-1,163,167,168,-1,163,168,161,-1,164,157,169,-1,169,157,156,-1,165,164,170,-1,170,164,169,-1,170,169,171,-1,171,169,172,-1,173,174,175,-1,176,177,178,-1,178,177,173,-1,178,173,179,-1,179,173,180,-1,180,173,175,-1,180,175,181,-1,181,175,182,-1,181,182,183,-1,184,185,186,-1,186,187,188,-1,188,189,186,-1,186,189,190,-1,186,190,184,-1,184,190,191,-1,184,191,192,-1,192,191,193,-1,192,193,194,-1,183,182,194,-1,194,182,192,-1,195,196,197,-1,197,198,199,-1,200,195,201,-1,201,195,197,-1,201,197,202,-1,202,197,199,-1,203,204,205,-1,206,207,208,-1,208,207,209,-1,208,209,205,-1,205,209,210,-1,205,210,203,-1,206,199,211,-1,211,199,198,-1,207,206,212,-1,212,206,211,-1,212,211,213,-1,213,211,214,-1,215,216,217,-1,218,219,220,-1,220,219,215,-1,220,215,221,-1,221,215,222,-1,222,215,217,-1,222,217,223,-1,223,217,224,-1,223,224,225,-1,226,227,228,-1,228,229,230,-1,230,231,228,-1,228,231,232,-1,228,232,226,-1,226,232,233,-1,226,233,234,-1,234,233,235,-1,234,235,236,-1,
        ]
    }
}
Shape{
    appearance Appearance {
        material  Material 	{
            diffuseColor 0.7529411764705882 0.7529411764705882 0.7529411764705882
            specularColor 0.3764705882352941 0.3764705882352941 0.3764705882352941
            ambientIntensity 0.7529
            transparency 0.0
            shininess 0.5
        }
    }
    geometry IndexedFaceSet {
        ccw TRUE
        solid FALSE
        coord DEF co Coordinate {
            point [
                -1.3618 0.9818 1.5328, -1.3618 0.9818 1.781, -0.6532 0.9818 1.5328, -0.6532 0.9818 1.781, 0.523 -0.3316 3.5433, 1.3507 0.4961 3.5433, 0.5147 -0.3205 3.5433, 1.175 0.5882 3.5433, 0.9308 0.6139 3.5433, 0.6972 0.538 3.5433, 0.4149 -0.0962 3.5433, 0.4149 0.1494 3.5433, 0.5147 0.3737 3.5433, -1.4853 -0.3205 3.5433, -1.477 -0.3316 3.5433, -0.6493 0.4961 3.5433, -1.5851 0.1494 3.5433, -1.5851 -0.0962 3.5433, -1.4853 0.3737 3.5433, -1.3028 0.538 3.5433, -1.0692 0.6139 3.5433, -0.825 0.5882 3.5433
            ]
        }
        coordIndex [
            0,1,2,-1,2,1,3,-1,4,5,6,-1,6,5,7,-1,7,8,9,-1,10,6,11,-1,11,6,7,-1,11,7,12,-1,12,7,9,-1,13,14,15,-1,16,17,18,-1,18,17,13,-1,19,18,20,-1,20,18,13,-1,20,13,21,-1,21,13,15,-1,
        ]
    }
}
Shape{
    appearance Appearance {
        material  Material 	{
            diffuseColor 0.0 0.5019607843137255 0.25098039215686274
            specularColor 0.0 0.25098039215686274 0.12549019607843137
            ambientIntensity 0.3233
            transparency 0.0
            shininess 0.5
        }
    }
    geometry IndexedFaceSet {
        ccw TRUE
        solid FALSE
        coord DEF co Coordinate {
            point [
                1.9925 1.1925 1.8663, 1.9925 1.1925 0.0, 1.9925 1.6083 0.0, 1.9925 0.8978 3.937, 1.9925 -1.1051 1.8663, 1.9925 -1.1051 0.0, 1.9925 -1.6201 0.0, 1.9925 -1.2759 0.0, 1.9925 -1.6201 2.1804, 1.9925 -1.2759 1.8663, 1.9925 -1.3462 2.1804, 1.9925 -0.8107 3.937, 1.9925 0.284 0.0, 1.9925 0.4806 0.0, 1.9925 0.8844 0.0, 1.9925 1.6083 1.3982, 1.9925 1.0602 1.8663, 1.9925 1.0602 0.0, 1.3468 1.6083 1.3982, 1.3468 1.6083 0.7874, 0.6382 1.6083 0.7874, 0.7276 1.6083 0.0, 0.6269 1.6083 0.0, -2.0075 1.6083 1.3982, -1.3618 1.6083 1.3982, -2.0075 1.6083 0.0, -1.3618 1.6083 0.7874, -1.0472 1.6083 0.0, -0.6532 1.6083 0.7874, -0.5012 1.6083 0.0, -0.1176 1.6083 0.0, 0.1802 1.6083 0.0, 0.6382 1.6083 1.3982, -0.6532 1.6083 1.3982, -0.5012 -1.6201 0.0, -0.1176 -1.6201 0.0, -0.3086 -1.6201 0.0822, -0.3086 -1.6201 2.1118, -2.0075 -1.6201 2.1804, -1.0472 -1.6201 0.0, -1.7063 -1.6201 0.0822, -2.0075 -1.6201 0.0, -1.7063 -1.6201 2.1118, 0.2937 -1.6201 2.1118, 1.6914 -1.6201 2.1118, 1.6914 -1.6201 0.0822, 0.7276 -1.6201 0.0, 0.2937 -1.6201 0.0822, 0.6269 -1.6201 0.0, 0.1802 -1.6201 0.0, 0.6972 -0.4849 3.937, -0.4169 0.0266 3.937, -0.468 -0.2136 3.937, 1.3877 0.4654 3.937, 1.532 0.2668 3.937, 1.5831 0.0266 3.937, 1.532 -0.2136 3.937, 1.3877 -0.4123 3.937, 1.175 -0.5351 3.937, 0.9308 -0.5607 3.937, -1.3028 -0.4849 3.937, -2.0075 -0.8107 3.937, -1.0692 -0.5607 3.937, -1.4853 0.3737 3.937, -1.3028 0.538 3.937, -2.0075 0.8978 3.937, -1.0692 0.6139 3.937, -0.825 0.5882 3.937, -0.6123 0.4654 3.937, 0.5147 0.3737 3.937, 0.6972 0.538 3.937, -0.468 0.2668 3.937, -0.6123 -0.4123 3.937, -0.825 -0.5351 3.937, -1.4853 -0.3205 3.937, -1.5851 -0.0962 3.937, -1.5851 0.1494 3.937, 0.9308 0.6139 3.937, 1.175 0.5882 3.937, 0.5147 -0.3205 3.937, 0.4149 -0.0962 3.937, 0.4149 0.1494 3.937, -2.0075 -1.3462 2.1804, 0.6382 1.3755 2.2298, 1.3468 1.3755 2.2298, -1.3618 1.3755 2.2298, -0.6532 1.3755 2.2298, -1.3657 -0.443 3.1496, -1.477 -0.3316 3.1496, -1.3657 -0.443 3.5433, -1.477 -0.3316 3.5433, -0.6123 0.4654 3.1496, -0.538 0.3847 3.1496, -0.538 0.3847 3.5433, -1.3028 -0.4849 3.5433, -1.0692 -0.5607 3.5433, -0.825 -0.5351 3.5433, -0.6123 -0.4123 3.5433, -0.468 -0.2136 3.5433, -0.4169 0.0266 3.5433, -0.468 0.2668 3.5433, -0.6493 0.4961 3.1496, -0.6493 0.4961 3.5433, -0.825 0.5882 3.5433, -1.0692 0.6139 3.5433, -1.3028 0.538 3.5433, -1.4853 0.3737 3.5433, -1.5851 0.1494 3.5433, -1.5851 -0.0962 3.5433, -1.4853 -0.3205 3.5433
            ]
        }
        coordIndex [
            0,1,2,-1,3,4,5,-1,6,7,8,-1,8,7,9,-1,8,9,10,-1,10,9,4,-1,10,4,11,-1,11,4,3,-1,5,12,3,-1,3,12,13,-1,3,13,14,-1,2,15,0,-1,0,15,3,-1,0,3,16,-1,16,3,14,-1,16,14,17,-1,18,15,19,-1,19,15,2,-1,19,2,20,-1,20,2,21,-1,20,21,22,-1,23,24,25,-1,25,24,26,-1,25,26,27,-1,27,26,28,-1,27,28,29,-1,29,28,30,-1,22,31,20,-1,20,31,30,-1,20,30,32,-1,32,30,28,-1,32,28,33,-1,34,35,36,-1,37,8,38,-1,34,36,39,-1,39,36,40,-1,39,40,41,-1,41,40,38,-1,38,40,42,-1,38,42,37,-1,37,43,8,-1,8,43,44,-1,8,44,6,-1,6,44,45,-1,6,45,46,-1,46,45,47,-1,46,47,48,-1,37,36,43,-1,43,36,35,-1,43,35,47,-1,47,35,49,-1,47,49,48,-1,50,51,52,-1,53,54,3,-1,3,54,55,-1,3,55,11,-1,11,55,56,-1,56,57,11,-1,11,57,58,-1,11,58,59,-1,60,61,62,-1,62,61,11,-1,63,64,65,-1,65,64,66,-1,65,66,3,-1,3,66,67,-1,3,67,68,-1,69,70,71,-1,50,52,59,-1,59,52,72,-1,59,72,11,-1,11,72,73,-1,11,73,62,-1,60,74,61,-1,61,74,75,-1,61,75,65,-1,65,75,76,-1,65,76,63,-1,71,70,68,-1,68,70,77,-1,68,77,3,-1,3,77,78,-1,3,78,53,-1,50,79,51,-1,51,79,80,-1,51,80,71,-1,71,80,81,-1,71,81,69,-1,8,10,38,-1,38,10,82,-1,10,11,82,-1,82,11,61,-1,83,65,84,-1,84,65,3,-1,84,3,18,-1,18,3,15,-1,24,23,85,-1,85,23,65,-1,85,65,86,-1,86,65,83,-1,86,83,33,-1,33,83,32,-1,87,88,89,-1,89,88,90,-1,91,92,93,-1,94,60,95,-1,95,60,62,-1,95,62,96,-1,96,62,73,-1,96,73,97,-1,97,73,72,-1,97,72,98,-1,98,72,52,-1,98,52,99,-1,99,52,51,-1,99,51,100,-1,100,51,71,-1,100,71,93,-1,93,71,68,-1,93,68,91,-1,101,91,102,-1,102,91,68,-1,102,68,103,-1,103,68,67,-1,103,67,104,-1,104,67,66,-1,104,66,105,-1,105,66,64,-1,105,64,106,-1,106,64,63,-1,106,63,107,-1,107,63,76,-1,107,76,108,-1,108,76,75,-1,108,75,109,-1,109,75,74,-1,109,74,90,-1,90,74,60,-1,90,60,89,-1,89,60,94,-1,
        ]
    }
}
Shape{
    appearance Appearance {
        material  Material 	{
            diffuseColor 0.7529411764705882 0.7529411764705882 0.7529411764705882
            specularColor 0.3764705882352941 0.3764705882352941 0.3764705882352941
            ambientIntensity 0.7529
            transparency 0.0
            shininess 0.5
        }
    }
    geometry IndexedFaceSet {
        ccw TRUE
        solid FALSE
        coord DEF co Coordinate {
            point [
                -1.0692 -0.5607 3.5433, -0.468 0.2668 3.5433, -1.3028 -0.4849 3.5433, -0.538 0.3847 3.5433, -1.3657 -0.443 3.5433, -0.468 -0.2136 3.5433, -0.4169 0.0266 3.5433, -0.6123 -0.4123 3.5433, -0.825 -0.5351 3.5433, -0.538 0.3847 3.1496, -1.3657 -0.443 3.1496, -1.477 -0.3316 3.1496, -0.6493 0.4961 3.1496, -1.477 -0.3316 3.5433, -0.6493 0.4961 3.5433, -0.6123 0.4654 3.1496
            ]
        }
        coordIndex [
            0,1,2,-1,2,1,3,-1,2,3,4,-1,5,6,7,-1,7,6,1,-1,7,1,8,-1,8,1,0,-1,9,10,3,-1,3,10,4,-1,11,12,13,-1,13,12,14,-1,12,11,15,-1,15,11,10,-1,15,10,9,-1,
        ]
    }
}
Shape{
    appearance Appearance {
        material  Material 	{
            diffuseColor 0.0 0.5019607843137255 0.25098039215686274
            specularColor 0.0 0.25098039215686274 0.12549019607843137
            ambientIntensity 0.3233
            transparency 0.0
            shininess 0.5
        }
    }
    geometry IndexedFaceSet {
        ccw TRUE
        solid FALSE
        coord DEF co Coordinate {
            point [
                0.6343 -0.443 3.1496, 0.523 -0.3316 3.1496, 0.6343 -0.443 3.5433, 0.523 -0.3316 3.5433, 1.3877 0.4654 3.1496, 1.462 0.3847 3.1496, 1.462 0.3847 3.5433, 0.6972 -0.4849 3.5433, 0.6972 -0.4849 3.937, 0.9308 -0.5607 3.5433, 0.9308 -0.5607 3.937, 1.175 -0.5351 3.5433, 1.175 -0.5351 3.937, 1.3877 -0.4123 3.5433, 1.3877 -0.4123 3.937, 1.532 -0.2136 3.5433, 1.532 -0.2136 3.937, 1.5831 0.0266 3.5433, 1.5831 0.0266 3.937, 1.532 0.2668 3.5433, 1.532 0.2668 3.937, 1.3877 0.4654 3.937, 1.3507 0.4961 3.1496, 1.3507 0.4961 3.5433, 1.175 0.5882 3.5433, 1.175 0.5882 3.937, 0.9308 0.6139 3.5433, 0.9308 0.6139 3.937, 0.6972 0.538 3.5433, 0.6972 0.538 3.937, 0.5147 0.3737 3.5433, 0.5147 0.3737 3.937, 0.4149 0.1494 3.5433, 0.4149 0.1494 3.937, 0.4149 -0.0962 3.5433, 0.4149 -0.0962 3.937, 0.5147 -0.3205 3.5433, 0.5147 -0.3205 3.937
            ]
        }
        coordIndex [
            0,1,2,-1,2,1,3,-1,4,5,6,-1,7,8,9,-1,9,8,10,-1,9,10,11,-1,11,10,12,-1,11,12,13,-1,13,12,14,-1,13,14,15,-1,15,14,16,-1,15,16,17,-1,17,16,18,-1,17,18,19,-1,19,18,20,-1,19,20,6,-1,6,20,21,-1,6,21,4,-1,22,4,23,-1,23,4,21,-1,23,21,24,-1,24,21,25,-1,24,25,26,-1,26,25,27,-1,26,27,28,-1,28,27,29,-1,28,29,30,-1,30,29,31,-1,30,31,32,-1,32,31,33,-1,32,33,34,-1,34,33,35,-1,34,35,36,-1,36,35,37,-1,36,37,3,-1,3,37,8,-1,3,8,2,-1,2,8,7,-1,
        ]
    }
}
Shape{
    appearance Appearance {
        material  Material 	{
            diffuseColor 0.7529411764705882 0.7529411764705882 0.7529411764705882
            specularColor 0.3764705882352941 0.3764705882352941 0.3764705882352941
            ambientIntensity 0.7529
            transparency 0.0
            shininess 0.5
        }
    }
    geometry IndexedFaceSet {
        ccw TRUE
        solid FALSE
        coord DEF co Coordinate {
            point [
                1.532 0.2668 3.5433, 1.462 0.3847 3.5433, 0.6972 -0.4849 3.5433, 0.6343 -0.443 3.5433, 0.9308 -0.5607 3.5433, 1.175 -0.5351 3.5433, 1.3877 -0.4123 3.5433, 1.532 -0.2136 3.5433, 1.5831 0.0266 3.5433, 1.462 0.3847 3.1496, 0.6343 -0.443 3.1496, 0.523 -0.3316 3.1496, 1.3507 0.4961 3.1496, 0.523 -0.3316 3.5433, 1.3507 0.4961 3.5433, 1.3877 0.4654 3.1496
            ]
        }
        coordIndex [
            0,1,2,-1,2,1,3,-1,4,5,2,-1,2,5,6,-1,6,7,2,-1,2,7,8,-1,2,8,0,-1,9,10,1,-1,1,10,3,-1,11,12,13,-1,13,12,14,-1,12,11,15,-1,15,11,10,-1,15,10,9,-1,
        ]
    }
}
Shape{
    appearance Appearance {
        material  Material 	{
            diffuseColor 0.0 0.5019607843137255 0.25098039215686274
            specularColor 0.0 0.25098039215686274 0.12549019607843137
            ambientIntensity 0.3233
            transparency 0.0
            shininess 0.5
        }
    }
    geometry IndexedFaceSet {
        ccw TRUE
        solid FALSE
        coord DEF co Coordinate {
            point [
                -1.3618 1.3755 1.781, -1.3618 1.3755 2.2298, -0.6532 1.3755 1.781, -0.6532 1.3755 2.2298, -0.6532 1.6083 0.7874, -1.3618 1.6083 0.7874, -0.6532 1.2968 0.7874, -1.3618 1.2968 0.7874
            ]
        }
        coordIndex [
            0,1,2,-1,2,1,3,-1,4,5,6,-1,6,5,7,-1,
        ]
    }
}
Shape{
    appearance Appearance {
        material  Material 	{
            diffuseColor 0.7529411764705882 0.7529411764705882 0.7529411764705882
            specularColor 0.3764705882352941 0.3764705882352941 0.3764705882352941
            ambientIntensity 0.7529
            transparency 0.0
            shininess 0.5
        }
    }
    geometry IndexedFaceSet {
        ccw TRUE
        solid FALSE
        coord DEF co Coordinate {
            point [
                -0.6532 0.9818 1.781, -1.3618 0.9818 1.781, -0.6532 1.3755 1.781, -1.3618 1.3755 1.781, -1.3618 1.0606 1.5328, -1.3618 0.9818 1.5328, -0.6532 1.0606 1.5328, -0.6532 0.9818 1.5328, -0.6532 1.2968 1.2965, -0.6532 1.2968 0.7874, -1.3618 1.2968 1.2965, -1.3618 1.2968 0.7874, -1.3618 1.2651 1.4146, -0.6532 1.2651 1.4146, -1.3618 1.1787 1.5011, -0.6532 1.1787 1.5011
            ]
        }
        coordIndex [
            0,1,2,-1,2,1,3,-1,4,5,6,-1,6,5,7,-1,8,9,10,-1,10,9,11,-1,8,10,12,-1,8,12,13,-1,13,12,14,-1,13,14,15,-1,15,14,4,-1,15,4,6,-1,
        ]
    }
}
Shape{
    appearance Appearance {
        material  Material 	{
            diffuseColor 0.0 0.5019607843137255 0.25098039215686274
            specularColor 0.0 0.25098039215686274 0.12549019607843137
            ambientIntensity 0.3233
            transparency 0.0
            shininess 0.5
        }
    }
    geometry IndexedFaceSet {
        ccw TRUE
        solid FALSE
        coord DEF co Coordinate {
            point [
                -1.5489 -1.3051 1.7968, -1.5489 -0.8327 1.7968, -0.4661 -1.3051 1.7968, -0.4661 -0.8327 1.7968, -1.5489 -1.1476 0.3972, -1.5489 -1.3051 0.3972, -0.4661 -1.1476 0.3972, -0.4661 -1.3051 0.3972, -0.4661 -1.4626 0.2397, -1.5489 -1.4626 0.2397, -0.3086 -1.6201 0.0822, -1.7063 -1.6201 0.0822, -0.3086 -1.6201 2.1118, -1.7063 -1.6201 2.1118, -1.5489 -1.4626 1.9543, -0.4661 -1.4626 1.9543
            ]
        }
        coordIndex [
            0,1,2,-1,2,1,3,-1,4,5,6,-1,6,5,7,-1,7,5,8,-1,8,5,9,-1,8,9,10,-1,10,9,11,-1,12,13,14,-1,0,2,14,-1,14,2,15,-1,14,15,12,-1,12,15,10,-1,10,15,8,-1,11,9,13,-1,13,9,14,-1,
        ]
    }
}
Shape{
    appearance Appearance {
        material  Material 	{
            diffuseColor 0.7529411764705882 0.7529411764705882 0.7529411764705882
            specularColor 0.3764705882352941 0.3764705882352941 0.3764705882352941
            ambientIntensity 0.7529
            transparency 0.0
            shininess 0.5
        }
    }
    geometry IndexedFaceSet {
        ccw TRUE
        solid FALSE
        coord DEF co Coordinate {
            point [
                -1.5489 -1.1476 1.612, -1.3914 -1.1476 1.612, -1.5489 -0.8327 1.612, -1.3914 -0.8327 1.612, -0.6236 -1.1476 1.612, -0.4661 -1.1476 1.612, -0.6236 -0.8327 1.612, -0.4661 -0.8327 1.612, -0.6236 -1.1476 0.6296, -0.6236 -0.8327 0.6296, -1.3914 -1.1476 0.6296, -1.3914 -0.8327 0.6296, -1.5489 -1.1476 0.3972, -0.4661 -1.1476 0.3972, -0.8205 -0.1043 -1.0635, -0.8205 -0.1043 0.0, -1.0472 -0.1043 0.0, -0.9356 -0.1043 -1.378, -1.0793 -0.1043 -1.378, -1.1945 -0.1043 -1.0635, -1.1945 -0.1043 0.0, -1.1945 0.0925 -1.0635, -1.1945 0.0925 0.0, -1.0793 0.0925 -1.378, -1.0472 0.0925 0.0, -0.8205 0.0925 0.0, -0.8205 0.0925 -1.0635, -0.9356 0.0925 -1.378
            ]
        }
        coordIndex [
            0,1,2,-1,2,1,3,-1,4,5,6,-1,6,5,7,-1,8,4,9,-1,9,4,6,-1,10,8,11,-1,11,8,9,-1,1,10,3,-1,3,10,11,-1,1,0,10,-1,10,0,12,-1,10,12,8,-1,8,12,13,-1,8,13,4,-1,4,13,5,-1,14,15,16,-1,17,14,18,-1,18,14,16,-1,18,16,19,-1,19,16,20,-1,21,22,23,-1,23,22,24,-1,24,25,23,-1,23,25,26,-1,23,26,27,-1,20,22,19,-1,19,22,21,-1,26,25,14,-1,14,25,15,-1,23,27,18,-1,18,27,17,-1,17,27,14,-1,14,27,26,-1,19,21,18,-1,18,21,23,-1,
        ]
    }
}
Shape{
    appearance Appearance {
        material  Material 	{
            diffuseColor 0.0 0.5019607843137255 0.25098039215686274
            specularColor 0.0 0.25098039215686274 0.12549019607843137
            ambientIntensity 0.3233
            transparency 0.0
            shininess 0.5
        }
    }
    geometry IndexedFaceSet {
        ccw TRUE
        solid FALSE
        coord DEF co Coordinate {
            point [
                0.6382 1.3755 1.781, 0.6382 1.3755 2.2298, 1.3468 1.3755 1.781, 1.3468 1.3755 2.2298, 1.3468 1.6083 0.7874, 0.6382 1.6083 0.7874, 1.3468 1.2968 0.7874, 0.6382 1.2968 0.7874, 1.3468 0.9818 1.781, 0.6382 0.9818 1.781, 0.4511 -1.3051 1.7968, 0.4511 -0.8327 1.7968, 1.5339 -1.3051 1.7968, 1.5339 -0.8327 1.7968, 0.4511 -1.1476 0.3972, 0.4511 -1.3051 0.3972, 1.5339 -1.1476 0.3972, 1.5339 -1.3051 0.3972, 1.5339 -1.4626 0.2397, 0.4511 -1.4626 0.2397, 1.6914 -1.6201 0.0822, 0.2937 -1.6201 0.0822, 0.4511 -1.4626 1.9543, 1.5339 -1.4626 1.9543, 0.2937 -1.6201 2.1118, 1.6914 -1.6201 2.1118
            ]
        }
        coordIndex [
            0,1,2,-1,2,1,3,-1,4,5,6,-1,6,5,7,-1,8,9,2,-1,2,9,0,-1,10,11,12,-1,12,11,13,-1,14,15,16,-1,16,15,17,-1,17,15,18,-1,18,15,19,-1,18,19,20,-1,20,19,21,-1,10,12,22,-1,22,12,23,-1,22,23,24,-1,24,23,25,-1,25,23,20,-1,20,23,18,-1,21,19,24,-1,24,19,22,-1,
        ]
    }
}
Shape{
    appearance Appearance {
        material  Material 	{
            diffuseColor 0.7529411764705882 0.7529411764705882 0.7529411764705882
            specularColor 0.3764705882352941 0.3764705882352941 0.3764705882352941
            ambientIntensity 0.7529
            transparency 0.0
            shininess 0.5
        }
    }
    geometry IndexedFaceSet {
        ccw TRUE
        solid FALSE
        coord DEF co Coordinate {
            point [
                0.6382 1.0606 1.5328, 0.6382 0.9818 1.5328, 1.3468 1.0606 1.5328, 1.3468 0.9818 1.5328, 1.3468 1.2968 1.2965, 1.3468 1.2968 0.7874, 0.6382 1.2968 1.2965, 0.6382 1.2968 0.7874, 0.6382 1.2651 1.4146, 1.3468 1.2651 1.4146, 0.6382 1.1787 1.5011, 1.3468 1.1787 1.5011, 0.4511 -1.1476 1.612, 0.6086 -1.1476 1.612, 0.4511 -0.8327 1.612, 0.6086 -0.8327 1.612, 1.3764 -1.1476 1.612, 1.5339 -1.1476 1.612, 1.3764 -0.8327 1.612, 1.5339 -0.8327 1.612, 1.3764 -1.1476 0.6296, 1.3764 -0.8327 0.6296, 0.6086 -1.1476 0.6296, 0.6086 -0.8327 0.6296, 0.4511 -1.1476 0.3972, 1.5339 -1.1476 0.3972, 0.9207 -0.1043 -1.378, 1.0644 -0.1043 -1.378, 0.8055 -0.1043 -1.0635, 1.1795 -0.1043 -1.0635, 0.8055 -0.1043 0.0, 1.1795 -0.1043 0.0, 0.8055 0.0925 0.0, 1.1795 0.0925 0.0, 0.8055 0.0925 -1.0635, 1.1795 0.0925 -1.0635, 0.9207 0.0925 -1.378, 1.0644 0.0925 -1.378, -0.7132 0.8794 0.0394, -0.7182 0.8794 0.0394, -0.7132 0.8794 0.0, -0.7182 0.8794 0.0, -0.8999 0.4857 0.0394, -0.8999 0.4857 0.0, -0.8615 0.4857 0.0394, -0.8615 0.4857 0.0, -0.8033 0.6119 0.0394, -0.8033 0.6119 0.0, -0.6248 0.6119 0.0394, -0.6248 0.6119 0.0, -0.565 0.4857 0.0394, -0.565 0.4857 0.0, -0.5264 0.4857 0.0394, -0.5264 0.4857 0.0, -0.7847 0.6522 0.0394, -0.644 0.6522 0.0394, -0.7153 0.8026 0.0394, -0.7847 0.6522 0.0, -0.7153 0.8026 0.0, -0.644 0.6522 0.0, -0.2749 0.4857 0.0394, -0.1529 0.4857 0.0394, -0.2749 0.4857 0.0, -0.1529 0.4857 0.0, -0.1529 0.8794 0.0394, -0.1529 0.8794 0.0, -0.2324 0.8794 0.0394, -0.2324 0.8794 0.0, -0.3573 0.8652 0.0394, -0.3573 0.8652 0.0, -0.2955 0.877 0.0, -0.2955 0.877 0.0394, -0.4759 0.6775 0.0394, -0.4759 0.6775 0.0, -0.4685 0.7395 0.0, -0.4685 0.7395 0.0394, -0.4283 0.8174 0.0, -0.4283 0.8174 0.0394, -0.3174 0.4878 0.0, -0.3174 0.4878 0.0394, -0.3967 0.5132 0.0, -0.3967 0.5132 0.0394, -0.4537 0.5785 0.0, -0.4537 0.5785 0.0394, -0.4344 0.6286 0.0394, -0.4022 0.571 0.0394, -0.346 0.5361 0.0394, -0.29 0.5276 0.0394, -0.2334 0.526 0.0394, -0.1882 0.526 0.0394, -0.1882 0.839 0.0394, -0.2159 0.839 0.0394, -0.2768 0.8371 0.0394, -0.3369 0.8279 0.0394, -0.3804 0.807 0.0394, -0.4234 0.7563 0.0394, -0.4406 0.6776 0.0394, -0.1882 0.839 0.0, -0.1882 0.526 0.0, -0.2159 0.839 0.0, -0.2768 0.8371 0.0, -0.3369 0.8279 0.0, -0.3804 0.807 0.0, -0.4234 0.7563 0.0, -0.4406 0.6776 0.0, -0.4344 0.6286 0.0, -0.4022 0.571 0.0, -0.346 0.5361 0.0, -0.29 0.5276 0.0, -0.2334 0.526 0.0, 0.1399 0.4857 0.0394, 0.1399 0.8794 0.0394, 0.1399 0.4857 0.0, 0.1399 0.8794 0.0, -0.0822 0.8794 0.0394, -0.0822 0.8794 0.0, -0.0822 0.839 0.0394, -0.0822 0.839 0.0, 0.1045 0.839 0.0394, 0.1045 0.839 0.0, 0.1045 0.7178 0.0394, 0.1045 0.7178 0.0, -0.0822 0.7178 0.0394, -0.0822 0.7178 0.0, -0.0822 0.6775 0.0394, -0.0822 0.6775 0.0, 0.1045 0.6775 0.0394, 0.1045 0.6775 0.0, 0.1045 0.526 0.0394, 0.1045 0.526 0.0, -0.0822 0.526 0.0394, -0.0822 0.526 0.0, -0.0822 0.4857 0.0394, -0.0822 0.4857 0.0, 0.2206 0.8071 0.0394, 0.2206 0.8071 0.0, 0.233 0.8226 0.0, 0.233 0.8226 0.0394, 0.256 0.8443 0.0, 0.256 0.8443 0.0394, 0.2963 0.8692 0.0, 0.2963 0.8692 0.0394, 0.3924 0.8895 0.0394, 0.3684 0.8844 0.0, 0.3924 0.8895 0.0, 0.2515 0.7835 0.0394, 0.2515 0.7835 0.0, 0.3946 0.8491 0.0394, 0.3946 0.8491 0.0, 0.3783 0.8485 0.0, 0.3783 0.8485 0.0394, 0.3525 0.8449 0.0, 0.3525 0.8449 0.0394, 0.3154 0.8329 0.0, 0.3154 0.8329 0.0394, 0.5689 0.6821 0.0394, 0.5689 0.6821 0.0, 0.5683 0.698 0.0, 0.5683 0.698 0.0394, 0.5429 0.7725 0.0, 0.5429 0.7725 0.0394, 0.4819 0.8275 0.0, 0.4819 0.8275 0.0394, 0.3922 0.516 0.0394, 0.3922 0.516 0.0, 0.4169 0.5172 0.0, 0.4169 0.5172 0.0394, 0.4942 0.5441 0.0, 0.4942 0.5441 0.0394, 0.5485 0.601 0.0, 0.5485 0.601 0.0394, 0.2515 0.5816 0.0394, 0.2515 0.5816 0.0, 0.3144 0.5326 0.0, 0.3144 0.5326 0.0394, 0.2206 0.5581 0.0394, 0.2206 0.5581 0.0, 0.3919 0.4756 0.0394, 0.3919 0.4756 0.0, 0.3722 0.4763 0.0, 0.3722 0.4763 0.0394, 0.3422 0.4806 0.0, 0.3409 0.4808 0.0394, 0.3409 0.4808 0.0, 0.2961 0.496 0.0, 0.2961 0.496 0.0394, 0.5543 0.5444 0.0394, 0.5543 0.5444 0.0, 0.5418 0.5311 0.0, 0.5418 0.5311 0.0394, 0.5194 0.5125 0.0, 0.5194 0.5125 0.0394, 0.4811 0.4916 0.0, 0.4811 0.4916 0.0394, 0.42 0.4806 0.0, 0.6042 0.6848 0.0394, 0.6042 0.6848 0.0, 0.5922 0.61 0.0, 0.5922 0.61 0.0394, 0.4098 0.8888 0.0, 0.4098 0.8888 0.0394, 0.4237 0.8844 0.0, 0.5115 0.8564 0.0394, 0.5115 0.8564 0.0, 0.5789 0.7854 0.0, 0.5789 0.7854 0.0394, 0.8364 0.4857 0.0394, 0.8364 0.8794 0.0394, 0.8364 0.4857 0.0, 0.8364 0.8794 0.0, 0.8011 0.8794 0.0394, 0.8011 0.8794 0.0, 0.8011 0.526 0.0394, 0.8011 0.526 0.0, 0.6497 0.526 0.0394, 0.6497 0.526 0.0, 0.7276 0.526 0.0, 0.6497 0.4857 0.0394, 0.6497 0.4857 0.0, 0.7276 0.4857 0.0
            ]
        }
        coordIndex [
            0,1,2,-1,2,1,3,-1,4,5,6,-1,6,5,7,-1,4,6,8,-1,4,8,9,-1,9,8,10,-1,9,10,11,-1,11,10,0,-1,11,0,2,-1,12,13,14,-1,14,13,15,-1,16,17,18,-1,18,17,19,-1,20,16,21,-1,21,16,18,-1,22,20,23,-1,23,20,21,-1,13,22,15,-1,15,22,23,-1,13,12,22,-1,22,12,24,-1,22,24,20,-1,20,24,25,-1,20,25,16,-1,16,25,17,-1,26,27,28,-1,28,27,29,-1,28,29,30,-1,30,29,31,-1,32,33,34,-1,34,33,35,-1,34,35,36,-1,36,35,37,-1,30,32,28,-1,28,32,34,-1,35,33,29,-1,29,33,31,-1,36,37,26,-1,26,37,27,-1,27,37,29,-1,29,37,35,-1,28,34,26,-1,26,34,36,-1,38,39,40,-1,40,39,41,-1,39,42,41,-1,41,42,43,-1,42,44,43,-1,43,44,45,-1,44,46,45,-1,45,46,47,-1,46,48,47,-1,47,48,49,-1,48,50,49,-1,49,50,51,-1,50,52,51,-1,51,52,53,-1,52,38,53,-1,53,38,40,-1,54,42,39,-1,38,55,39,-1,39,55,56,-1,39,56,54,-1,52,50,48,-1,44,42,46,-1,46,42,54,-1,46,54,48,-1,48,54,55,-1,48,55,52,-1,52,55,38,-1,54,56,57,-1,57,56,58,-1,55,54,59,-1,59,54,57,-1,56,55,58,-1,58,55,59,-1,60,61,62,-1,62,61,63,-1,61,64,63,-1,63,64,65,-1,64,66,65,-1,65,66,67,-1,68,69,70,-1,68,70,71,-1,71,70,67,-1,71,67,66,-1,72,73,74,-1,72,74,75,-1,75,74,76,-1,75,76,77,-1,77,76,69,-1,77,69,68,-1,60,62,78,-1,60,78,79,-1,79,78,80,-1,79,80,81,-1,81,80,82,-1,81,82,83,-1,83,82,73,-1,83,73,72,-1,84,85,81,-1,81,85,86,-1,81,86,79,-1,79,86,87,-1,79,87,60,-1,60,87,88,-1,60,88,61,-1,61,88,89,-1,61,89,64,-1,64,89,90,-1,64,90,66,-1,66,90,91,-1,66,91,71,-1,71,91,92,-1,71,92,68,-1,68,92,93,-1,68,93,77,-1,77,93,94,-1,77,94,75,-1,75,94,95,-1,75,95,72,-1,72,95,96,-1,72,96,83,-1,83,96,84,-1,83,84,81,-1,90,89,97,-1,97,89,98,-1,91,90,99,-1,99,90,97,-1,91,99,100,-1,91,100,92,-1,92,100,101,-1,92,101,93,-1,93,101,102,-1,93,102,94,-1,94,102,103,-1,94,103,95,-1,95,103,104,-1,95,104,96,-1,96,104,105,-1,96,105,84,-1,84,105,106,-1,84,106,85,-1,85,106,107,-1,85,107,86,-1,86,107,108,-1,86,108,87,-1,87,108,109,-1,87,109,88,-1,89,88,98,-1,98,88,109,-1,110,111,112,-1,112,111,113,-1,111,114,113,-1,113,114,115,-1,114,116,115,-1,115,116,117,-1,116,118,117,-1,117,118,119,-1,118,120,119,-1,119,120,121,-1,120,122,121,-1,121,122,123,-1,122,124,123,-1,123,124,125,-1,124,126,125,-1,125,126,127,-1,126,128,127,-1,127,128,129,-1,128,130,129,-1,129,130,131,-1,130,132,131,-1,131,132,133,-1,132,110,133,-1,133,110,112,-1,110,132,130,-1,130,128,110,-1,110,128,126,-1,110,126,111,-1,116,114,118,-1,118,114,111,-1,118,111,120,-1,120,111,126,-1,120,126,122,-1,122,126,124,-1,134,135,136,-1,134,136,137,-1,137,136,138,-1,137,138,139,-1,139,138,140,-1,139,140,141,-1,141,140,142,-1,142,140,143,-1,142,143,144,-1,134,145,135,-1,135,145,146,-1,147,148,149,-1,147,149,150,-1,150,149,151,-1,150,151,152,-1,152,151,153,-1,152,153,154,-1,154,153,146,-1,154,146,145,-1,155,156,157,-1,155,157,158,-1,158,157,159,-1,158,159,160,-1,160,159,161,-1,160,161,162,-1,162,161,148,-1,162,148,147,-1,163,164,165,-1,163,165,166,-1,166,165,167,-1,166,167,168,-1,168,167,169,-1,168,169,170,-1,170,169,156,-1,170,156,155,-1,171,172,173,-1,171,173,174,-1,174,173,164,-1,174,164,163,-1,171,175,172,-1,172,175,176,-1,177,178,179,-1,177,179,180,-1,180,179,181,-1,180,181,182,-1,181,183,182,-1,182,183,184,-1,182,184,185,-1,185,184,176,-1,185,176,175,-1,186,187,188,-1,186,188,189,-1,189,188,190,-1,189,190,191,-1,191,190,192,-1,191,192,193,-1,193,192,177,-1,177,192,194,-1,177,194,178,-1,195,196,197,-1,195,197,198,-1,198,197,187,-1,198,187,186,-1,142,144,199,-1,142,199,200,-1,200,199,201,-1,200,201,202,-1,201,203,202,-1,202,203,204,-1,202,204,205,-1,205,204,196,-1,205,196,195,-1,175,171,185,-1,185,171,174,-1,195,198,170,-1,170,198,168,-1,168,198,186,-1,168,186,189,-1,145,134,137,-1,145,137,154,-1,154,137,139,-1,154,139,141,-1,189,191,168,-1,168,191,193,-1,168,193,166,-1,166,193,177,-1,166,177,163,-1,163,177,180,-1,163,180,174,-1,174,180,182,-1,174,182,185,-1,170,155,195,-1,195,155,158,-1,195,158,205,-1,205,158,160,-1,205,160,202,-1,202,160,162,-1,202,162,200,-1,200,162,147,-1,200,147,142,-1,142,147,150,-1,142,150,141,-1,141,150,152,-1,141,152,154,-1,206,207,208,-1,208,207,209,-1,207,210,209,-1,209,210,211,-1,210,212,211,-1,211,212,213,-1,214,215,212,-1,212,215,216,-1,212,216,213,-1,214,217,215,-1,215,217,218,-1,206,208,217,-1,217,208,219,-1,217,219,218,-1,210,207,212,-1,212,207,206,-1,212,206,214,-1,214,206,217,-1,
        ]
    }
}
Shape{
    appearance Appearance {
        material  Material 	{
            diffuseColor 0.0 0.5019607843137255 0.25098039215686274
            specularColor 0.0 0.25098039215686274 0.12549019607843137
            ambientIntensity 0.3233
            transparency 0.0
            shininess 0.5
        }
    }
    geometry IndexedFaceSet {
        ccw TRUE
        solid FALSE
        coord DEF co Coordinate {
            point [
                -0.7153 0.8026 0.0, -0.644 0.6522 0.0, -0.7847 0.6522 0.0, -0.1882 0.839 0.0, -0.1882 0.526 0.0, -0.2159 0.839 0.0, -0.2334 0.526 0.0, -0.2768 0.8371 0.0, -0.29 0.5276 0.0, -0.3369 0.8279 0.0, -0.346 0.5361 0.0, -0.4022 0.571 0.0, -0.4344 0.6286 0.0, -0.4406 0.6776 0.0, -0.4234 0.7563 0.0, -0.3804 0.807 0.0, -2.2043 1.0602 1.8663, -2.2043 1.0602 0.0, -2.0075 1.0602 1.8663, -2.0075 1.0602 0.0, -2.2043 1.1925 1.8663, -2.0075 1.1925 1.8663, -2.2043 1.1925 0.0, -2.0075 1.1925 0.0, -2.2043 -1.2759 1.8663, -2.2043 -1.2759 0.0, -2.0075 -1.2759 1.8663, -2.0075 -1.2759 0.0, -2.2043 -1.1051 1.8663, -2.0075 -1.1051 1.8663, -2.2043 -1.1051 0.0, -2.0075 -1.1051 0.0, 1.7957 1.1925 1.8663, 1.7957 1.1925 0.0, 1.9925 1.1925 1.8663, 1.9925 1.1925 0.0, 1.7957 1.0602 0.0, 1.7957 1.0602 1.8663, 1.9925 1.0602 0.0, 1.9925 1.0602 1.8663, 1.7957 -1.1051 1.8663, 1.7957 -1.1051 0.0, 1.9925 -1.1051 1.8663, 1.9925 -1.1051 0.0, 1.7957 -1.2759 0.0, 1.7957 -1.2759 1.8663, 1.9925 -1.2759 0.0, 1.9925 -1.2759 1.8663
            ]
        }
        coordIndex [
            0,1,2,-1,3,4,5,-1,5,4,6,-1,5,6,7,-1,7,6,8,-1,7,8,9,-1,10,11,8,-1,8,11,12,-1,8,12,13,-1,13,14,8,-1,8,14,15,-1,8,15,9,-1,16,17,18,-1,18,17,19,-1,20,16,21,-1,21,16,18,-1,22,20,23,-1,23,20,21,-1,16,20,17,-1,17,20,22,-1,24,25,26,-1,26,25,27,-1,28,24,29,-1,29,24,26,-1,30,28,31,-1,31,28,29,-1,24,28,25,-1,25,28,30,-1,32,33,34,-1,34,33,35,-1,36,37,38,-1,38,37,39,-1,37,32,39,-1,39,32,34,-1,37,36,32,-1,32,36,33,-1,40,41,42,-1,42,41,43,-1,44,45,46,-1,46,45,47,-1,45,40,47,-1,47,40,42,-1,45,44,40,-1,40,44,41,-1,
        ]
    }
}