%TF.GenerationSoftware,KiCad,Pcbnew,10.0.5*%
%TF.CreationDate,2026-09-02T21:09:04-04:00*%
%TF.ProjectId,Peak_Control_2CH_SSR_Interface_RevA,5065616b-5f43-46f6-9e74-726f6c5f3243,A1.1*%
%TF.SameCoordinates,Original*%
%TF.FileFunction,Soldermask,Top*%
%TF.FilePolarity,Negative*%
%FSLAX46Y46*%
G04 Gerber Fmt 4.6, Leading zero omitted, Abs format (unit mm)*
G04 Created by KiCad (PCBNEW 10.0.5) date 2026-09-02 21:09:04*
%MOMM*%
%LPD*%
G01*
G04 APERTURE LIST*
G04 Aperture macros list*
%AMRoundRect*
0 Rectangle with rounded corners*
0 $1 Rounding radius*
0 $2 $3 $4 $5 $6 $7 $8 $9 X,Y pos of 4 corners*
0 Add a 4 corners polygon primitive as box body*
4,1,4,$2,$3,$4,$5,$6,$7,$8,$9,$2,$3,0*
0 Add four circle primitives for the rounded corners*
1,1,$1+$1,$2,$3*
1,1,$1+$1,$4,$5*
1,1,$1+$1,$6,$7*
1,1,$1+$1,$8,$9*
0 Add four rect primitives between the rounded corners*
20,1,$1+$1,$2,$3,$4,$5,0*
20,1,$1+$1,$4,$5,$6,$7,0*
20,1,$1+$1,$6,$7,$8,$9,0*
20,1,$1+$1,$8,$9,$2,$3,0*%
G04 Aperture macros list end*
%ADD10C,2.300000*%
%ADD11RoundRect,0.250000X-0.450000X0.350000X-0.450000X-0.350000X0.450000X-0.350000X0.450000X0.350000X0*%
%ADD12R,0.800000X1.200000*%
%ADD13C,2.700000*%
%ADD14RoundRect,0.250000X0.350000X0.450000X-0.350000X0.450000X-0.350000X-0.450000X0.350000X-0.450000X0*%
%ADD15RoundRect,0.250000X-0.475000X0.337500X-0.475000X-0.337500X0.475000X-0.337500X0.475000X0.337500X0*%
%ADD16RoundRect,0.250000X-0.550000X0.550000X-0.550000X-0.550000X0.550000X-0.550000X0.550000X0.550000X0*%
%ADD17C,1.600000*%
%ADD18C,2.200000*%
%ADD19RoundRect,0.249999X0.850001X-0.850001X0.850001X0.850001X-0.850001X0.850001X-0.850001X-0.850001X0*%
%ADD20RoundRect,0.250000X-0.900000X1.500000X-0.900000X-1.500000X0.900000X-1.500000X0.900000X1.500000X0*%
%ADD21O,1.000000X2.200000*%
G04 APERTURE END LIST*
D10*
%TO.C,J1*%
X38920000Y-16500000D03*
X44000000Y-16500000D03*
X49080000Y-16500000D03*
%TD*%
D11*
%TO.C,R15*%
X64920000Y-48500000D03*
X64920000Y-50500000D03*
%TD*%
D12*
%TO.C,U1*%
X70190000Y-50925000D03*
X67650000Y-50925000D03*
X67650000Y-57075000D03*
X70190000Y-57075000D03*
%TD*%
D13*
%TO.C,REF\u002A\u002A*%
X5500000Y-60000000D03*
%TD*%
D11*
%TO.C,R16*%
X65000000Y-33500000D03*
X65000000Y-35500000D03*
%TD*%
D14*
%TO.C,R11*%
X69920000Y-47500000D03*
X67920000Y-47500000D03*
%TD*%
D13*
%TO.C,REF\u002A\u002A*%
X5500000Y-11000000D03*
%TD*%
D15*
%TO.C,C2*%
X47500000Y-51462500D03*
X47500000Y-53537500D03*
%TD*%
D16*
%TO.C,C1*%
X41000000Y-51000000D03*
D17*
X41000000Y-54500000D03*
%TD*%
D14*
%TO.C,R12*%
X70000000Y-32500000D03*
X68000000Y-32500000D03*
%TD*%
D18*
%TO.C,J2*%
X51960000Y-63172500D03*
X57040000Y-63172500D03*
%TD*%
D13*
%TO.C,REF\u002A\u002A*%
X63500000Y-60000000D03*
%TD*%
%TO.C,REF\u002A\u002A*%
X63500000Y-11000000D03*
%TD*%
D19*
%TO.C,D11*%
X74920000Y-57080000D03*
D18*
X74920000Y-46920000D03*
%TD*%
D20*
%TO.C,D1*%
X33000000Y-52300000D03*
X33000000Y-57700000D03*
%TD*%
D18*
%TO.C,J4*%
X84000000Y-39500000D03*
X84000000Y-34420000D03*
%TD*%
D21*
%TO.C,F1*%
X22500000Y-65000000D03*
X44500000Y-65000000D03*
%TD*%
D19*
%TO.C,D12*%
X75000000Y-42080000D03*
D18*
X75000000Y-31920000D03*
%TD*%
%TO.C,J3*%
X84000000Y-54540000D03*
X84000000Y-49460000D03*
%TD*%
D12*
%TO.C,U2*%
X70270000Y-35925000D03*
X67730000Y-35925000D03*
X67730000Y-42075000D03*
X70270000Y-42075000D03*
%TD*%
M02*
