%TF.GenerationSoftware,KiCad,Pcbnew,10.0.5*%
%TF.CreationDate,2026-09-02T21:09:04-04:00*%
%TF.ProjectId,Peak_Control_2CH_SSR_Interface_RevA,5065616b-5f43-46f6-9e74-726f6c5f3243,A1.1*%
%TF.SameCoordinates,Original*%
%TF.FileFunction,Copper,L3,Inr*%
%TF.FilePolarity,Positive*%
%FSLAX46Y46*%
G04 Gerber Fmt 4.6, Leading zero omitted, Abs format (unit mm)*
G04 Created by KiCad (PCBNEW 10.0.5) date 2026-09-02 21:09:04*
%MOMM*%
%LPD*%
G01*
G04 APERTURE LIST*
G04 Aperture macros list*
%AMRoundRect*
0 Rectangle with rounded corners*
0 $1 Rounding radius*
0 $2 $3 $4 $5 $6 $7 $8 $9 X,Y pos of 4 corners*
0 Add a 4 corners polygon primitive as box body*
4,1,4,$2,$3,$4,$5,$6,$7,$8,$9,$2,$3,0*
0 Add four circle primitives for the rounded corners*
1,1,$1+$1,$2,$3*
1,1,$1+$1,$4,$5*
1,1,$1+$1,$6,$7*
1,1,$1+$1,$8,$9*
0 Add four rect primitives between the rounded corners*
20,1,$1+$1,$2,$3,$4,$5,0*
20,1,$1+$1,$4,$5,$6,$7,0*
20,1,$1+$1,$6,$7,$8,$9,0*
20,1,$1+$1,$8,$9,$2,$3,0*%
G04 Aperture macros list end*
%TA.AperFunction,ComponentPad*%
%ADD10C,2.300000*%
%TD*%
%TA.AperFunction,ComponentPad*%
%ADD11RoundRect,0.250000X-0.550000X0.550000X-0.550000X-0.550000X0.550000X-0.550000X0.550000X0.550000X0*%
%TD*%
%TA.AperFunction,ComponentPad*%
%ADD12C,1.600000*%
%TD*%
%TA.AperFunction,ComponentPad*%
%ADD13C,2.200000*%
%TD*%
%TA.AperFunction,ComponentPad*%
%ADD14RoundRect,0.249999X0.850001X-0.850001X0.850001X0.850001X-0.850001X0.850001X-0.850001X-0.850001X0*%
%TD*%
%TA.AperFunction,ComponentPad*%
%ADD15O,1.000000X2.200000*%
%TD*%
%TA.AperFunction,ViaPad*%
%ADD16C,0.800000*%
%TD*%
%TA.AperFunction,ViaPad*%
%ADD17C,0.600000*%
%TD*%
%TA.AperFunction,ViaPad*%
%ADD18C,1.200000*%
%TD*%
G04 APERTURE END LIST*
D10*
%TO.N,/PI_GND*%
%TO.C,J1*%
X38920000Y-16500000D03*
%TO.N,/GPIO_IN1*%
X44000000Y-16500000D03*
%TO.N,/GPIO_IN2*%
X49080000Y-16500000D03*
%TD*%
D11*
%TO.N,/+24V_FIELD*%
%TO.C,C1*%
X41000000Y-51000000D03*
D12*
%TO.N,/FIELD_GND*%
X41000000Y-54500000D03*
%TD*%
D13*
%TO.N,Net-(J2-Pin_1)*%
%TO.C,J2*%
X51960000Y-63172500D03*
%TO.N,/FIELD_GND*%
X57040000Y-63172500D03*
%TD*%
D14*
%TO.N,/OUT1_SW*%
%TO.C,D11*%
X74920000Y-57080000D03*
D13*
%TO.N,/FIELD_GND*%
X74920000Y-46920000D03*
%TD*%
%TO.N,/OUT2_SW*%
%TO.C,J4*%
X84000000Y-39500000D03*
%TO.N,/FIELD_GND*%
X84000000Y-34420000D03*
%TD*%
D15*
%TO.N,/+24V_FIELD*%
%TO.C,F1*%
X22500000Y-65000000D03*
%TO.N,Net-(J2-Pin_1)*%
X44500000Y-65000000D03*
%TD*%
D14*
%TO.N,/OUT2_SW*%
%TO.C,D12*%
X75000000Y-42080000D03*
D13*
%TO.N,/FIELD_GND*%
X75000000Y-31920000D03*
%TD*%
%TO.N,/OUT1_SW*%
%TO.C,J3*%
X84000000Y-54540000D03*
%TO.N,/FIELD_GND*%
X84000000Y-49460000D03*
%TD*%
D16*
%TO.N,/PI_GND*%
X39000000Y-24500000D03*
X60000000Y-35500000D03*
X60000000Y-50000000D03*
D17*
%TO.N,/GPIO_IN1*%
X66000000Y-47500000D03*
%TO.N,/GPIO_IN2*%
X66500000Y-32500000D03*
D18*
%TO.N,/FIELD_GND*%
X47000000Y-56000000D03*
X38000000Y-58000000D03*
%TD*%
%TA.AperFunction,Conductor*%
%TO.N,/PI_GND*%
G36*
X60943039Y-22519685D02*
G01*
X60988794Y-22572489D01*
X61000000Y-22624000D01*
X61000000Y-51299989D01*
X60980315Y-51367028D01*
X60927511Y-51412783D01*
X60876000Y-51423989D01*
X59124000Y-51423989D01*
X59056961Y-51404304D01*
X59011206Y-51351500D01*
X59000000Y-51299989D01*
X59000000Y-39500000D01*
X52000000Y-39500000D01*
X52000000Y-47876000D01*
X51980315Y-47943039D01*
X51927511Y-47988794D01*
X51876000Y-48000000D01*
X27624000Y-48000000D01*
X27556961Y-47980315D01*
X27511206Y-47927511D01*
X27500000Y-47876000D01*
X27500000Y-22624000D01*
X27519685Y-22556961D01*
X27572489Y-22511206D01*
X27624000Y-22500000D01*
X60876000Y-22500000D01*
X60943039Y-22519685D01*
G37*
%TD.AperFunction*%
%TD*%
%TA.AperFunction,Conductor*%
%TO.N,/FIELD_GND*%
G36*
X77391372Y-29005023D02*
G01*
X77406370Y-29009427D01*
X77465121Y-29047172D01*
X77466008Y-29048195D01*
X77493669Y-29103920D01*
X77495421Y-29112255D01*
X77498061Y-29139484D01*
X77442814Y-33117386D01*
X77001945Y-64859896D01*
X76996437Y-64894758D01*
X76991826Y-64909691D01*
X76953239Y-64967939D01*
X76953232Y-64967945D01*
X76951494Y-64969409D01*
X76897138Y-64995914D01*
X76890346Y-64997343D01*
X76864816Y-65000000D01*
X55130049Y-65000000D01*
X55095108Y-64994975D01*
X55080109Y-64990570D01*
X55021348Y-64952810D01*
X55018018Y-64948968D01*
X54992027Y-64900149D01*
X54991505Y-64898218D01*
X54987818Y-64878187D01*
X54928865Y-64288645D01*
X54852605Y-63526053D01*
X54806232Y-63062318D01*
X55640000Y-63062318D01*
X55640000Y-63282680D01*
X55674473Y-63500336D01*
X55742565Y-63709907D01*
X55742566Y-63709910D01*
X55842610Y-63906254D01*
X55842611Y-63906256D01*
X55884878Y-63964434D01*
X55888932Y-63970013D01*
X56286876Y-63572068D01*
X56348197Y-63538585D01*
X56417888Y-63543569D01*
X56473822Y-63585440D01*
X56477657Y-63590860D01*
X56496274Y-63618722D01*
X56496277Y-63618726D01*
X56593773Y-63716222D01*
X56593778Y-63716226D01*
X56621635Y-63734839D01*
X56666441Y-63788450D01*
X56675150Y-63857775D01*
X56644996Y-63920803D01*
X56640427Y-63925623D01*
X56242485Y-64323564D01*
X56242484Y-64323565D01*
X56242485Y-64323566D01*
X56306243Y-64369888D01*
X56404416Y-64419910D01*
X56502588Y-64469932D01*
X56502591Y-64469933D01*
X56607376Y-64503979D01*
X56712164Y-64538026D01*
X56929819Y-64572500D01*
X57150180Y-64572500D01*
X57150181Y-64572500D01*
X57367835Y-64538026D01*
X57577410Y-64469932D01*
X57773760Y-64369886D01*
X57804918Y-64347247D01*
X57831656Y-64337707D01*
X57837514Y-64323565D01*
X57439571Y-63925624D01*
X57406086Y-63864301D01*
X57411070Y-63794610D01*
X57452941Y-63738676D01*
X57458344Y-63734853D01*
X57486223Y-63716225D01*
X57583725Y-63618723D01*
X57602341Y-63590862D01*
X57655952Y-63546058D01*
X57725277Y-63537349D01*
X57788305Y-63567504D01*
X57793124Y-63572072D01*
X58191065Y-63970014D01*
X58191065Y-63970013D01*
X58191066Y-63970014D01*
X58191066Y-63970013D01*
X58204534Y-63964434D01*
X58210751Y-63943264D01*
X58214749Y-63937416D01*
X58237386Y-63906260D01*
X58337432Y-63709910D01*
X58405526Y-63500335D01*
X58440000Y-63282681D01*
X58440000Y-63062318D01*
X58405526Y-62844664D01*
X58337432Y-62635089D01*
X58337432Y-62635088D01*
X58258765Y-62480698D01*
X58237388Y-62438743D01*
X58191066Y-62374985D01*
X58191064Y-62374985D01*
X57793123Y-62772926D01*
X57731800Y-62806411D01*
X57662108Y-62801427D01*
X57606175Y-62759555D01*
X57602340Y-62754135D01*
X57583728Y-62726281D01*
X57583722Y-62726273D01*
X57486225Y-62628776D01*
X57474430Y-62620895D01*
X57458359Y-62610156D01*
X57413555Y-62556546D01*
X57404846Y-62487221D01*
X57435001Y-62424193D01*
X57439546Y-62419397D01*
X57837513Y-62021432D01*
X57773756Y-61975111D01*
X57770082Y-61973239D01*
X57577410Y-61875066D01*
X57577407Y-61875065D01*
X57367836Y-61806973D01*
X57259008Y-61789736D01*
X57150181Y-61772500D01*
X57150180Y-61772500D01*
X56929814Y-61772500D01*
X56712162Y-61806973D01*
X56502591Y-61875065D01*
X56502588Y-61875066D01*
X56306234Y-61975115D01*
X56306230Y-61975117D01*
X56242484Y-62021431D01*
X56640428Y-62419375D01*
X56673913Y-62480698D01*
X56668929Y-62550390D01*
X56627057Y-62606323D01*
X56621639Y-62610157D01*
X56593779Y-62628772D01*
X56593773Y-62628777D01*
X56496277Y-62726273D01*
X56496272Y-62726279D01*
X56477657Y-62754139D01*
X56424045Y-62798943D01*
X56354720Y-62807650D01*
X56291692Y-62777495D01*
X56286875Y-62772928D01*
X55888932Y-62374985D01*
X55888931Y-62374985D01*
X55842617Y-62438730D01*
X55842615Y-62438734D01*
X55742566Y-62635088D01*
X55742565Y-62635091D01*
X55674473Y-62844662D01*
X55640000Y-63062318D01*
X54806232Y-63062318D01*
X54500000Y-60000000D01*
X54499999Y-60000000D01*
X35641830Y-60000000D01*
X35606889Y-59994975D01*
X35591890Y-59990570D01*
X35533144Y-59952827D01*
X35531957Y-59951458D01*
X35504477Y-59896583D01*
X35502832Y-59889021D01*
X35500000Y-59862668D01*
X35500000Y-53641829D01*
X35505023Y-53606893D01*
X35509427Y-53591895D01*
X35547172Y-53533144D01*
X35548541Y-53531957D01*
X35603420Y-53504477D01*
X35604377Y-53504269D01*
X35605041Y-53504124D01*
X35610979Y-53502833D01*
X35637332Y-53500000D01*
X40236948Y-53500000D01*
X40251488Y-53504269D01*
X40283017Y-53500879D01*
X40351775Y-53513281D01*
X40351777Y-53513282D01*
X40351778Y-53513283D01*
X40363955Y-53519378D01*
X40396134Y-53542582D01*
X40817054Y-53963501D01*
X40850539Y-54024824D01*
X40845555Y-54094515D01*
X40803684Y-54150449D01*
X40791374Y-54158568D01*
X40754400Y-54179915D01*
X40754392Y-54179921D01*
X40679921Y-54254392D01*
X40679917Y-54254397D01*
X40658570Y-54291373D01*
X40608004Y-54339588D01*
X40539397Y-54352812D01*
X40474532Y-54326844D01*
X40463502Y-54317054D01*
X40063709Y-53917261D01*
X40063708Y-53917261D01*
X40059205Y-53923459D01*
X40059196Y-53923473D01*
X40059187Y-53923491D01*
X39980594Y-54077734D01*
X39980592Y-54077738D01*
X39980592Y-54077740D01*
X39927085Y-54242415D01*
X39927084Y-54242418D01*
X39927084Y-54242420D01*
X39900000Y-54413423D01*
X39900000Y-54586575D01*
X39925187Y-54745602D01*
X39927085Y-54757584D01*
X39980592Y-54922259D01*
X39980593Y-54922260D01*
X39980594Y-54922264D01*
X40050193Y-55058856D01*
X40055067Y-55079157D01*
X40063709Y-55082737D01*
X40463503Y-54682942D01*
X40524824Y-54649459D01*
X40594515Y-54654443D01*
X40650449Y-54696314D01*
X40658567Y-54708622D01*
X40679920Y-54745606D01*
X40754394Y-54820080D01*
X40791372Y-54841429D01*
X40839587Y-54891994D01*
X40852812Y-54960600D01*
X40826845Y-55025466D01*
X40817054Y-55036497D01*
X40417260Y-55436288D01*
X40417261Y-55436288D01*
X40417261Y-55436289D01*
X40417262Y-55436290D01*
X40423471Y-55440801D01*
X40577742Y-55519408D01*
X40742415Y-55572914D01*
X40913429Y-55600000D01*
X41086570Y-55600000D01*
X41086571Y-55600000D01*
X41257584Y-55572914D01*
X41422257Y-55519408D01*
X41558858Y-55449805D01*
X41579156Y-55444931D01*
X41582737Y-55436288D01*
X41182946Y-55036497D01*
X41149461Y-54975174D01*
X41154445Y-54905482D01*
X41196317Y-54849549D01*
X41208622Y-54841432D01*
X41245606Y-54820080D01*
X41320080Y-54745606D01*
X41341429Y-54708627D01*
X41391994Y-54660413D01*
X41460600Y-54647188D01*
X41525466Y-54673155D01*
X41536497Y-54682946D01*
X41936288Y-55082737D01*
X41936288Y-55082736D01*
X41936289Y-55082737D01*
X41936289Y-55082736D01*
X41944931Y-55079157D01*
X41949805Y-55058857D01*
X41961199Y-55036497D01*
X42019408Y-54922257D01*
X42072914Y-54757584D01*
X42100000Y-54586571D01*
X42100000Y-54413428D01*
X42072914Y-54242415D01*
X42019408Y-54077742D01*
X41940801Y-53923471D01*
X41936290Y-53917262D01*
X41936289Y-53917261D01*
X41936288Y-53917261D01*
X41536497Y-54317053D01*
X41475174Y-54350538D01*
X41405483Y-54345554D01*
X41349549Y-54303683D01*
X41341432Y-54291377D01*
X41320080Y-54254394D01*
X41245606Y-54179920D01*
X41245605Y-54179919D01*
X41245602Y-54179917D01*
X41208626Y-54158569D01*
X41160410Y-54108002D01*
X41147188Y-54039395D01*
X41173156Y-53974530D01*
X41182939Y-53963507D01*
X41602505Y-53543940D01*
X41630743Y-53522799D01*
X41644477Y-53515300D01*
X41712741Y-53500448D01*
X41714818Y-53500597D01*
X41714818Y-53500595D01*
X41741204Y-53502483D01*
X41742230Y-53501970D01*
X41764247Y-53500000D01*
X48858170Y-53500000D01*
X48893106Y-53505023D01*
X48908104Y-53509427D01*
X48966855Y-53547172D01*
X48968042Y-53548541D01*
X48995518Y-53603402D01*
X48997163Y-53610960D01*
X49000000Y-53637331D01*
X49000000Y-58000000D01*
X55917609Y-58000000D01*
X55952541Y-58005021D01*
X55973361Y-58011135D01*
X56024357Y-58040715D01*
X56028304Y-58044509D01*
X56043957Y-58062796D01*
X57400000Y-60000000D01*
X59062489Y-62374985D01*
X59391264Y-62844664D01*
X59500000Y-63000000D01*
X72000000Y-63000000D01*
X72000000Y-56186897D01*
X73519500Y-56186897D01*
X73519500Y-56186898D01*
X73519500Y-56186902D01*
X73519500Y-56190316D01*
X73519500Y-57973102D01*
X73519588Y-57974167D01*
X73519837Y-57975905D01*
X73525094Y-58019685D01*
X73529081Y-58052890D01*
X73529239Y-58054201D01*
X73529529Y-58059051D01*
X73530417Y-58062813D01*
X73532120Y-58066630D01*
X73585637Y-58202339D01*
X73585640Y-58202345D01*
X73677076Y-58322923D01*
X73797654Y-58414359D01*
X73797657Y-58414361D01*
X73938435Y-58469877D01*
X74026897Y-58480500D01*
X75813102Y-58480499D01*
X75901565Y-58469877D01*
X76042343Y-58414361D01*
X76162923Y-58322923D01*
X76254361Y-58202343D01*
X76309877Y-58061565D01*
X76320500Y-57973103D01*
X76320499Y-56186898D01*
X76309877Y-56098435D01*
X76254361Y-55957657D01*
X76254359Y-55957654D01*
X76162923Y-55837076D01*
X76042345Y-55745640D01*
X76042343Y-55745639D01*
X76042336Y-55745635D01*
X75901572Y-55690124D01*
X75901564Y-55690122D01*
X75888928Y-55688605D01*
X75888927Y-55688605D01*
X75813103Y-55679500D01*
X75813097Y-55679500D01*
X75813096Y-55679500D01*
X74026908Y-55679500D01*
X74026903Y-55679500D01*
X73973793Y-55685877D01*
X73938440Y-55690122D01*
X73938436Y-55690122D01*
X73938435Y-55690123D01*
X73938431Y-55690124D01*
X73938422Y-55690126D01*
X73938421Y-55690127D01*
X73797684Y-55745627D01*
X73797668Y-55745633D01*
X73797660Y-55745637D01*
X73797656Y-55745639D01*
X73797650Y-55745642D01*
X73677076Y-55837076D01*
X73585640Y-55957653D01*
X73585635Y-55957662D01*
X73530124Y-56098428D01*
X73529475Y-56101842D01*
X73529296Y-56104821D01*
X73529308Y-56105217D01*
X73529294Y-56105337D01*
X73519500Y-56186897D01*
X72000000Y-56186897D01*
X72000000Y-46809818D01*
X73520000Y-46809818D01*
X73520000Y-47030180D01*
X73554473Y-47247836D01*
X73622565Y-47457407D01*
X73622566Y-47457410D01*
X73722610Y-47653754D01*
X73722611Y-47653756D01*
X73764878Y-47711934D01*
X73768932Y-47717513D01*
X74273695Y-47212749D01*
X74335016Y-47179266D01*
X74404707Y-47184250D01*
X74460641Y-47226121D01*
X74468762Y-47238433D01*
X74479887Y-47257704D01*
X74479890Y-47257708D01*
X74582292Y-47360110D01*
X74582293Y-47360111D01*
X74582295Y-47360112D01*
X74601563Y-47371236D01*
X74649780Y-47421802D01*
X74663004Y-47490409D01*
X74637037Y-47555274D01*
X74627246Y-47566305D01*
X74122485Y-48071064D01*
X74122484Y-48071065D01*
X74122485Y-48071066D01*
X74186243Y-48117388D01*
X74284416Y-48167410D01*
X74382588Y-48217432D01*
X74382591Y-48217433D01*
X74487376Y-48251479D01*
X74592164Y-48285526D01*
X74809819Y-48320000D01*
X75030180Y-48320000D01*
X75030181Y-48320000D01*
X75247835Y-48285526D01*
X75457410Y-48217432D01*
X75653760Y-48117386D01*
X75684918Y-48094747D01*
X75711656Y-48085207D01*
X75717514Y-48071065D01*
X75212753Y-47566305D01*
X75179268Y-47504982D01*
X75184252Y-47435291D01*
X75226123Y-47379357D01*
X75238433Y-47371238D01*
X75257708Y-47360110D01*
X75360110Y-47257708D01*
X75371235Y-47238437D01*
X75421800Y-47190220D01*
X75490407Y-47176995D01*
X75555272Y-47202961D01*
X75566305Y-47212753D01*
X76071065Y-47717514D01*
X76071065Y-47717513D01*
X76071066Y-47717514D01*
X76071066Y-47717513D01*
X76084534Y-47711934D01*
X76090751Y-47690764D01*
X76094749Y-47684916D01*
X76117386Y-47653760D01*
X76217432Y-47457410D01*
X76285526Y-47247835D01*
X76320000Y-47030181D01*
X76320000Y-46809818D01*
X76285526Y-46592164D01*
X76224619Y-46404708D01*
X76217433Y-46382591D01*
X76217432Y-46382588D01*
X76161946Y-46273692D01*
X76117388Y-46186243D01*
X76071066Y-46122485D01*
X76071064Y-46122485D01*
X75566305Y-46627245D01*
X75504982Y-46660730D01*
X75435290Y-46655746D01*
X75379357Y-46613874D01*
X75371237Y-46601564D01*
X75360112Y-46582295D01*
X75360108Y-46582290D01*
X75257709Y-46479891D01*
X75257704Y-46479887D01*
X75238430Y-46468759D01*
X75190215Y-46418191D01*
X75176994Y-46349584D01*
X75202963Y-46284720D01*
X75212741Y-46273702D01*
X75717513Y-45768932D01*
X75653756Y-45722611D01*
X75650082Y-45720739D01*
X75457410Y-45622566D01*
X75457407Y-45622565D01*
X75247836Y-45554473D01*
X75139008Y-45537236D01*
X75030181Y-45520000D01*
X75030180Y-45520000D01*
X74809814Y-45520000D01*
X74592162Y-45554473D01*
X74382591Y-45622565D01*
X74382588Y-45622566D01*
X74186234Y-45722615D01*
X74186230Y-45722617D01*
X74122484Y-45768931D01*
X74627246Y-46273693D01*
X74660731Y-46335016D01*
X74655747Y-46404708D01*
X74613875Y-46460641D01*
X74601569Y-46468759D01*
X74582295Y-46479887D01*
X74582290Y-46479891D01*
X74479891Y-46582290D01*
X74479887Y-46582295D01*
X74468759Y-46601569D01*
X74418190Y-46649783D01*
X74349582Y-46663003D01*
X74284719Y-46637033D01*
X74273693Y-46627246D01*
X73768932Y-46122485D01*
X73768931Y-46122485D01*
X73722617Y-46186230D01*
X73722615Y-46186234D01*
X73622566Y-46382588D01*
X73622565Y-46382591D01*
X73554473Y-46592162D01*
X73520000Y-46809818D01*
X72000000Y-46809818D01*
X72000000Y-41186897D01*
X73599500Y-41186897D01*
X73599500Y-41186898D01*
X73599500Y-41186902D01*
X73599500Y-41190316D01*
X73599500Y-42973102D01*
X73599588Y-42974167D01*
X73599837Y-42975905D01*
X73609239Y-43054201D01*
X73609529Y-43059051D01*
X73610417Y-43062813D01*
X73612120Y-43066630D01*
X73665637Y-43202339D01*
X73665640Y-43202345D01*
X73757076Y-43322923D01*
X73877654Y-43414359D01*
X73877657Y-43414361D01*
X74018435Y-43469877D01*
X74106897Y-43480500D01*
X75893102Y-43480499D01*
X75981565Y-43469877D01*
X76122343Y-43414361D01*
X76242923Y-43322923D01*
X76334361Y-43202343D01*
X76389877Y-43061565D01*
X76400500Y-42973103D01*
X76400499Y-41186898D01*
X76389877Y-41098435D01*
X76334361Y-40957657D01*
X76334359Y-40957654D01*
X76242923Y-40837076D01*
X76122345Y-40745640D01*
X76122343Y-40745639D01*
X76122336Y-40745635D01*
X75981572Y-40690124D01*
X75981564Y-40690122D01*
X75968928Y-40688605D01*
X75968927Y-40688605D01*
X75893103Y-40679500D01*
X75893097Y-40679500D01*
X75893096Y-40679500D01*
X74106908Y-40679500D01*
X74106903Y-40679500D01*
X74053793Y-40685877D01*
X74018440Y-40690122D01*
X74018436Y-40690122D01*
X74018435Y-40690123D01*
X74018431Y-40690124D01*
X74018422Y-40690126D01*
X74018421Y-40690127D01*
X73877684Y-40745627D01*
X73877668Y-40745633D01*
X73877660Y-40745637D01*
X73877656Y-40745639D01*
X73877650Y-40745642D01*
X73757076Y-40837076D01*
X73665640Y-40957653D01*
X73665635Y-40957662D01*
X73610124Y-41098428D01*
X73609475Y-41101842D01*
X73609296Y-41104821D01*
X73609308Y-41105217D01*
X73609294Y-41105337D01*
X73599500Y-41186897D01*
X72000000Y-41186897D01*
X72000000Y-31809818D01*
X73600000Y-31809818D01*
X73600000Y-32030180D01*
X73634473Y-32247836D01*
X73702565Y-32457407D01*
X73702566Y-32457410D01*
X73802610Y-32653754D01*
X73802611Y-32653756D01*
X73844878Y-32711934D01*
X73848932Y-32717513D01*
X74353695Y-32212749D01*
X74415016Y-32179266D01*
X74484707Y-32184250D01*
X74540641Y-32226121D01*
X74548762Y-32238433D01*
X74559887Y-32257704D01*
X74559890Y-32257708D01*
X74662292Y-32360110D01*
X74662293Y-32360111D01*
X74662295Y-32360112D01*
X74681563Y-32371236D01*
X74729780Y-32421802D01*
X74743004Y-32490409D01*
X74717037Y-32555274D01*
X74707246Y-32566305D01*
X74202485Y-33071064D01*
X74202484Y-33071065D01*
X74202485Y-33071066D01*
X74266243Y-33117388D01*
X74364416Y-33167410D01*
X74462588Y-33217432D01*
X74462591Y-33217433D01*
X74567376Y-33251479D01*
X74672164Y-33285526D01*
X74889819Y-33320000D01*
X75110180Y-33320000D01*
X75110181Y-33320000D01*
X75327835Y-33285526D01*
X75537410Y-33217432D01*
X75733760Y-33117386D01*
X75764918Y-33094747D01*
X75791656Y-33085207D01*
X75797514Y-33071065D01*
X75292753Y-32566305D01*
X75259268Y-32504982D01*
X75264252Y-32435291D01*
X75306123Y-32379357D01*
X75318433Y-32371238D01*
X75337708Y-32360110D01*
X75440110Y-32257708D01*
X75451235Y-32238437D01*
X75501800Y-32190220D01*
X75570407Y-32176995D01*
X75635272Y-32202961D01*
X75646305Y-32212753D01*
X76151065Y-32717514D01*
X76151065Y-32717513D01*
X76151066Y-32717514D01*
X76151066Y-32717513D01*
X76164534Y-32711934D01*
X76170751Y-32690764D01*
X76174749Y-32684916D01*
X76197386Y-32653760D01*
X76297432Y-32457410D01*
X76365526Y-32247835D01*
X76400000Y-32030181D01*
X76400000Y-31809818D01*
X76365526Y-31592164D01*
X76304619Y-31404708D01*
X76297433Y-31382591D01*
X76297432Y-31382588D01*
X76241946Y-31273692D01*
X76197388Y-31186243D01*
X76151066Y-31122485D01*
X76151064Y-31122485D01*
X75646305Y-31627245D01*
X75584982Y-31660730D01*
X75515290Y-31655746D01*
X75459357Y-31613874D01*
X75451237Y-31601564D01*
X75440112Y-31582295D01*
X75440108Y-31582290D01*
X75337709Y-31479891D01*
X75337704Y-31479887D01*
X75318430Y-31468759D01*
X75270215Y-31418191D01*
X75256994Y-31349584D01*
X75282963Y-31284720D01*
X75292741Y-31273702D01*
X75797513Y-30768932D01*
X75733756Y-30722611D01*
X75730082Y-30720739D01*
X75537410Y-30622566D01*
X75537407Y-30622565D01*
X75327836Y-30554473D01*
X75219008Y-30537236D01*
X75110181Y-30520000D01*
X75110180Y-30520000D01*
X74889814Y-30520000D01*
X74672162Y-30554473D01*
X74462591Y-30622565D01*
X74462588Y-30622566D01*
X74266234Y-30722615D01*
X74266230Y-30722617D01*
X74202484Y-30768931D01*
X74707246Y-31273693D01*
X74740731Y-31335016D01*
X74735747Y-31404708D01*
X74693875Y-31460641D01*
X74681569Y-31468759D01*
X74662295Y-31479887D01*
X74662290Y-31479891D01*
X74559891Y-31582290D01*
X74559887Y-31582295D01*
X74548759Y-31601569D01*
X74498190Y-31649783D01*
X74429582Y-31663003D01*
X74364719Y-31637033D01*
X74353693Y-31627246D01*
X73848932Y-31122485D01*
X73848931Y-31122485D01*
X73802617Y-31186230D01*
X73802615Y-31186234D01*
X73702566Y-31382588D01*
X73702565Y-31382591D01*
X73634473Y-31592162D01*
X73600000Y-31809818D01*
X72000000Y-31809818D01*
X72000000Y-29141829D01*
X72005023Y-29106893D01*
X72009427Y-29091895D01*
X72047172Y-29033144D01*
X72048541Y-29031957D01*
X72103420Y-29004477D01*
X72110979Y-29002833D01*
X72137332Y-29000000D01*
X77356436Y-29000000D01*
X77391372Y-29005023D01*
G37*
%TD.AperFunction*%
%TD*%
M02*
