%TF.GenerationSoftware,KiCad,Pcbnew,10.0.5*%
%TF.CreationDate,2026-09-02T21:09:04-04:00*%
%TF.ProjectId,Peak_Control_2CH_SSR_Interface_RevA,5065616b-5f43-46f6-9e74-726f6c5f3243,A1.1*%
%TF.SameCoordinates,Original*%
%TF.FileFunction,Copper,L1,Top*%
%TF.FilePolarity,Positive*%
%FSLAX46Y46*%
G04 Gerber Fmt 4.6, Leading zero omitted, Abs format (unit mm)*
G04 Created by KiCad (PCBNEW 10.0.5) date 2026-09-02 21:09:04*
%MOMM*%
%LPD*%
G01*
G04 APERTURE LIST*
G04 Aperture macros list*
%AMRoundRect*
0 Rectangle with rounded corners*
0 $1 Rounding radius*
0 $2 $3 $4 $5 $6 $7 $8 $9 X,Y pos of 4 corners*
0 Add a 4 corners polygon primitive as box body*
4,1,4,$2,$3,$4,$5,$6,$7,$8,$9,$2,$3,0*
0 Add four circle primitives for the rounded corners*
1,1,$1+$1,$2,$3*
1,1,$1+$1,$4,$5*
1,1,$1+$1,$6,$7*
1,1,$1+$1,$8,$9*
0 Add four rect primitives between the rounded corners*
20,1,$1+$1,$2,$3,$4,$5,0*
20,1,$1+$1,$4,$5,$6,$7,0*
20,1,$1+$1,$6,$7,$8,$9,0*
20,1,$1+$1,$8,$9,$2,$3,0*%
G04 Aperture macros list end*
%TA.AperFunction,ComponentPad*%
%ADD10C,2.300000*%
%TD*%
%TA.AperFunction,SMDPad,CuDef*%
%ADD11RoundRect,0.250000X-0.450000X0.350000X-0.450000X-0.350000X0.450000X-0.350000X0.450000X0.350000X0*%
%TD*%
%TA.AperFunction,SMDPad,CuDef*%
%ADD12R,0.800000X1.200000*%
%TD*%
%TA.AperFunction,SMDPad,CuDef*%
%ADD13RoundRect,0.250000X0.350000X0.450000X-0.350000X0.450000X-0.350000X-0.450000X0.350000X-0.450000X0*%
%TD*%
%TA.AperFunction,SMDPad,CuDef*%
%ADD14RoundRect,0.250000X-0.475000X0.337500X-0.475000X-0.337500X0.475000X-0.337500X0.475000X0.337500X0*%
%TD*%
%TA.AperFunction,ComponentPad*%
%ADD15RoundRect,0.250000X-0.550000X0.550000X-0.550000X-0.550000X0.550000X-0.550000X0.550000X0.550000X0*%
%TD*%
%TA.AperFunction,ComponentPad*%
%ADD16C,1.600000*%
%TD*%
%TA.AperFunction,ComponentPad*%
%ADD17C,2.200000*%
%TD*%
%TA.AperFunction,ComponentPad*%
%ADD18RoundRect,0.249999X0.850001X-0.850001X0.850001X0.850001X-0.850001X0.850001X-0.850001X-0.850001X0*%
%TD*%
%TA.AperFunction,SMDPad,CuDef*%
%ADD19RoundRect,0.250000X-0.900000X1.500000X-0.900000X-1.500000X0.900000X-1.500000X0.900000X1.500000X0*%
%TD*%
%TA.AperFunction,ComponentPad*%
%ADD20O,1.000000X2.200000*%
%TD*%
%TA.AperFunction,ViaPad*%
%ADD21C,0.800000*%
%TD*%
%TA.AperFunction,ViaPad*%
%ADD22C,0.600000*%
%TD*%
%TA.AperFunction,ViaPad*%
%ADD23C,1.200000*%
%TD*%
%TA.AperFunction,Conductor*%
%ADD24C,0.400000*%
%TD*%
%TA.AperFunction,Conductor*%
%ADD25C,0.250000*%
%TD*%
%TA.AperFunction,Conductor*%
%ADD26C,1.500000*%
%TD*%
%TA.AperFunction,Conductor*%
%ADD27C,0.750000*%
%TD*%
%TA.AperFunction,Conductor*%
%ADD28C,2.000000*%
%TD*%
G04 APERTURE END LIST*
D10*
%TO.P,J1,3,Pin_3_3*%
%TO.N,/PI_GND*%
X38920000Y-16500000D03*
%TO.P,J1,2,Pin_2_2*%
%TO.N,/GPIO_IN1*%
X44000000Y-16500000D03*
%TO.P,J1,1,Pin_1_1*%
%TO.N,/GPIO_IN2*%
X49080000Y-16500000D03*
%TD*%
D11*
%TO.P,R15,1*%
%TO.N,/GPIO_IN1*%
X64920000Y-48500000D03*
%TO.P,R15,2*%
%TO.N,/PI_GND*%
X64920000Y-50500000D03*
%TD*%
D12*
%TO.P,U1,1,1_1*%
%TO.N,Net-(R11-Pad1)*%
X70190000Y-50925000D03*
%TO.P,U1,2,2_2*%
%TO.N,/PI_GND*%
X67650000Y-50925000D03*
%TO.P,U1,3,3_3*%
%TO.N,/+24V_FIELD*%
X67650000Y-57075000D03*
%TO.P,U1,4,4_4*%
%TO.N,/OUT1_SW*%
X70190000Y-57075000D03*
%TD*%
D11*
%TO.P,R16,1*%
%TO.N,/GPIO_IN2*%
X65000000Y-33500000D03*
%TO.P,R16,2*%
%TO.N,/PI_GND*%
X65000000Y-35500000D03*
%TD*%
D13*
%TO.P,R11,1*%
%TO.N,Net-(R11-Pad1)*%
X69920000Y-47500000D03*
%TO.P,R11,2*%
%TO.N,/GPIO_IN1*%
X67920000Y-47500000D03*
%TD*%
D14*
%TO.P,C2,1*%
%TO.N,/+24V_FIELD*%
X47500000Y-51462500D03*
%TO.P,C2,2*%
%TO.N,/FIELD_GND*%
X47500000Y-53537500D03*
%TD*%
D15*
%TO.P,C1,1*%
%TO.N,/+24V_FIELD*%
X41000000Y-51000000D03*
D16*
%TO.P,C1,2*%
%TO.N,/FIELD_GND*%
X41000000Y-54500000D03*
%TD*%
D13*
%TO.P,R12,1*%
%TO.N,Net-(R12-Pad1)*%
X70000000Y-32500000D03*
%TO.P,R12,2*%
%TO.N,/GPIO_IN2*%
X68000000Y-32500000D03*
%TD*%
D17*
%TO.P,J2,1,Pin_1_1*%
%TO.N,Net-(J2-Pin_1)*%
X51960000Y-63172500D03*
%TO.P,J2,2,Pin_2_2*%
%TO.N,/FIELD_GND*%
X57040000Y-63172500D03*
%TD*%
D18*
%TO.P,D11,1,K_1*%
%TO.N,/OUT1_SW*%
X74920000Y-57080000D03*
D17*
%TO.P,D11,2,A_2*%
%TO.N,/FIELD_GND*%
X74920000Y-46920000D03*
%TD*%
D19*
%TO.P,D1,1,A1_1*%
%TO.N,/+24V_FIELD*%
X33000000Y-52300000D03*
%TO.P,D1,2,A2_2*%
%TO.N,/FIELD_GND*%
X33000000Y-57700000D03*
%TD*%
D17*
%TO.P,J4,1,Pin_1_1*%
%TO.N,/OUT2_SW*%
X84000000Y-39500000D03*
%TO.P,J4,2,Pin_2_2*%
%TO.N,/FIELD_GND*%
X84000000Y-34420000D03*
%TD*%
D20*
%TO.P,F1,1*%
%TO.N,/+24V_FIELD*%
X22500000Y-65000000D03*
%TO.P,F1,2*%
%TO.N,Net-(J2-Pin_1)*%
X44500000Y-65000000D03*
%TD*%
D18*
%TO.P,D12,1,K_1*%
%TO.N,/OUT2_SW*%
X75000000Y-42080000D03*
D17*
%TO.P,D12,2,A_2*%
%TO.N,/FIELD_GND*%
X75000000Y-31920000D03*
%TD*%
%TO.P,J3,1,Pin_1_1*%
%TO.N,/OUT1_SW*%
X84000000Y-54540000D03*
%TO.P,J3,2,Pin_2_2*%
%TO.N,/FIELD_GND*%
X84000000Y-49460000D03*
%TD*%
D12*
%TO.P,U2,1,1_1*%
%TO.N,Net-(R12-Pad1)*%
X70270000Y-35925000D03*
%TO.P,U2,2,2_2*%
%TO.N,/PI_GND*%
X67730000Y-35925000D03*
%TO.P,U2,3,3_3*%
%TO.N,/+24V_FIELD*%
X67730000Y-42075000D03*
%TO.P,U2,4,4_4*%
%TO.N,/OUT2_SW*%
X70270000Y-42075000D03*
%TD*%
D21*
%TO.N,/PI_GND*%
X39000000Y-24500000D03*
X60000000Y-35500000D03*
X60000000Y-50000000D03*
D22*
%TO.N,/GPIO_IN1*%
X66000000Y-47500000D03*
%TO.N,/GPIO_IN2*%
X66500000Y-32500000D03*
D23*
%TO.N,/FIELD_GND*%
X47000000Y-56000000D03*
X38000000Y-58000000D03*
%TD*%
%TO.N,/PI_GND*%
D24*
X38920000Y-24420000D02*
X39000000Y-24500000D01*
X38920000Y-16500000D02*
X38920000Y-24420000D01*
X65000000Y-35500000D02*
X60000000Y-35500000D01*
X65425000Y-35925000D02*
X65000000Y-35500000D01*
X67650000Y-50925000D02*
X65345000Y-50925000D01*
X67730000Y-35925000D02*
X65425000Y-35925000D01*
X60500000Y-50500000D02*
X60000000Y-50000000D01*
X64920000Y-50500000D02*
X60500000Y-50500000D01*
X65345000Y-50925000D02*
X64920000Y-50500000D01*
%TO.N,/GPIO_IN1*%
D25*
X66500000Y-47500000D02*
X65920000Y-47500000D01*
X66500000Y-47500000D02*
X66000000Y-47500000D01*
X67920000Y-47500000D02*
X66500000Y-47500000D01*
X65920000Y-47500000D02*
X64920000Y-48500000D01*
%TO.N,Net-(R11-Pad1)*%
X70190000Y-50925000D02*
X70190000Y-47770000D01*
X70190000Y-47770000D02*
X69920000Y-47500000D01*
%TO.N,/+24V_FIELD*%
D26*
X65000000Y-56000000D02*
X66075000Y-57075000D01*
X55962500Y-51462500D02*
X60500000Y-56000000D01*
X22500000Y-65000000D02*
X22500000Y-62800000D01*
X41000000Y-51000000D02*
X47037500Y-51000000D01*
X60500000Y-56000000D02*
X65000000Y-56000000D01*
X22500000Y-62800000D02*
X33000000Y-52300000D01*
X54500000Y-42000000D02*
X56000000Y-42000000D01*
X34300000Y-51000000D02*
X41000000Y-51000000D01*
X56075000Y-42075000D02*
X67730000Y-42075000D01*
X56000000Y-42000000D02*
X56075000Y-42075000D01*
X66075000Y-57075000D02*
X67650000Y-57075000D01*
X54500000Y-51462500D02*
X55962500Y-51462500D01*
X47037500Y-51000000D02*
X47500000Y-51462500D01*
X54500000Y-51462500D02*
X54500000Y-42000000D01*
X47500000Y-51462500D02*
X54500000Y-51462500D01*
X33000000Y-52300000D02*
X34300000Y-51000000D01*
%TO.N,/OUT1_SW*%
D27*
X78340000Y-54580000D02*
X83920000Y-54580000D01*
X74920000Y-57080000D02*
X75840000Y-57080000D01*
X70190000Y-57075000D02*
X74915000Y-57075000D01*
X74915000Y-57075000D02*
X74920000Y-57080000D01*
X75840000Y-57080000D02*
X78340000Y-54580000D01*
%TO.N,/GPIO_IN2*%
D25*
X68000000Y-32500000D02*
X66500000Y-32500000D01*
X66500000Y-32500000D02*
X66000000Y-32500000D01*
X66000000Y-32500000D02*
X65000000Y-33500000D01*
%TO.N,/FIELD_GND*%
D26*
X33000000Y-57700000D02*
X37700000Y-57700000D01*
X37700000Y-57700000D02*
X38000000Y-58000000D01*
X77580000Y-34500000D02*
X75000000Y-31920000D01*
X77500000Y-49500000D02*
X74920000Y-46920000D01*
X47500000Y-55500000D02*
X47000000Y-56000000D01*
X47500000Y-53537500D02*
X47500000Y-55500000D01*
X84000000Y-34500000D02*
X77580000Y-34500000D01*
X83920000Y-49500000D02*
X77500000Y-49500000D01*
%TO.N,Net-(R12-Pad1)*%
D25*
X70270000Y-35925000D02*
X70270000Y-32770000D01*
X70270000Y-32770000D02*
X70000000Y-32500000D01*
%TO.N,Net-(J2-Pin_1)*%
D28*
X44500000Y-65000000D02*
X50127500Y-65000000D01*
X50127500Y-65000000D02*
X51955000Y-63172500D01*
%TO.N,/OUT2_SW*%
D27*
X74995000Y-42075000D02*
X75000000Y-42080000D01*
X70270000Y-42075000D02*
X74995000Y-42075000D01*
X75000000Y-42080000D02*
X81500000Y-42080000D01*
X81500000Y-42080000D02*
X84000000Y-39580000D01*
%TD*%
M02*
