#VRML V2.0 utf8
# 3D model generated by easyeda2kicad.py (https://github.com/uPesy/easyeda2kicad.py)

Shape{
    appearance Appearance {
        material  Material 	{
            diffuseColor 0.2235294117647059 0.2235294117647059 0.2235294117647059
            specularColor 0.11372549019607843 0.11372549019607843 0.11372549019607843
            ambientIntensity 0.2235
            transparency 0.0
            shininess 0.5
        }
    }
    geometry IndexedFaceSet {
        ccw TRUE
        solid FALSE
        coord DEF co Coordinate {
            point [
                -4.6981 1.8699 0.7422, -4.6981 1.8699 0.9519, -4.3777 1.8699 0.9519, -4.8701 1.8699 0.0, -4.8701 1.8699 0.4716, -4.6981 1.8699 0.4716, 5.2636 1.8699 3.2991, 5.2427 1.8699 3.2688, 5.1969 1.8699 3.3268, -3.9554 1.8699 0.5356, -3.9507 1.8699 0.5351, -3.9898 1.8699 0.5351, -3.9213 1.8699 0.5355, -3.9167 1.8699 0.5372, -3.9167 1.8699 0.5351, -3.3515 1.8699 0.9519, -3.3776 1.8699 0.9344, -3.6174 1.8699 0.9519, -3.4154 1.8699 0.8906, -3.5427 1.8699 0.7422, -3.6174 1.8699 0.7422, -3.5327 1.8699 0.7673, -3.5094 1.8699 0.7996, -3.4785 1.8699 0.8258, -3.4391 1.8699 0.8444, -3.4446 1.8699 0.8426, -3.114 1.8699 0.9664, -3.1665 1.8699 0.9866, -2.4016 1.8699 2.17, -3.3268 1.8699 0.9685, -3.6174 1.8699 2.17, -3.2697 1.8699 0.9886, -3.2228 1.8699 0.9936, -2.8283 1.8699 0.7422, -2.4016 1.8699 0.7874, 2.3228 1.8699 0.7874, -3.0907 1.8699 0.9519, -2.4016 1.8699 0.9519, -3.0861 1.8699 0.9492, -2.8334 1.8699 0.7706, -2.8515 1.8699 0.8116, -2.8789 1.8699 0.8467, -2.965 1.8699 0.8958, -3.0099 1.8699 0.9013, -3.0594 1.8699 0.9262, -3.023 1.8699 0.9006, -3.0361 1.8699 0.8991, -2.8866 1.8699 0.8539, -2.9228 1.8699 0.8794, -2.9087 1.8699 0.5625, -2.8732 1.8699 0.5928, 4.685 1.8699 0.5351, -2.8473 1.8699 0.6299, -2.9499 1.8699 0.5425, -2.9658 1.8699 0.5351, -2.9643 1.8699 0.5381, -2.8309 1.8699 0.6722, -2.8254 1.8699 0.7169, 4.685 1.8699 0.7422, -2.8257 1.8699 0.7278, -3.015 1.8699 0.476, -2.9927 1.8699 0.4928, -2.9758 1.8699 0.5136, -3.1001 1.8699 0.4641, -3.0725 1.8699 0.4607, -3.6174 1.8699 0.0, -3.0682 1.8699 0.4608, -3.0413 1.8699 0.465, -3.0254 1.8699 0.4716, 4.685 1.8699 0.4716, 4.685 1.8699 0.0, -3.1791 1.8699 0.5351, -3.179 1.8699 0.5344, -3.6174 1.8699 0.4716, -3.1655 1.8699 0.5091, -3.1482 1.8699 0.4897, -3.1255 1.8699 0.4739, -3.1196 1.8699 0.4716, -3.3246 1.8699 0.6022, -3.3324 1.8699 0.6053, -3.3457 1.8699 0.6702, -3.1579 1.8699 0.6509, -3.3104 1.8699 0.7306, -3.1379 1.8699 0.669, -3.1138 1.8699 0.6819, -3.3176 1.8699 0.5973, -3.5323 1.8699 0.6186, -3.5097 1.8699 0.5871, -3.6174 1.8699 0.5351, -3.4807 1.8699 0.7043, -3.4753 1.8699 0.7261, -3.4666 1.8699 0.7422, -2.9 1.8699 0.7422, -3.5466 1.8699 0.7325, -3.5518 1.8699 0.6953, -3.5466 1.8699 0.6547, -3.3412 1.8699 0.6064, -3.3423 1.8699 0.6064, -3.3457 1.8699 0.6056, -2.9067 1.8699 0.6736, -2.9202 1.8699 0.6507, -2.978 1.8699 0.6388, -2.9406 1.8699 0.6297, -2.9655 1.8699 0.6144, -3.0201 1.8699 0.6766, -2.9968 1.8699 0.6604, -2.8971 1.8699 0.7192, -2.8985 1.8699 0.7015, -3.0452 1.8699 0.6862, -3.0725 1.8699 0.6896, -3.0863 1.8699 0.6887, -3.4787 1.8699 0.5609, -3.444 1.8699 0.5439, -3.4061 1.8699 0.5359, -3.3059 1.8699 0.5712, -3.3062 1.8699 0.5756, -3.1863 1.8699 0.586, -3.3085 1.8699 0.5843, -3.3128 1.8699 0.5921, -3.4581 1.8699 0.6339, -3.4706 1.8699 0.6516, -3.4785 1.8699 0.6719, -3.4812 1.8699 0.6941, -3.3389 1.8699 0.5359, -3.3325 1.8699 0.5369, -3.325 1.8699 0.5399, -3.3176 1.8699 0.5451, -3.3149 1.8699 0.5478, -3.31 1.8699 0.5549, -3.307 1.8699 0.5627, -3.1857 1.8699 0.5625, -3.1863 1.8699 0.5746, -3.348 1.8699 0.6053, -3.3993 1.8699 0.6053, -3.4198 1.8699 0.6093, -3.4399 1.8699 0.6186, -3.4567 1.8699 0.6324, -3.3587 1.8699 0.8515, -3.333 1.8699 0.8821, -3.0713 1.8699 0.8159, -3.3303 1.8699 0.8846, -3.2983 1.8699 0.9068, -3.0888 1.8699 0.852, -3.0634 1.8699 0.8203, -3.0379 1.8699 0.8297, -3.4646 1.8699 0.7457, -3.4516 1.8699 0.7602, -3.3924 1.8699 0.7829, -3.434 1.8699 0.7726, -3.4141 1.8699 0.7802, -3.3833 1.8699 0.7829, -3.3763 1.8699 0.8148, -2.9709 1.8699 0.8257, -2.9455 1.8699 0.8122, -2.999 1.8699 0.8324, -2.9261 1.8699 0.7948, -2.9103 1.8699 0.7722, -3.1143 1.8699 0.8825, -3.2626 1.8699 0.9205, -3.1448 1.8699 0.9048, -3.2239 1.8699 0.9252, -3.182 1.8699 0.9198, -3.011 1.8699 0.833, -2.9006 1.8699 0.7468, -4.209 1.8699 0.6781, -4.2044 1.8699 0.6269, -4.2277 1.8699 0.7422, -4.1771 1.8699 0.6269, -4.1771 1.8699 0.5547, -4.2126 1.8699 0.5547, -4.2044 1.8699 0.6085, -4.2277 1.8699 0.5351, -4.2126 1.8699 0.5364, -4.1771 1.8699 0.5351, -4.1771 1.8699 0.6085, -4.1471 1.8699 0.6085, -4.1471 1.8699 0.5547, -4.1771 1.8699 0.6781, -4.1471 1.8699 0.6781, -4.1471 1.8699 0.6269, -4.1771 1.8699 0.5364, -4.1265 1.8699 0.5364, -4.0592 1.8699 0.5351, -4.1049 1.8699 0.6508, -4.0474 1.8699 0.5648, -4.0498 1.8699 0.5554, -4.0504 1.8699 0.5554, -4.0272 1.8699 0.7422, -4.1265 1.8699 0.6965, -4.1771 1.8699 0.7422, -4.1771 1.8699 0.6965, -4.209 1.8699 0.6965, -4.0513 1.8699 0.5593, -4.0528 1.8699 0.5647, -4.0272 1.8699 0.6229, -4.0841 1.8699 0.6508, -3.887 1.8699 0.5351, -3.9074 1.8699 0.5404, -3.9074 1.8699 0.5611, -3.9075 1.8699 0.6199, -3.9083 1.8699 0.6271, -3.887 1.8699 0.7422, -3.9106 1.8699 0.606, -3.9084 1.8699 0.6121, -3.9152 1.8699 0.5563, -3.9167 1.8699 0.5557, -3.9167 1.8699 0.5983, -3.9132 1.8699 0.6018, -3.9165 1.8699 0.5984, -3.9167 1.8699 0.4716, -3.9384 1.8699 0.5337, -3.9256 1.8699 0.5351, -3.9898 1.8699 0.4716, -3.9791 1.8699 0.6483, -3.9791 1.8699 0.6288, -3.9204 1.8699 0.6443, -3.9255 1.8699 0.6474, -3.9167 1.8699 0.7422, -3.9107 1.8699 0.6335, -3.9144 1.8699 0.639, -3.9167 1.8699 0.641, -3.9837 1.8699 0.5595, -3.9812 1.8699 0.5531, -3.9775 1.8699 0.5478, -3.9363 1.8699 0.6516, -3.952 1.8699 0.6534, -3.9898 1.8699 0.7422, -3.9644 1.8699 0.6525, -3.9779 1.8699 0.5864, -3.9817 1.8699 0.5809, -3.9838 1.8699 0.575, -3.9846 1.8699 0.5675, -3.9717 1.8699 0.5428, -3.9662 1.8699 0.5395, -3.9501 1.8699 0.6371, -3.9441 1.8699 0.6367, -3.9282 1.8699 0.6217, -3.9388 1.8699 0.6352, -3.9343 1.8699 0.6329, -3.9284 1.8699 0.6191, -3.9292 1.8699 0.6159, -3.9306 1.8699 0.6132, -3.9326 1.8699 0.6111, -3.9396 1.8699 0.6067, -3.9645 1.8699 0.6353, -3.952 1.8699 0.6013, -3.9758 1.8699 0.6308, -3.9598 1.8699 0.5981, -3.9731 1.8699 0.5907, -3.9313 1.8699 0.6302, -3.9295 1.8699 0.6276, -3.9285 1.8699 0.6249, -3.9278 1.8699 0.5516, -3.9379 1.8699 0.5867, -3.9259 1.8699 0.5922, -3.9404 1.8699 0.5501, -3.9413 1.8699 0.5501, -3.9511 1.8699 0.5812, -3.9515 1.8699 0.5512, -3.964 1.8699 0.5656, -3.9638 1.8699 0.5681, -3.9567 1.8699 0.5531, -3.9586 1.8699 0.5542, -3.9609 1.8699 0.5563, -3.9626 1.8699 0.5589, -3.9636 1.8699 0.5617, -3.9629 1.8699 0.5712, -3.9614 1.8699 0.5738, -3.9589 1.8699 0.5764, -4.2865 1.8699 0.8343, -4.2277 1.8699 0.8343, -4.3028 1.8699 0.7905, -4.3257 1.8699 0.7905, -4.3777 1.8699 0.7422, -4.2647 1.8699 0.9506, -4.1816 1.8699 0.7905, -4.2044 1.8699 0.7905, -4.2198 1.8699 0.8343, -4.0084 1.8699 0.9322, -4.0272 1.8699 0.9519, -4.0084 1.8699 0.9506, -3.9898 1.8699 0.9519, -3.9898 1.8699 0.9506, -4.0039 1.8699 0.8809, -4.0039 1.8699 0.8626, -4.0121 1.8699 0.8087, -3.9898 1.8699 0.8087, -3.9898 1.8699 0.8626, -3.9466 1.8699 0.8626, -3.9466 1.8699 0.8087, -3.9898 1.8699 0.9322, -3.9898 1.8699 0.8809, -3.9466 1.8699 0.9322, -3.9466 1.8699 0.8809, -3.9259 1.8699 0.9506, -3.9167 1.8699 0.9519, -3.9259 1.8699 0.7905, -3.9898 1.8699 0.7905, -4.0121 1.8699 0.7905, 2.3228 1.8699 2.17, 4.685 1.8699 2.17, 2.3228 1.8699 0.9519, 4.685 1.8699 0.9519, 5.0481 1.8699 3.1601, 4.9347 1.8699 3.1324, 2.3228 1.8699 3.2786, 3.7598 1.8699 3.2979, 4.685 1.8699 3.1102, 4.816 1.8699 3.1161, 5.2726 1.8699 3.3227, 5.1969 1.8699 3.3465, 5.2756 1.8699 3.3465, 5.2016 1.8699 3.232, 5.1377 1.8699 3.1947, -2.4016 1.8699 3.2831, -3.6174 1.8699 3.3011, -3.6358 1.8699 3.3014, -3.7715 1.8699 3.3042, -3.887 1.8699 0.7944, -3.8911 1.8699 0.7957, -3.8939 1.8699 0.7971, -3.8939 1.8699 0.8169, -3.8939 1.8699 0.9251, -3.8903 1.8699 0.927, -3.887 1.8699 0.8138, -3.887 1.8699 0.9281, -3.8738 1.8699 0.9327, -3.8615 1.8699 0.8066, -3.8793 1.8699 0.8102, -3.7957 1.8699 0.8671, -3.7957 1.8699 0.8687, -3.8561 1.8699 0.9346, -3.8504 1.8699 0.9344, -3.8364 1.8699 0.9318, -3.8097 1.8699 0.9137, -3.8024 1.8699 0.9021, -3.7976 1.8699 0.8875, -3.7982 1.8699 0.8475, -3.8033 1.8699 0.8344, -3.8114 1.8699 0.823, -3.8253 1.8699 0.8124, -3.8368 1.8699 0.808, -3.8525 1.8699 0.8062, -3.8238 1.8699 0.9261, -3.8125 1.8699 0.9169, -3.8148 1.8699 0.8197, -3.8721 1.8699 0.9519, -3.8788 1.8699 0.9513, -3.887 1.8699 0.9519, -3.887 1.8699 0.9488, -3.8939 1.8699 0.9467, -3.8162 1.8699 0.9441, -3.833 1.8699 0.9505, -3.7811 1.8699 0.9519, -3.8447 1.8699 0.9519, -3.7811 1.8699 2.17, -3.8559 1.8699 0.9533, -3.887 1.8699 2.17, -3.8583 1.8699 0.9533, -3.7785 1.8699 0.8989, -3.7811 1.8699 0.9045, -3.7866 1.8699 0.9163, -3.7971 1.8699 0.9297, -3.8007 1.8699 0.9332, -3.7745 1.8699 0.8784, -3.7715 1.8699 0.9519, -3.774 1.8699 0.8675, -3.7715 1.8699 0.7422, -3.7771 1.8699 0.8417, -3.7811 1.8699 0.8311, -3.8217 1.8699 0.7921, -3.8067 1.8699 0.7994, -3.7811 1.8699 0.7422, -3.7945 1.8699 0.8096, -3.793 1.8699 0.8112, -3.7835 1.8699 0.825, -3.8739 1.8699 0.7901, -3.8495 1.8699 0.7878, -3.8389 1.8699 0.7883, -3.7959 1.8699 0.5904, -3.7995 1.8699 0.6233, -3.7917 1.8699 0.5839, -3.7893 1.8699 0.5766, -3.8502 1.8699 0.5425, -3.843 1.8699 0.5378, -3.8601 1.8699 0.5364, -3.8355 1.8699 0.5351, -3.8802 1.8699 0.5364, -3.8438 1.8699 0.6364, -3.837 1.8699 0.6371, -3.8262 1.8699 0.6044, -3.8019 1.8699 0.5958, -3.8101 1.8699 0.6002, -3.8129 1.8699 0.6318, -3.8255 1.8699 0.636, -3.8783 1.8699 0.6265, -3.8802 1.8699 0.61, -3.8601 1.8699 0.5541, -3.8596 1.8699 0.5541, -3.8565 1.8699 0.5493, -3.8049 1.8699 0.538, -3.7981 1.8699 0.5427, -3.7811 1.8699 0.5351, -3.7959 1.8699 0.545, -3.7917 1.8699 0.5512, -3.8601 1.8699 0.6091, -3.8594 1.8699 0.618, -3.8574 1.8699 0.6251, -3.855 1.8699 0.6293, -3.7893 1.8699 0.5579, -3.7883 1.8699 0.567, -3.7995 1.8699 0.6428, -3.8518 1.8699 0.6521, -3.86 1.8699 0.6495, -3.8666 1.8699 0.6456, -3.8709 1.8699 0.6415, -3.8751 1.8699 0.6352, -3.852 1.8699 0.6325, -3.8484 1.8699 0.6348, -3.8057 1.8699 0.6462, -3.821 1.8699 0.6515, -3.8389 1.8699 0.6534, -3.8349 1.8699 0.5349, -3.887 1.8699 0.4716, -3.7811 1.8699 0.4716, -3.8246 1.8699 0.5337, -3.8129 1.8699 0.5351, -3.8126 1.8699 0.5351, -4.0272 1.8699 0.5691, -3.9951 1.8699 0.6508, -4.0175 1.8699 0.6508, -4.0393 1.8699 0.5351, -4.0399 1.8699 0.5367, -4.0272 1.8699 0.5086, -4.0272 1.8699 0.5087, -4.0272 1.8699 0.5351, -4.0311 1.8699 0.5159, -3.9992 1.8699 0.502, -3.9992 1.8699 0.4842, -4.0033 1.8699 0.5007, -4.0106 1.8699 0.4997, -4.0154 1.8699 0.5003, -4.0272 1.8699 0.4861, -4.0202 1.8699 0.4835, -4.0272 1.8699 0.4716, -4.0121 1.8699 0.4825, -4.0077 1.8699 0.4827, -4.0198 1.8699 0.5019, -4.0235 1.8699 0.5045, -4.0529 1.8699 0.5191, -4.0439 1.8699 0.5015, -4.1771 1.8699 0.4716, -4.0365 1.8699 0.4926, -4.0352 1.8699 0.4914, -4.0282 1.8699 0.4865, -4.8701 1.8699 0.9519, -4.8701 1.8699 0.7422, -4.8701 1.8699 0.5351, -4.6981 1.8699 0.5351, -4.405 1.8699 0.5364, -4.3821 1.8699 0.5364, -4.3777 1.8699 0.5351, -4.5034 1.8699 0.5364, -4.487 1.8699 0.5802, -4.4203 1.8699 0.5802, -4.4431 1.8699 0.6965, -4.4652 1.8699 0.6965, -4.5262 1.8699 0.5364, -4.2277 1.8699 0.9519, -4.2426 1.8699 0.9506, -4.2277 1.8699 0.9116, -4.3158 1.8699 0.6931, -4.3347 1.8699 0.6855, -4.3683 1.8699 0.5879, -4.36 1.8699 0.5716, -4.3491 1.8699 0.5588, -4.3321 1.8699 0.5467, -4.3138 1.8699 0.5396, -4.2869 1.8699 0.5364, -4.2428 1.8699 0.5364, -4.2428 1.8699 0.6965, -4.2885 1.8699 0.6965, -4.2916 1.8699 0.6965, -4.3491 1.8699 0.6753, -4.3566 1.8699 0.6677, -4.366 1.8699 0.6531, -4.3714 1.8699 0.6372, -4.3732 1.8699 0.6185, -4.3725 1.8699 0.6064, -4.2277 1.8699 0.4716, -4.3777 1.8699 0.4716, -4.0423 1.8699 0.7905, -4.172 1.8699 0.8604, -4.1678 1.8699 0.842, -4.1595 1.8699 0.8256, -4.1485 1.8699 0.8129, -4.1316 1.8699 0.8008, -4.1133 1.8699 0.7937, -4.0864 1.8699 0.7905, -4.0423 1.8699 0.9506, -4.088 1.8699 0.9506, -4.1771 1.8699 0.9519, -4.0911 1.8699 0.9506, -4.1152 1.8699 0.9472, -4.1342 1.8699 0.9395, -4.1485 1.8699 0.9294, -4.156 1.8699 0.9218, -4.1655 1.8699 0.9072, -4.1708 1.8699 0.8913, -4.1727 1.8699 0.8726, -3.9167 1.8699 2.17, -3.9898 1.8699 2.17, -4.0272 1.8699 2.17, -4.1771 1.8699 2.17, -4.2277 1.8699 2.17, -4.3777 1.8699 2.17, -4.6981 1.8699 2.17, -4.8701 1.8699 2.17, -4.6981 1.8699 0.0, -4.3777 1.8699 0.0, -4.2277 1.8699 0.0, -4.1771 1.8699 0.0, -4.0272 1.8699 0.0, -3.9898 1.8699 0.0, -3.9167 1.8699 0.0, -3.887 1.8699 0.0, -3.7811 1.8699 0.0, -3.7715 1.8699 0.4716, -3.7715 1.8699 0.0, -3.7715 1.8699 0.5351, -3.7715 1.8699 2.17, -3.683 1.8699 0.5364, -3.683 1.8699 0.6965, -3.7655 1.8699 0.6965, -3.7655 1.8699 0.6781, -3.7036 1.8699 0.6085, -3.7036 1.8699 0.5547, -3.7609 1.8699 0.6085, -3.7691 1.8699 0.5547, -3.7609 1.8699 0.6269, -3.7036 1.8699 0.6781, -3.7036 1.8699 0.6269, -3.7691 1.8699 0.5364, -3.683 1.8699 0.9506, -3.683 1.8699 0.7905, -3.7674 1.8699 0.7905, -3.7674 1.8699 0.8087, -3.7036 1.8699 0.8087, -3.7036 1.8699 0.9506, -3.7811 1.8699 3.3044, -3.887 1.8699 3.3065, -3.9167 1.8699 3.3071, -3.9898 1.8699 3.3087, -4.0272 1.8699 3.3094, -4.1771 1.8699 3.3125, -4.2277 1.8699 3.3135, -4.3777 1.8699 3.3166, -4.6981 1.8699 3.3232, -4.8701 1.8699 3.3268, 2.3228 1.24 3.2786, 2.3228 1.24 0.7874, 2.3228 -1.2404 0.7874, 2.3228 -1.8703 0.7874, 2.3228 -1.2404 3.2786, 2.3228 -1.8703 3.2786, -2.4016 1.24 0.7874, -2.4016 1.24 3.2831, -2.4016 -1.8703 0.7874, -2.4016 -1.2404 0.7874, -2.4016 -1.8703 3.2831, -2.4016 -1.2404 3.2831, -4.8701 1.24 2.7559, -4.8701 1.1612 2.7559, -4.8701 1.1612 3.3268, -4.8701 1.24 0.0, -4.8701 -1.8703 0.0, 4.685 -1.8703 0.0, 3.7598 -1.8703 3.2979, 5.2756 -1.8703 3.3465, 5.1969 -1.8703 3.3465, 5.2724 -1.8703 3.3219, 5.1969 -1.8703 3.3268, 5.2629 -1.8703 3.2976, -3.6358 -1.8703 3.3014, -4.8701 -1.8703 3.3268, 4.8276 -1.8703 3.1172, 4.685 -1.8703 3.1102, 4.9511 -1.8703 3.1356, 5.0545 -1.8703 3.1622, 5.1381 -1.8703 3.1949, 5.1977 -1.8703 3.2292, 5.2432 -1.8703 3.2693, -4.8701 -1.2404 0.0, -4.8701 -1.2404 2.7559, -4.8701 -1.1616 2.7559, -4.8701 -1.1616 3.3268, -3.9764 -1.2404 3.3077, -3.9764 -1.2404 0.7874, -3.9764 1.24 3.3077, -3.9764 1.24 0.7874, -3.6358 -1.2404 3.3014, -3.6358 1.24 3.3014, 3.7598 1.24 3.2979, 3.8976 1.24 0.7874, 3.8976 1.24 3.3002, 3.8976 -1.2404 0.7874, 3.7598 -1.2404 3.2979, 3.8976 -1.2404 3.3002, -5.3543 1.8699 4.1339, -5.3543 -1.8703 4.1339, 4.685 1.8699 4.1339, 4.685 -1.8703 4.1339, 4.5276 0.2754 0.0, -4.3976 -1.2404 0.0, 4.5276 -0.2758 0.0, 4.6654 -0.2758 0.0, 4.6654 0.2754 0.0, -4.2362 0.2754 0.0, -4.2362 -0.2758 0.0, -4.374 -0.2758 0.0, -4.374 0.2754 0.0, -4.3976 1.24 0.0, -5.3543 1.8699 3.3465, 4.685 1.8699 3.5827, 5.2432 1.8699 3.4237, 5.2629 1.8699 3.3953, 5.2724 1.8699 3.3711, 4.8276 1.8699 3.5757, 4.9511 1.8699 3.5574, 5.0545 1.8699 3.5308, 5.1381 1.8699 3.498, 5.1977 1.8699 3.4637, 4.685 -1.8703 3.5827, 5.2427 -1.8703 3.4242, 5.2016 -1.8703 3.461, -5.3543 -1.8703 3.3465, 4.816 -1.8703 3.5768, 4.9347 -1.8703 3.5606, 5.2726 -1.8703 3.3702, 5.2636 -1.8703 3.3938, 5.1377 -1.8703 3.4982, 5.0481 -1.8703 3.5328, -5.3543 1.1612 3.3465, -5.3543 -1.1616 3.3465, -5.3543 -1.1616 1.7422, -5.3543 1.1612 1.7422, -4.8701 -1.1616 3.3465, -4.8701 1.1612 3.3465, -4.8701 1.1612 1.7422, -4.8701 -1.1616 1.7422, -4.3976 1.24 2.7559, -4.3976 -1.2404 2.7559, 5.2752 1.8699 3.3493, 5.1021 1.8699 3.5121, 5.102 -1.8703 3.512, 5.1911 1.8699 3.4675, 5.1909 -1.8703 3.4672, 5.2413 1.8699 3.4253, 5.2414 -1.8703 3.4254, 5.2619 1.8699 3.3968, 5.2617 -1.8703 3.3966, 5.272 1.8699 3.3721, 5.2719 -1.8703 3.372, 5.2752 -1.8703 3.3493, 4.9267 1.8699 3.561, 4.9268 -1.8703 3.5616, 5.2752 -1.8703 3.3436, 5.1021 -1.8703 3.1808, 5.102 1.8699 3.1809, 5.1911 -1.8703 3.2254, 5.1909 1.8699 3.2257, 5.2413 -1.8703 3.2676, 5.2414 1.8699 3.2675, 5.2619 -1.8703 3.2962, 5.2617 1.8699 3.2963, 5.272 -1.8703 3.3209, 5.2719 1.8699 3.3209, 5.2752 1.8699 3.3436, 4.9268 1.8699 3.1313, 4.9267 -1.8703 3.1319
            ]
        }
        coordIndex [
            0,1,2,-1,3,4,5,-1,6,7,8,-1,9,10,11,-1,12,13,14,-1,15,16,17,-1,17,16,18,-1,19,20,21,-1,21,20,17,-1,21,17,22,-1,22,17,23,-1,18,24,17,-1,17,24,25,-1,17,25,23,-1,26,27,28,-1,15,17,29,-1,29,17,30,-1,29,30,31,-1,28,27,30,-1,30,27,32,-1,30,32,31,-1,33,34,35,-1,26,28,36,-1,36,28,37,-1,36,37,38,-1,34,33,37,-1,33,39,37,-1,37,39,40,-1,37,40,41,-1,37,42,38,-1,38,42,43,-1,38,43,44,-1,44,43,45,-1,44,45,46,-1,41,47,37,-1,37,47,48,-1,37,48,42,-1,49,50,51,-1,51,50,52,-1,49,51,53,-1,53,51,54,-1,53,54,55,-1,52,56,51,-1,51,56,57,-1,51,57,58,-1,58,57,59,-1,60,61,51,-1,51,61,62,-1,51,62,54,-1,63,64,65,-1,65,64,66,-1,65,66,67,-1,60,51,68,-1,68,51,69,-1,68,69,67,-1,67,69,70,-1,67,70,65,-1,71,72,73,-1,73,72,74,-1,74,75,73,-1,73,75,76,-1,73,76,77,-1,78,79,80,-1,81,82,83,-1,83,82,84,-1,78,80,85,-1,86,87,88,-1,89,90,82,-1,82,90,91,-1,82,91,92,-1,19,93,20,-1,20,93,94,-1,20,94,88,-1,88,94,95,-1,88,95,86,-1,79,96,80,-1,80,96,97,-1,80,97,98,-1,99,100,101,-1,101,100,102,-1,101,102,103,-1,104,92,105,-1,105,92,106,-1,105,106,101,-1,101,106,107,-1,101,107,99,-1,104,108,92,-1,92,108,109,-1,92,109,82,-1,82,109,110,-1,82,110,84,-1,87,111,88,-1,88,111,112,-1,88,112,113,-1,114,115,116,-1,116,115,117,-1,116,117,80,-1,80,117,118,-1,80,118,85,-1,119,120,80,-1,80,120,121,-1,80,121,82,-1,82,121,122,-1,82,122,89,-1,123,124,71,-1,124,125,71,-1,71,125,126,-1,71,126,127,-1,127,128,71,-1,71,128,129,-1,71,129,130,-1,130,129,114,-1,130,114,131,-1,131,114,116,-1,98,132,80,-1,80,132,133,-1,80,133,134,-1,134,135,80,-1,80,135,136,-1,80,136,119,-1,137,138,139,-1,138,140,139,-1,139,140,141,-1,139,141,142,-1,91,139,92,-1,92,139,143,-1,92,143,144,-1,145,146,147,-1,147,146,148,-1,147,148,149,-1,145,147,91,-1,91,147,150,-1,91,150,139,-1,139,150,151,-1,139,151,137,-1,152,153,154,-1,154,153,155,-1,154,155,156,-1,142,141,157,-1,157,141,158,-1,157,158,159,-1,159,158,160,-1,159,160,161,-1,144,162,92,-1,92,162,154,-1,92,154,163,-1,163,154,156,-1,164,165,166,-1,165,164,167,-1,168,169,170,-1,165,170,166,-1,166,170,169,-1,166,169,171,-1,171,169,172,-1,171,172,173,-1,170,174,168,-1,168,174,175,-1,168,175,176,-1,164,177,167,-1,167,177,178,-1,167,178,179,-1,172,180,173,-1,173,180,181,-1,173,181,182,-1,182,181,183,-1,184,185,186,-1,187,188,189,-1,189,188,190,-1,189,190,166,-1,166,190,191,-1,166,191,164,-1,186,192,184,-1,184,192,193,-1,184,193,194,-1,194,193,195,-1,194,195,187,-1,187,195,183,-1,187,183,188,-1,188,183,181,-1,14,13,196,-1,196,13,197,-1,196,197,198,-1,199,200,201,-1,202,203,198,-1,204,205,206,-1,202,198,207,-1,204,206,198,-1,198,206,208,-1,198,208,207,-1,209,210,211,-1,210,209,10,-1,10,209,212,-1,10,212,11,-1,213,214,11,-1,215,216,217,-1,200,218,201,-1,201,218,219,-1,201,219,217,-1,217,219,220,-1,217,220,215,-1,221,222,11,-1,11,222,223,-1,216,224,217,-1,217,224,225,-1,217,225,226,-1,226,225,227,-1,226,227,213,-1,228,229,214,-1,214,229,230,-1,214,230,11,-1,11,230,231,-1,11,231,221,-1,223,232,11,-1,11,232,233,-1,11,233,9,-1,234,235,236,-1,236,235,237,-1,236,237,238,-1,236,239,234,-1,234,239,240,-1,234,240,241,-1,241,242,234,-1,234,242,243,-1,234,243,244,-1,244,243,245,-1,244,245,246,-1,246,245,247,-1,246,247,214,-1,214,247,248,-1,214,248,228,-1,249,250,238,-1,238,250,251,-1,238,251,236,-1,252,253,205,-1,205,253,254,-1,205,254,206,-1,252,255,253,-1,253,255,256,-1,253,256,257,-1,257,256,258,-1,257,259,260,-1,258,261,257,-1,257,261,262,-1,257,262,263,-1,263,264,257,-1,257,264,265,-1,257,265,259,-1,260,266,257,-1,257,266,267,-1,257,267,268,-1,269,270,271,-1,271,270,166,-1,271,166,272,-1,272,166,273,-1,272,273,274,-1,275,189,276,-1,276,189,166,-1,276,166,277,-1,277,166,270,-1,278,279,280,-1,280,279,281,-1,280,281,282,-1,283,284,285,-1,285,284,286,-1,284,287,286,-1,286,287,288,-1,286,288,289,-1,278,290,291,-1,291,290,292,-1,291,292,293,-1,282,281,294,-1,294,281,295,-1,294,295,296,-1,296,217,297,-1,297,217,226,-1,297,226,298,-1,298,226,187,-1,298,187,285,-1,299,300,301,-1,301,300,302,-1,301,302,35,-1,35,302,58,-1,35,58,33,-1,33,58,59,-1,303,304,8,-1,299,305,300,-1,300,305,306,-1,300,306,307,-1,307,306,8,-1,307,8,308,-1,308,8,304,-1,6,8,309,-1,309,8,310,-1,309,310,311,-1,7,312,8,-1,8,312,313,-1,8,313,303,-1,314,28,315,-1,315,28,30,-1,315,30,316,-1,316,30,317,-1,318,201,319,-1,319,201,217,-1,319,217,320,-1,320,217,321,-1,296,295,217,-1,217,295,322,-1,217,322,321,-1,321,322,323,-1,321,323,324,-1,324,323,325,-1,324,325,326,-1,327,328,329,-1,329,328,324,-1,329,324,330,-1,326,331,324,-1,324,331,332,-1,324,332,333,-1,334,335,324,-1,324,335,336,-1,324,336,330,-1,337,338,339,-1,340,341,329,-1,329,341,342,-1,329,342,327,-1,333,343,324,-1,324,343,344,-1,324,344,334,-1,337,339,329,-1,329,339,345,-1,329,345,340,-1,346,347,348,-1,348,347,349,-1,348,349,295,-1,295,349,350,-1,295,350,322,-1,351,352,353,-1,353,352,354,-1,353,354,355,-1,355,354,356,-1,355,356,357,-1,357,356,358,-1,357,358,346,-1,359,360,353,-1,353,360,361,-1,361,362,353,-1,353,362,363,-1,353,363,351,-1,364,365,366,-1,366,365,367,-1,366,367,368,-1,368,367,369,-1,370,371,372,-1,371,373,372,-1,372,373,374,-1,372,374,375,-1,318,376,201,-1,201,376,377,-1,201,377,372,-1,372,377,378,-1,372,378,370,-1,379,380,381,-1,381,380,382,-1,383,384,385,-1,384,386,385,-1,385,386,196,-1,385,196,387,-1,388,389,390,-1,379,391,380,-1,380,391,392,-1,380,392,393,-1,393,392,390,-1,393,390,394,-1,394,390,389,-1,201,395,396,-1,397,398,385,-1,385,398,399,-1,385,399,383,-1,203,199,198,-1,198,199,201,-1,198,201,196,-1,196,201,396,-1,196,396,387,-1,400,401,402,-1,402,401,403,-1,402,403,404,-1,405,406,390,-1,390,406,407,-1,390,407,408,-1,404,409,402,-1,402,409,410,-1,402,410,372,-1,372,410,382,-1,372,382,411,-1,411,382,380,-1,412,413,201,-1,201,413,414,-1,414,415,201,-1,201,415,416,-1,201,416,395,-1,408,417,390,-1,390,417,418,-1,390,418,388,-1,411,419,372,-1,372,419,420,-1,372,420,201,-1,201,420,421,-1,201,421,412,-1,386,422,423,-1,423,422,424,-1,422,425,424,-1,424,425,426,-1,424,426,402,-1,402,426,427,-1,402,427,400,-1,428,429,11,-1,213,11,226,-1,226,11,429,-1,226,429,187,-1,187,429,430,-1,187,430,194,-1,431,432,428,-1,433,434,435,-1,435,434,436,-1,435,436,431,-1,431,428,435,-1,435,428,11,-1,435,11,437,-1,437,11,212,-1,437,212,438,-1,437,439,435,-1,435,439,440,-1,435,440,441,-1,442,443,444,-1,444,443,445,-1,444,445,212,-1,212,445,446,-1,212,446,438,-1,441,447,435,-1,435,447,448,-1,435,448,433,-1,449,450,451,-1,449,451,182,-1,450,452,451,-1,451,452,453,-1,451,453,444,-1,444,453,454,-1,444,454,442,-1,455,1,456,-1,456,1,0,-1,456,0,457,-1,457,0,458,-1,459,460,461,-1,462,463,464,-1,461,460,273,-1,273,460,465,-1,273,465,466,-1,464,459,462,-1,462,459,461,-1,462,461,467,-1,467,461,458,-1,467,458,466,-1,466,458,0,-1,466,0,273,-1,273,0,2,-1,273,2,274,-1,274,2,468,-1,274,468,469,-1,469,468,470,-1,273,471,472,-1,473,474,461,-1,461,474,475,-1,461,475,476,-1,476,477,461,-1,461,477,478,-1,461,478,171,-1,171,478,479,-1,171,479,166,-1,479,480,166,-1,166,480,481,-1,166,481,273,-1,273,481,482,-1,273,482,471,-1,472,483,273,-1,273,483,484,-1,273,484,485,-1,485,486,273,-1,273,486,487,-1,273,487,461,-1,461,487,488,-1,461,488,473,-1,182,451,173,-1,173,451,489,-1,173,489,171,-1,171,489,490,-1,171,490,461,-1,461,490,5,-1,461,5,458,-1,458,5,4,-1,458,4,457,-1,291,283,278,-1,278,283,285,-1,278,285,279,-1,279,285,187,-1,279,187,491,-1,492,493,189,-1,189,493,494,-1,189,494,495,-1,495,496,189,-1,189,496,497,-1,189,497,187,-1,187,497,498,-1,187,498,491,-1,491,499,279,-1,279,499,500,-1,279,500,501,-1,501,500,502,-1,501,502,503,-1,503,504,501,-1,501,504,505,-1,501,505,506,-1,506,507,501,-1,501,507,508,-1,501,508,509,-1,470,468,275,-1,275,468,501,-1,275,501,189,-1,189,501,509,-1,189,509,492,-1,386,423,196,-1,196,423,209,-1,196,209,14,-1,14,209,211,-1,14,211,12,-1,346,348,357,-1,357,348,295,-1,357,295,510,-1,510,295,281,-1,510,281,511,-1,511,281,279,-1,511,279,512,-1,512,279,501,-1,512,501,513,-1,513,501,468,-1,513,468,514,-1,514,468,2,-1,514,2,515,-1,515,2,1,-1,515,1,516,-1,516,1,455,-1,516,455,517,-1,3,5,518,-1,518,5,490,-1,518,490,519,-1,519,490,489,-1,519,489,520,-1,520,489,451,-1,520,451,521,-1,521,451,444,-1,521,444,522,-1,522,444,212,-1,522,212,523,-1,523,212,209,-1,523,209,524,-1,524,209,423,-1,524,423,525,-1,525,423,424,-1,525,424,526,-1,527,528,526,-1,375,369,372,-1,372,369,367,-1,372,367,402,-1,402,367,529,-1,402,529,424,-1,355,530,353,-1,353,530,365,-1,353,365,359,-1,359,365,364,-1,528,73,65,-1,65,73,77,-1,65,77,63,-1,528,527,73,-1,73,527,88,-1,73,88,71,-1,71,88,113,-1,71,113,123,-1,526,424,527,-1,527,424,529,-1,527,529,88,-1,88,529,531,-1,88,531,20,-1,20,531,532,-1,20,532,367,-1,367,532,533,-1,367,533,534,-1,535,536,537,-1,537,536,538,-1,537,538,539,-1,540,541,534,-1,534,541,539,-1,534,539,367,-1,367,539,538,-1,367,538,529,-1,529,538,542,-1,529,542,531,-1,543,17,544,-1,544,17,20,-1,544,20,545,-1,545,20,367,-1,545,367,546,-1,546,367,365,-1,546,365,547,-1,547,365,548,-1,543,548,17,-1,17,548,365,-1,17,365,30,-1,30,365,530,-1,30,530,317,-1,317,530,355,-1,317,355,549,-1,549,355,357,-1,549,357,550,-1,550,357,510,-1,550,510,551,-1,551,510,511,-1,551,511,552,-1,552,511,512,-1,552,512,553,-1,553,512,513,-1,553,513,554,-1,554,513,514,-1,554,514,555,-1,555,514,515,-1,555,515,556,-1,556,515,516,-1,556,516,557,-1,557,516,517,-1,557,517,558,-1,559,305,299,-1,559,299,560,-1,560,299,301,-1,560,301,35,-1,561,562,563,-1,563,562,564,-1,565,34,37,-1,565,37,566,-1,566,37,28,-1,566,28,314,-1,567,568,569,-1,569,568,570,-1,571,572,573,-1,573,558,571,-1,571,558,517,-1,571,517,574,-1,574,517,455,-1,574,455,456,-1,456,457,574,-1,574,457,4,-1,574,4,3,-1,567,575,576,-1,577,564,562,-1,578,579,580,-1,580,579,581,-1,580,581,582,-1,567,569,575,-1,575,569,583,-1,575,583,584,-1,585,581,586,-1,586,581,577,-1,586,577,576,-1,576,577,562,-1,576,562,567,-1,585,587,581,-1,581,587,588,-1,581,588,589,-1,589,590,581,-1,581,590,591,-1,581,591,582,-1,592,575,593,-1,593,575,584,-1,593,584,594,-1,594,584,595,-1,596,597,598,-1,598,597,599,-1,570,568,600,-1,600,568,597,-1,600,597,596,-1,565,566,599,-1,599,566,601,-1,599,601,598,-1,559,560,602,-1,602,560,603,-1,602,603,604,-1,561,563,605,-1,605,563,606,-1,605,606,607,-1,603,605,604,-1,604,605,607,-1,608,609,610,-1,610,609,611,-1,612,65,70,-1,592,613,575,-1,575,613,614,-1,575,614,576,-1,576,614,615,-1,576,615,70,-1,70,615,616,-1,70,616,612,-1,65,612,617,-1,617,612,614,-1,617,614,618,-1,618,614,613,-1,618,613,619,-1,574,3,518,-1,619,613,620,-1,620,613,621,-1,620,621,617,-1,574,518,621,-1,518,519,621,-1,621,519,520,-1,621,520,521,-1,521,522,621,-1,621,522,523,-1,621,523,524,-1,524,525,621,-1,621,525,526,-1,621,526,617,-1,617,526,528,-1,617,528,65,-1,608,610,622,-1,622,610,623,-1,622,623,310,-1,624,625,310,-1,310,625,626,-1,310,626,311,-1,623,627,310,-1,310,627,628,-1,310,628,629,-1,629,630,310,-1,310,630,631,-1,310,631,624,-1,632,611,609,-1,633,634,579,-1,609,635,632,-1,632,635,579,-1,632,579,636,-1,636,579,637,-1,578,638,579,-1,579,638,639,-1,579,639,633,-1,634,640,579,-1,579,640,641,-1,579,641,637,-1,609,608,642,-1,642,608,622,-1,635,609,643,-1,643,609,642,-1,643,642,644,-1,644,642,645,-1,560,35,34,-1,568,567,562,-1,561,605,603,-1,565,599,597,-1,597,568,565,-1,565,568,562,-1,565,562,34,-1,34,562,561,-1,34,561,560,-1,560,561,603,-1,635,643,646,-1,642,622,647,-1,647,622,310,-1,647,310,646,-1,646,310,579,-1,646,579,635,-1,648,645,572,-1,572,645,642,-1,572,642,573,-1,573,642,647,-1,648,649,645,-1,645,649,644,-1,643,644,649,-1,649,594,643,-1,643,594,595,-1,643,595,646,-1,594,649,572,-1,572,649,648,-1,621,650,574,-1,574,650,571,-1,571,650,572,-1,572,650,651,-1,572,651,594,-1,594,651,593,-1,651,613,593,-1,593,613,592,-1,651,650,613,-1,613,650,621,-1,70,307,576,-1,576,307,586,-1,611,632,610,-1,610,632,623,-1,578,311,652,-1,637,641,653,-1,653,641,654,-1,653,654,630,-1,630,654,640,-1,630,640,655,-1,655,640,656,-1,655,656,631,-1,631,656,634,-1,631,634,657,-1,657,634,658,-1,657,658,624,-1,624,658,633,-1,624,633,659,-1,659,633,660,-1,659,660,625,-1,625,660,639,-1,625,639,661,-1,661,639,662,-1,661,662,626,-1,626,662,638,-1,626,638,652,-1,652,638,663,-1,652,663,578,-1,623,632,627,-1,627,632,636,-1,627,636,664,-1,664,636,665,-1,664,665,628,-1,628,665,637,-1,628,637,629,-1,629,637,653,-1,311,578,666,-1,304,303,667,-1,667,303,668,-1,667,668,589,-1,589,668,313,-1,589,313,669,-1,669,313,670,-1,669,670,590,-1,590,670,312,-1,590,312,671,-1,671,312,672,-1,671,672,591,-1,591,672,7,-1,591,7,673,-1,673,7,674,-1,673,674,582,-1,582,674,6,-1,582,6,675,-1,675,6,676,-1,675,676,580,-1,580,676,309,-1,580,309,666,-1,666,309,677,-1,666,677,311,-1,667,588,304,-1,304,588,587,-1,304,587,678,-1,678,587,679,-1,678,679,308,-1,308,679,585,-1,308,585,307,-1,307,585,586,-1,
        ]
    }
}
Shape{
    appearance Appearance {
        material  Material 	{
            diffuseColor 0.8509803921568627 0.8509803921568627 0.8509803921568627
            specularColor 0.4235294117647059 0.4235294117647059 0.4235294117647059
            ambientIntensity 0.851
            transparency 0.0
            shininess 0.5
        }
    }
    geometry IndexedFaceSet {
        ccw TRUE
        solid FALSE
        coord DEF co Coordinate {
            point [
                -4.4733 -0.2758 -0.9174, -4.4457 -0.2758 -0.8773, -4.4457 0.2754 -0.8772, -4.4733 0.2754 -0.9174, -4.4961 0.2754 -0.976, -4.4961 -0.2758 -0.976, -4.5031 0.2754 -1.0385, -4.5031 -0.2758 -1.0385, -4.4939 0.2754 -1.1008, -4.4939 -0.2758 -1.1008, -4.4691 0.2754 -1.1586, -4.4691 -0.2758 -1.1586, -4.4422 0.2754 -1.1956, -4.4422 -0.2758 -1.1956, -4.3388 0.2754 -1.1045, -4.3506 0.2754 -1.0884, -4.3613 0.2754 -1.0632, -4.3653 0.2754 -1.0362, -4.3623 0.2754 -1.009, -4.3524 0.2754 -0.9835, -4.3428 0.2754 -0.9688, -4.3431 -0.2758 -0.9692, -4.3524 -0.2758 -0.9835, -4.3623 -0.2758 -1.009, -4.3653 -0.2758 -1.0362, -4.3613 -0.2758 -1.0632, -4.3506 -0.2758 -1.0884, -4.3388 -0.2758 -1.1045, -4.374 0.2645 -1.376, -4.374 -0.2649 -1.376, -4.3744 0.2657 -1.3705, -4.3741 -0.2664 -1.3705, -4.3763 -0.2726 -1.3407, -4.3826 -0.2749 -1.3111, -4.3763 0.2722 -1.3407, -4.4051 -0.2758 -1.2496, -4.4051 0.2754 -1.2496, -4.385 -0.2758 -1.2992, -4.385 0.2754 -1.2992, -4.3819 0.2751 -1.3109, -4.2435 0.2754 -1.2992, -4.2481 0.2754 -1.2781, -4.283 0.2754 -1.1858, -4.2365 -0.266 -1.3705, -4.2383 -0.2734 -1.3351, -4.2435 -0.2758 -1.2992, -4.2362 -0.2649 -1.376, -4.2362 0.2645 -1.376, -4.2363 0.266 -1.3705, -4.2383 0.2731 -1.3351, -4.2481 -0.2758 -1.2781, -4.283 -0.2758 -1.1858, -4.374 -0.2389 -1.437, -4.374 0.2385 -1.437, -4.374 0.1947 -1.4941, -4.374 -0.1951 -1.4941, -4.374 0.0711 -1.5654, -4.374 -0.0002 -1.5748, -4.374 -0.0715 -1.5654, -4.374 0.1376 -1.5379, -4.374 -0.138 -1.5379, -4.2362 -0.2389 -1.437, -4.2362 -0.1951 -1.4941, -4.2362 0.1947 -1.4941, -4.2362 0.2385 -1.437, -4.2362 -0.0715 -1.5654, -4.2362 -0.0002 -1.5748, -4.2362 0.0711 -1.5654, -4.2362 -0.138 -1.5379, -4.2362 0.1376 -1.5379, -4.374 -0.2758 -0.6994, -4.374 -0.2758 0.0, -4.374 0.2754 -0.6994, -4.374 0.2754 0.0, -4.2362 0.2754 -0.6994, -4.2362 0.2754 0.0, -4.2362 -0.2758 -0.6994, -4.2362 -0.2758 0.0, -4.3777 -0.2758 -0.743, -4.3777 0.2754 -0.743, -4.3923 -0.2758 -0.7944, -4.3923 0.2754 -0.7944, -4.4171 -0.2758 -0.8416, -4.4171 0.2754 -0.8416, -4.242 0.2754 -0.7664, -4.2643 0.2754 -0.8454, -4.3025 0.2754 -0.9181, -4.3025 -0.2758 -0.9181, -4.2643 -0.2758 -0.8454, -4.242 -0.2758 -0.7664, 4.6345 -0.2758 -0.9692, 4.6345 0.2754 -0.9692, 4.6437 -0.2758 -0.9835, 4.6437 0.2754 -0.9835, 4.6536 -0.2758 -1.009, 4.6536 0.2754 -1.009, 4.6567 -0.2758 -1.0362, 4.6567 0.2754 -1.0362, 4.6527 -0.2758 -1.0632, 4.6527 0.2754 -1.0632, 4.6419 -0.2758 -1.0884, 4.6419 0.2754 -1.0884, 4.6302 -0.2758 -1.1045, 4.6302 0.2754 -1.1045, 4.7373 0.2754 -0.8776, 4.7646 0.2754 -0.9174, 4.7874 0.2754 -0.976, 4.7944 0.2754 -1.0385, 4.7853 0.2754 -1.1008, 4.7605 0.2754 -1.1586, 4.7335 0.2754 -1.1956, 4.737 -0.2758 -0.8773, 4.7646 -0.2758 -0.9174, 4.7874 -0.2758 -0.976, 4.7944 -0.2758 -1.0385, 4.7853 -0.2758 -1.1008, 4.7605 -0.2758 -1.1586, 4.7335 -0.2758 -1.1956, 4.5278 0.2656 -1.3705, 4.5394 -0.2758 -1.2781, 4.5296 0.2731 -1.3351, 4.5348 0.2754 -1.2992, 4.5276 0.2645 -1.376, 4.5276 -0.2649 -1.376, 4.5276 -0.2664 -1.3705, 4.5296 -0.2734 -1.3351, 4.5348 -0.2758 -1.2992, 4.5394 0.2754 -1.2781, 4.5743 -0.2758 -1.1858, 4.5743 0.2754 -1.1858, 4.6964 0.2754 -1.2496, 4.6764 0.2754 -1.2992, 4.6654 -0.2649 -1.376, 4.6654 0.2645 -1.376, 4.6657 -0.2661 -1.3705, 4.6654 0.266 -1.3705, 4.6676 0.2722 -1.3407, 4.6739 0.2745 -1.3111, 4.6676 -0.2726 -1.3407, 4.6964 -0.2758 -1.2496, 4.6764 -0.2758 -1.2992, 4.6732 -0.2755 -1.3109, 4.5276 0.2385 -1.437, 4.5276 -0.2389 -1.437, 4.5276 0.1947 -1.4941, 4.5276 -0.1951 -1.4941, 4.5276 0.0711 -1.5654, 4.5276 -0.0002 -1.5748, 4.5276 -0.0715 -1.5654, 4.5276 0.1376 -1.5379, 4.5276 -0.138 -1.5379, 4.6654 -0.2389 -1.437, 4.6654 -0.1951 -1.4941, 4.6654 0.1947 -1.4941, 4.6654 0.2385 -1.437, 4.6654 -0.0715 -1.5654, 4.6654 -0.0002 -1.5748, 4.6654 0.0711 -1.5654, 4.6654 -0.138 -1.5379, 4.6654 0.1376 -1.5379, 4.5276 -0.2758 -0.6994, 4.5276 -0.2758 0.0, 4.5276 0.2754 -0.6994, 4.5276 0.2754 0.0, 4.6654 0.2754 -0.6994, 4.6654 0.2754 0.0, 4.6654 -0.2758 -0.6994, 4.6654 -0.2758 0.0, 4.5938 0.2754 -0.9181, 4.5938 -0.2758 -0.9181, 4.5556 -0.2758 -0.8454, 4.5556 0.2754 -0.8454, 4.5333 -0.2758 -0.7664, 4.5333 0.2754 -0.7664, 4.7084 0.2754 -0.8416, 4.6836 0.2754 -0.7944, 4.6691 0.2754 -0.743, 4.6691 -0.2758 -0.743, 4.6836 -0.2758 -0.7944, 4.7084 -0.2758 -0.8416
            ]
        }
        coordIndex [
            0,1,2,-1,2,3,0,-1,0,3,4,-1,0,4,5,-1,5,4,6,-1,5,6,7,-1,7,6,8,-1,7,8,9,-1,9,8,10,-1,9,10,11,-1,11,10,12,-1,11,12,13,-1,14,12,15,-1,15,12,10,-1,15,10,16,-1,16,10,8,-1,16,8,17,-1,17,8,6,-1,17,6,18,-1,18,6,4,-1,18,4,19,-1,19,4,3,-1,19,3,20,-1,20,3,2,-1,20,21,19,-1,19,21,22,-1,19,22,18,-1,18,22,23,-1,18,23,17,-1,17,23,24,-1,17,24,16,-1,16,24,25,-1,16,25,15,-1,15,25,26,-1,15,26,14,-1,14,26,27,-1,21,1,22,-1,22,1,0,-1,22,0,23,-1,23,0,5,-1,23,5,24,-1,24,5,7,-1,24,7,25,-1,25,7,9,-1,25,9,26,-1,26,9,11,-1,26,11,27,-1,27,11,13,-1,28,29,30,-1,30,29,31,-1,31,32,30,-1,30,32,33,-1,30,33,34,-1,13,12,35,-1,35,12,36,-1,35,36,37,-1,37,36,38,-1,37,38,33,-1,33,38,39,-1,33,39,34,-1,36,12,14,-1,40,38,41,-1,41,38,36,-1,41,36,42,-1,42,36,14,-1,43,41,44,-1,44,41,45,-1,46,47,43,-1,43,47,48,-1,48,49,43,-1,43,49,40,-1,43,40,41,-1,45,41,50,-1,50,41,42,-1,50,42,51,-1,51,42,14,-1,51,14,27,-1,27,13,51,-1,51,13,35,-1,51,35,50,-1,50,35,37,-1,50,37,45,-1,52,29,28,-1,28,53,52,-1,52,53,54,-1,52,54,55,-1,56,57,58,-1,56,58,59,-1,59,58,54,-1,54,58,60,-1,54,60,55,-1,47,46,61,-1,62,63,61,-1,61,63,64,-1,61,64,47,-1,65,66,67,-1,62,68,63,-1,63,68,65,-1,63,65,69,-1,69,65,67,-1,70,71,72,-1,72,71,73,-1,72,73,74,-1,74,73,75,-1,74,75,76,-1,76,75,77,-1,77,71,76,-1,76,71,70,-1,70,72,78,-1,78,72,79,-1,78,79,80,-1,80,79,81,-1,80,81,82,-1,82,81,83,-1,82,83,1,-1,1,83,2,-1,72,74,79,-1,79,74,84,-1,79,84,81,-1,81,84,85,-1,81,85,83,-1,83,85,86,-1,83,86,2,-1,2,86,20,-1,87,21,20,-1,20,86,87,-1,87,86,85,-1,87,85,88,-1,88,85,84,-1,88,84,89,-1,89,84,74,-1,89,74,76,-1,1,21,82,-1,82,21,87,-1,82,87,80,-1,80,87,88,-1,80,88,78,-1,78,88,89,-1,78,89,70,-1,70,89,76,-1,45,37,33,-1,45,33,44,-1,44,33,32,-1,44,32,43,-1,43,32,31,-1,43,31,46,-1,46,31,29,-1,46,29,61,-1,29,52,61,-1,61,52,55,-1,61,55,62,-1,62,55,60,-1,62,60,68,-1,68,60,58,-1,68,58,65,-1,65,58,57,-1,65,57,66,-1,53,64,63,-1,53,63,54,-1,54,63,69,-1,54,69,59,-1,59,69,67,-1,59,67,56,-1,56,67,66,-1,56,66,57,-1,64,53,47,-1,47,53,28,-1,47,28,48,-1,48,28,30,-1,48,30,49,-1,49,30,34,-1,49,34,40,-1,40,34,39,-1,40,39,38,-1,90,91,92,-1,92,91,93,-1,92,93,94,-1,94,93,95,-1,94,95,96,-1,96,95,97,-1,96,97,98,-1,98,97,99,-1,98,99,100,-1,100,99,101,-1,100,101,102,-1,102,101,103,-1,91,104,93,-1,93,104,105,-1,93,105,95,-1,95,105,106,-1,95,106,97,-1,97,106,107,-1,97,107,99,-1,99,107,108,-1,99,108,101,-1,101,108,109,-1,101,109,103,-1,103,109,110,-1,105,104,111,-1,111,112,105,-1,105,112,113,-1,105,113,106,-1,106,113,114,-1,106,114,107,-1,107,114,115,-1,107,115,108,-1,108,115,116,-1,108,116,109,-1,109,116,117,-1,109,117,110,-1,102,117,100,-1,100,117,116,-1,100,116,98,-1,98,116,115,-1,98,115,96,-1,96,115,114,-1,96,114,94,-1,94,114,113,-1,94,113,92,-1,92,113,112,-1,92,112,90,-1,90,112,111,-1,118,119,120,-1,120,119,121,-1,122,123,118,-1,118,123,124,-1,124,125,118,-1,118,125,126,-1,118,126,119,-1,121,119,127,-1,127,119,128,-1,127,128,129,-1,129,128,102,-1,129,102,103,-1,103,110,129,-1,129,110,130,-1,129,130,127,-1,127,130,131,-1,127,131,121,-1,132,133,134,-1,134,133,135,-1,135,136,134,-1,134,136,137,-1,134,137,138,-1,110,117,130,-1,130,117,139,-1,130,139,131,-1,131,139,140,-1,131,140,137,-1,137,140,141,-1,137,141,138,-1,139,117,102,-1,126,140,119,-1,119,140,139,-1,119,139,128,-1,128,139,102,-1,123,122,142,-1,123,142,143,-1,143,142,144,-1,143,144,145,-1,146,147,148,-1,146,148,149,-1,149,148,144,-1,144,148,150,-1,144,150,145,-1,133,132,151,-1,152,153,151,-1,151,153,154,-1,151,154,133,-1,155,156,157,-1,152,158,153,-1,153,158,155,-1,153,155,159,-1,159,155,157,-1,160,161,162,-1,162,161,163,-1,162,163,164,-1,164,163,165,-1,164,165,166,-1,166,165,167,-1,167,161,166,-1,166,161,160,-1,168,91,90,-1,90,169,168,-1,168,169,170,-1,168,170,171,-1,171,170,172,-1,171,172,173,-1,173,172,160,-1,173,160,162,-1,104,91,174,-1,174,91,168,-1,174,168,175,-1,175,168,171,-1,175,171,176,-1,176,171,173,-1,176,173,164,-1,164,173,162,-1,164,166,176,-1,176,166,177,-1,176,177,175,-1,175,177,178,-1,175,178,174,-1,174,178,179,-1,174,179,104,-1,104,179,111,-1,166,160,177,-1,177,160,172,-1,177,172,178,-1,178,172,170,-1,178,170,179,-1,179,170,169,-1,179,169,111,-1,111,169,90,-1,141,140,126,-1,141,126,138,-1,138,126,125,-1,138,125,134,-1,134,125,124,-1,134,124,132,-1,132,124,123,-1,132,123,151,-1,123,143,151,-1,151,143,145,-1,151,145,152,-1,152,145,150,-1,152,150,158,-1,158,150,148,-1,158,148,155,-1,155,148,147,-1,155,147,156,-1,156,147,146,-1,156,146,157,-1,157,146,149,-1,157,149,159,-1,159,149,144,-1,159,144,153,-1,153,144,142,-1,153,142,154,-1,154,142,133,-1,133,142,122,-1,133,122,135,-1,135,122,118,-1,135,118,136,-1,136,118,120,-1,136,120,137,-1,137,120,121,-1,137,121,131,-1,
        ]
    }
}
Shape{
    appearance Appearance {
        material  Material 	{
            diffuseColor 0.2235294117647059 0.2235294117647059 0.2235294117647059
            specularColor 0.11372549019607843 0.11372549019607843 0.11372549019607843
            ambientIntensity 0.2235
            transparency 0.0
            shininess 0.5
        }
    }
    geometry IndexedFaceSet {
        ccw TRUE
        solid FALSE
        coord DEF co Coordinate {
            point [
                2.3228 -1.8703 3.2786, 3.7598 -1.8703 3.2979, 2.3228 -1.2404 3.2786, 3.7598 -1.2404 3.2979, 3.8976 -1.2404 3.3002, 5.1969 -1.8703 3.3268, 3.8976 1.24 3.3002, 5.1969 1.8699 3.3268, 3.7598 1.24 3.2979, 3.7598 1.8699 3.2979, 2.3228 1.8699 3.2786, 2.3228 1.24 3.2786, 5.1969 -1.8703 3.3465, 5.1969 1.8699 3.3465, -4.8701 -1.1616 3.3465, -4.8701 -1.1616 3.3268, -4.8701 1.1612 3.3465, -4.8701 1.1612 3.3268, -3.6358 1.8699 3.3014, -3.6358 1.24 3.3014, -3.6174 1.8699 3.3011, -2.4016 1.24 3.2831, -2.4016 1.8699 3.2831, -4.8701 1.8699 3.3268, -3.9764 1.24 3.3077, -3.9764 -1.2404 3.3077, -4.8701 -1.8703 3.3268, -3.6358 -1.2404 3.3014, -3.7715 1.8699 3.3042, -3.7811 1.8699 3.3044, -3.887 1.8699 3.3065, -3.9167 1.8699 3.3071, -3.9898 1.8699 3.3087, -4.0272 1.8699 3.3094, -4.1771 1.8699 3.3125, -4.2277 1.8699 3.3135, -4.3777 1.8699 3.3166, -4.6981 1.8699 3.3232, -3.6358 -1.8703 3.3014, -2.4016 -1.8703 3.2831, -2.4016 -1.2404 3.2831
            ]
        }
        coordIndex [
            0,1,2,-1,2,1,3,-1,3,1,4,-1,4,1,5,-1,4,5,6,-1,6,5,7,-1,6,7,8,-1,7,9,8,-1,8,9,10,-1,8,10,11,-1,5,12,7,-1,7,12,13,-1,14,15,16,-1,16,15,17,-1,18,19,20,-1,20,19,21,-1,20,21,22,-1,23,17,24,-1,24,17,15,-1,24,15,25,-1,25,15,26,-1,25,26,27,-1,18,28,19,-1,19,28,29,-1,19,29,24,-1,29,30,24,-1,24,30,31,-1,24,31,32,-1,32,33,24,-1,24,33,34,-1,24,34,35,-1,35,36,24,-1,24,36,37,-1,24,37,23,-1,26,38,27,-1,27,38,39,-1,27,39,40,-1,
        ]
    }
}
Shape{
    appearance Appearance {
        material  Material 	{
            diffuseColor 1.0 1.0 1.0
            specularColor 0.5019607843137255 0.5019607843137255 0.5019607843137255
            ambientIntensity 1.0
            transparency 0.0
            shininess 0.5
        }
    }
    geometry IndexedFaceSet {
        ccw TRUE
        solid FALSE
        coord DEF co Coordinate {
            point [
                -3.7674 1.8703 0.8087, -3.7674 1.8703 0.7905, -3.7674 1.8699 0.8087, -3.7674 1.8699 0.7905, -3.7036 1.8703 0.8087, -3.7036 1.8699 0.8087, -3.7036 1.8703 0.9506, -3.7036 1.8699 0.9506, -3.683 1.8703 0.9506, -3.683 1.8699 0.9506, -3.683 1.8703 0.7905, -3.683 1.8699 0.7905, -3.8939 1.8699 0.7971, -3.8939 1.8703 0.7971, -3.8911 1.8703 0.7957, -3.8495 1.8703 0.7878, -3.8495 1.8699 0.7878, -3.8739 1.8699 0.7901, -3.8739 1.8703 0.7901, -3.887 1.8699 0.7944, -3.8911 1.8699 0.7957, -3.8939 1.8703 0.8169, -3.8939 1.8699 0.8169, -3.887 1.8699 0.8138, -3.8793 1.8703 0.8102, -3.8793 1.8699 0.8102, -3.8615 1.8699 0.8066, -3.8615 1.8703 0.8066, -3.8525 1.8699 0.8062, -3.8525 1.8703 0.8062, -3.8368 1.8699 0.808, -3.8368 1.8703 0.808, -3.8253 1.8699 0.8124, -3.8253 1.8703 0.8124, -3.8148 1.8699 0.8197, -3.8148 1.8703 0.8197, -3.8114 1.8699 0.823, -3.8114 1.8703 0.823, -3.8033 1.8699 0.8344, -3.8033 1.8703 0.8344, -3.7982 1.8699 0.8475, -3.7982 1.8703 0.8475, -3.7957 1.8699 0.8671, -3.7957 1.8703 0.8671, -3.7957 1.8699 0.8687, -3.7957 1.8703 0.8687, -3.7976 1.8699 0.8875, -3.7976 1.8703 0.8875, -3.8024 1.8699 0.9021, -3.8024 1.8703 0.9021, -3.8097 1.8699 0.9137, -3.8097 1.8703 0.9137, -3.8125 1.8699 0.9169, -3.8125 1.8703 0.9169, -3.8238 1.8699 0.9261, -3.8238 1.8703 0.9261, -3.8364 1.8699 0.9318, -3.8364 1.8703 0.9318, -3.8504 1.8699 0.9344, -3.8504 1.8703 0.9344, -3.8561 1.8699 0.9346, -3.8561 1.8703 0.9346, -3.8939 1.8699 0.9251, -3.8939 1.8703 0.9251, -3.8903 1.8703 0.927, -3.8738 1.8699 0.9327, -3.8738 1.8703 0.9327, -3.887 1.8699 0.9281, -3.8903 1.8699 0.927, -3.8939 1.8703 0.9467, -3.8939 1.8699 0.9467, -3.8559 1.8699 0.9533, -3.8559 1.8703 0.9533, -3.8583 1.8703 0.9533, -3.887 1.8699 0.9488, -3.8788 1.8703 0.9513, -3.8788 1.8699 0.9513, -3.8721 1.8699 0.9519, -3.8583 1.8699 0.9533, -3.8447 1.8699 0.9519, -3.833 1.8703 0.9505, -3.833 1.8699 0.9505, -3.8162 1.8699 0.9441, -3.8162 1.8703 0.9441, -3.8007 1.8699 0.9332, -3.8007 1.8703 0.9332, -3.7971 1.8699 0.9297, -3.7971 1.8703 0.9297, -3.7866 1.8699 0.9163, -3.7866 1.8703 0.9163, -3.7811 1.8699 0.9045, -3.7785 1.8703 0.8989, -3.7785 1.8699 0.8989, -3.7745 1.8699 0.8784, -3.7745 1.8703 0.8784, -3.774 1.8699 0.8675, -3.774 1.8703 0.8675, -3.7771 1.8699 0.8417, -3.7771 1.8703 0.8417, -3.7811 1.8699 0.8311, -3.7835 1.8703 0.825, -3.7835 1.8699 0.825, -3.793 1.8699 0.8112, -3.793 1.8703 0.8112, -3.7945 1.8699 0.8096, -3.7945 1.8703 0.8096, -3.8067 1.8699 0.7994, -3.8067 1.8703 0.7994, -3.8217 1.8699 0.7921, -3.8217 1.8703 0.7921, -3.8389 1.8699 0.7883, -3.8389 1.8703 0.7883, -4.0121 1.8703 0.8087, -4.0121 1.8703 0.7905, -4.0121 1.8699 0.8087, -4.0121 1.8699 0.7905, -3.9466 1.8699 0.8087, -3.9466 1.8703 0.8087, -3.9898 1.8699 0.8087, -3.9466 1.8703 0.8626, -3.9466 1.8699 0.8626, -4.0039 1.8699 0.8626, -4.0039 1.8703 0.8626, -3.9898 1.8699 0.8626, -4.0039 1.8703 0.8809, -4.0039 1.8699 0.8809, -3.9466 1.8699 0.8809, -3.9466 1.8703 0.8809, -3.9898 1.8699 0.8809, -3.9466 1.8703 0.9322, -3.9466 1.8699 0.9322, -4.0084 1.8699 0.9322, -4.0084 1.8703 0.9322, -3.9898 1.8699 0.9322, -4.0084 1.8703 0.9506, -4.0084 1.8699 0.9506, -3.9259 1.8699 0.9506, -3.9259 1.8703 0.9506, -3.9898 1.8699 0.9506, -3.9259 1.8703 0.7905, -3.9259 1.8699 0.7905, -3.9898 1.8699 0.7905, -4.1075 1.8703 0.93, -4.0911 1.8703 0.9506, -4.0872 1.8703 0.9322, -4.088 1.8703 0.9506, -4.063 1.8703 0.9322, -4.0423 1.8703 0.9506, -4.063 1.8703 0.8087, -4.0423 1.8703 0.7905, -4.0862 1.8703 0.8087, -4.0864 1.8703 0.7905, -4.1052 1.8703 0.8106, -4.1133 1.8703 0.7937, -4.1193 1.8703 0.8153, -4.1316 1.8703 0.8008, -4.1301 1.8703 0.8221, -4.1485 1.8703 0.8129, -4.1338 1.8703 0.8254, -4.1422 1.8703 0.836, -4.1595 1.8703 0.8256, -4.1476 1.8703 0.848, -4.1678 1.8703 0.842, -4.1505 1.8703 0.8629, -4.172 1.8703 0.8604, -4.1509 1.8703 0.872, -4.1727 1.8703 0.8726, -4.1491 1.8703 0.89, -4.1708 1.8703 0.8913, -4.1448 1.8703 0.9023, -4.1655 1.8703 0.9072, -4.1389 1.8703 0.9115, -4.156 1.8703 0.9218, -4.1334 1.8703 0.9171, -4.1485 1.8703 0.9294, -4.1214 1.8703 0.925, -4.1342 1.8703 0.9395, -4.1152 1.8703 0.9472, -4.0864 1.8699 0.7905, -4.0423 1.8699 0.7905, -4.1133 1.8699 0.7937, -4.1316 1.8699 0.8008, -4.1485 1.8699 0.8129, -4.1595 1.8699 0.8256, -4.1678 1.8699 0.842, -4.172 1.8699 0.8604, -4.1727 1.8699 0.8726, -4.1708 1.8699 0.8913, -4.1655 1.8699 0.9072, -4.156 1.8699 0.9218, -4.1485 1.8699 0.9294, -4.1342 1.8699 0.9395, -4.1152 1.8699 0.9472, -4.0911 1.8699 0.9506, -4.088 1.8699 0.9506, -4.0423 1.8699 0.9506, -4.0872 1.8699 0.9322, -4.063 1.8699 0.9322, -4.063 1.8699 0.8087, -4.0862 1.8699 0.8087, -4.1338 1.8699 0.8254, -4.1301 1.8699 0.8221, -4.1193 1.8699 0.8153, -4.1052 1.8699 0.8106, -4.1509 1.8699 0.872, -4.1505 1.8699 0.8629, -4.1476 1.8699 0.848, -4.1422 1.8699 0.836, -4.1334 1.8699 0.9171, -4.1389 1.8699 0.9115, -4.1448 1.8699 0.9023, -4.1491 1.8699 0.89, -4.1075 1.8699 0.93, -4.1214 1.8699 0.925
            ]
        }
        coordIndex [
            0,1,2,-1,2,1,3,-1,4,0,5,-1,5,0,2,-1,6,4,7,-1,7,4,5,-1,8,6,9,-1,9,6,7,-1,10,8,11,-1,11,8,9,-1,1,10,3,-1,3,10,11,-1,6,8,4,-1,4,8,10,-1,4,10,0,-1,0,10,1,-1,12,13,14,-1,15,16,17,-1,15,17,18,-1,18,17,19,-1,18,19,14,-1,14,19,20,-1,14,20,12,-1,21,13,22,-1,22,13,12,-1,21,22,23,-1,21,23,24,-1,23,25,24,-1,24,25,26,-1,24,26,27,-1,27,26,28,-1,27,28,29,-1,29,28,30,-1,29,30,31,-1,31,30,32,-1,31,32,33,-1,33,32,34,-1,33,34,35,-1,35,34,36,-1,35,36,37,-1,37,36,38,-1,37,38,39,-1,39,38,40,-1,39,40,41,-1,41,40,42,-1,41,42,43,-1,43,42,44,-1,43,44,45,-1,45,44,46,-1,45,46,47,-1,47,46,48,-1,47,48,49,-1,49,48,50,-1,49,50,51,-1,51,50,52,-1,51,52,53,-1,53,52,54,-1,53,54,55,-1,55,54,56,-1,55,56,57,-1,57,56,58,-1,57,58,59,-1,59,58,60,-1,59,60,61,-1,62,63,64,-1,61,60,65,-1,61,65,66,-1,66,65,67,-1,66,67,64,-1,64,67,68,-1,64,68,62,-1,69,63,70,-1,70,63,62,-1,71,72,73,-1,69,70,74,-1,69,74,75,-1,74,76,75,-1,75,76,77,-1,75,77,73,-1,73,77,78,-1,73,78,71,-1,72,71,79,-1,72,79,80,-1,79,81,80,-1,80,81,82,-1,80,82,83,-1,83,82,84,-1,83,84,85,-1,85,84,86,-1,85,86,87,-1,87,86,88,-1,87,88,89,-1,89,88,90,-1,89,90,91,-1,90,92,91,-1,91,92,93,-1,91,93,94,-1,94,93,95,-1,94,95,96,-1,96,95,97,-1,96,97,98,-1,98,97,99,-1,98,99,100,-1,99,101,100,-1,100,101,102,-1,100,102,103,-1,103,102,104,-1,103,104,105,-1,105,104,106,-1,105,106,107,-1,107,106,108,-1,107,108,109,-1,109,108,110,-1,109,110,111,-1,111,110,16,-1,111,16,15,-1,64,63,69,-1,55,57,80,-1,39,41,98,-1,47,49,89,-1,80,57,72,-1,64,69,66,-1,98,41,96,-1,89,49,87,-1,57,59,72,-1,72,59,61,-1,72,61,73,-1,73,61,66,-1,73,66,75,-1,75,66,69,-1,80,83,55,-1,55,83,85,-1,55,85,53,-1,53,85,87,-1,53,87,51,-1,51,87,49,-1,98,100,39,-1,39,100,103,-1,39,103,37,-1,37,103,105,-1,37,105,35,-1,35,105,107,-1,35,107,33,-1,33,107,109,-1,33,109,31,-1,31,109,111,-1,31,111,29,-1,29,111,15,-1,29,15,27,-1,27,15,18,-1,27,18,24,-1,24,18,14,-1,24,14,21,-1,21,14,13,-1,41,43,96,-1,96,43,45,-1,96,45,94,-1,94,45,47,-1,94,47,91,-1,91,47,89,-1,112,113,114,-1,114,113,115,-1,116,117,118,-1,118,117,112,-1,118,112,114,-1,119,117,120,-1,120,117,116,-1,121,122,123,-1,123,122,119,-1,123,119,120,-1,124,122,125,-1,125,122,121,-1,126,127,128,-1,128,127,124,-1,128,124,125,-1,129,127,130,-1,130,127,126,-1,131,132,133,-1,133,132,129,-1,133,129,130,-1,134,132,135,-1,135,132,131,-1,136,137,138,-1,138,137,134,-1,138,134,135,-1,139,137,140,-1,140,137,136,-1,115,113,141,-1,141,113,139,-1,141,139,140,-1,139,113,112,-1,112,117,139,-1,139,117,119,-1,139,119,137,-1,132,134,129,-1,129,134,137,-1,129,137,127,-1,127,137,119,-1,127,119,124,-1,124,119,122,-1,142,143,144,-1,144,143,145,-1,144,145,146,-1,146,145,147,-1,146,147,148,-1,148,147,149,-1,148,149,150,-1,150,149,151,-1,150,151,152,-1,152,151,153,-1,152,153,154,-1,154,153,155,-1,154,155,156,-1,156,155,157,-1,156,157,158,-1,158,157,159,-1,159,157,160,-1,159,160,161,-1,161,160,162,-1,161,162,163,-1,163,162,164,-1,163,164,165,-1,165,164,166,-1,165,166,167,-1,167,166,168,-1,167,168,169,-1,169,168,170,-1,169,170,171,-1,171,170,172,-1,171,172,173,-1,173,172,174,-1,173,174,175,-1,175,174,176,-1,175,176,142,-1,142,176,177,-1,142,177,143,-1,151,149,178,-1,178,149,179,-1,151,178,180,-1,151,180,153,-1,153,180,181,-1,153,181,155,-1,155,181,182,-1,155,182,157,-1,157,182,183,-1,157,183,160,-1,160,183,184,-1,160,184,162,-1,162,184,185,-1,162,185,164,-1,164,185,186,-1,164,186,166,-1,166,186,187,-1,166,187,168,-1,168,187,188,-1,168,188,170,-1,170,188,189,-1,170,189,172,-1,172,189,190,-1,172,190,174,-1,174,190,191,-1,174,191,176,-1,176,191,192,-1,176,192,177,-1,177,192,193,-1,177,193,143,-1,143,193,194,-1,143,194,145,-1,147,145,195,-1,195,145,194,-1,149,147,179,-1,179,147,195,-1,144,146,196,-1,196,146,197,-1,146,148,197,-1,197,148,198,-1,148,150,198,-1,198,150,199,-1,158,200,201,-1,158,201,156,-1,156,201,202,-1,156,202,154,-1,154,202,203,-1,154,203,152,-1,152,203,199,-1,152,199,150,-1,165,204,205,-1,165,205,163,-1,163,205,206,-1,163,206,161,-1,161,206,207,-1,161,207,159,-1,159,207,200,-1,159,200,158,-1,173,208,209,-1,173,209,171,-1,171,209,210,-1,171,210,169,-1,169,210,211,-1,169,211,167,-1,167,211,204,-1,167,204,165,-1,144,196,212,-1,144,212,142,-1,142,212,213,-1,142,213,175,-1,175,213,208,-1,175,208,173,-1,
        ]
    }
}
Shape{
    appearance Appearance {
        material  Material 	{
            diffuseColor 0.2235294117647059 0.2235294117647059 0.2235294117647059
            specularColor 0.11372549019607843 0.11372549019607843 0.11372549019607843
            ambientIntensity 0.2235
            transparency 0.0
            shininess 0.5
        }
    }
    geometry IndexedFaceSet {
        ccw TRUE
        solid FALSE
        coord DEF co Coordinate {
            point [
                -4.063 1.8699 0.9322, -4.063 1.8699 0.8087, -4.0872 1.8699 0.9322, -4.0862 1.8699 0.8087, -4.1052 1.8699 0.8106, -4.1193 1.8699 0.8153, -4.1301 1.8699 0.8221, -4.1338 1.8699 0.8254, -4.1422 1.8699 0.836, -4.1476 1.8699 0.848, -4.1505 1.8699 0.8629, -4.1509 1.8699 0.872, -4.1491 1.8699 0.89, -4.1448 1.8699 0.9023, -4.1389 1.8699 0.9115, -4.1334 1.8699 0.9171, -4.1075 1.8699 0.93, -4.1214 1.8699 0.925
            ]
        }
        coordIndex [
            0,1,2,-1,2,1,3,-1,2,3,4,-1,4,5,2,-1,2,5,6,-1,2,6,7,-1,7,8,2,-1,2,8,9,-1,2,9,10,-1,10,11,2,-1,2,11,12,-1,2,12,13,-1,13,14,2,-1,2,14,15,-1,2,15,16,-1,16,15,17,-1,
        ]
    }
}
Shape{
    appearance Appearance {
        material  Material 	{
            diffuseColor 1.0 1.0 1.0
            specularColor 0.5019607843137255 0.5019607843137255 0.5019607843137255
            ambientIntensity 1.0
            transparency 0.0
            shininess 0.5
        }
    }
    geometry IndexedFaceSet {
        ccw TRUE
        solid FALSE
        coord DEF co Coordinate {
            point [
                -4.2264 1.8703 0.8523, -4.2503 1.8703 0.9189, -4.2426 1.8703 0.9506, -4.1816 1.8703 0.7905, -4.2044 1.8703 0.7905, -4.2198 1.8703 0.8343, -4.2517 1.8703 0.9237, -4.2529 1.8703 0.9301, -4.2647 1.8703 0.9506, -4.2534 1.8703 0.9301, -4.2547 1.8703 0.9234, -4.2559 1.8703 0.9189, -4.2801 1.8703 0.8523, -4.3257 1.8703 0.7905, -4.3028 1.8703 0.7905, -4.2865 1.8703 0.8343, -4.2647 1.8699 0.9506, -4.3257 1.8699 0.7905, -4.2426 1.8699 0.9506, -4.1816 1.8699 0.7905, -4.2277 1.8699 0.9116, -4.2044 1.8699 0.7905, -4.2198 1.8699 0.8343, -4.2865 1.8699 0.8343, -4.2277 1.8699 0.8343, -4.3028 1.8699 0.7905, -4.2264 1.8699 0.8523, -4.2801 1.8699 0.8523, -4.2559 1.8699 0.9189, -4.2534 1.8699 0.9301, -4.2547 1.8699 0.9234, -4.2529 1.8699 0.9301, -4.2503 1.8699 0.9189, -4.2517 1.8699 0.9237
            ]
        }
        coordIndex [
            0,1,2,-1,3,4,5,-1,1,6,2,-1,2,6,7,-1,2,7,8,-1,8,7,9,-1,8,9,10,-1,10,11,8,-1,8,11,12,-1,8,12,13,-1,14,13,15,-1,15,13,12,-1,15,12,5,-1,5,12,0,-1,5,0,3,-1,3,0,2,-1,8,13,16,-1,16,13,17,-1,2,8,18,-1,18,8,16,-1,19,3,20,-1,20,3,2,-1,20,2,18,-1,4,3,21,-1,21,3,19,-1,5,4,22,-1,22,4,21,-1,23,15,24,-1,24,15,5,-1,24,5,22,-1,14,15,25,-1,25,15,23,-1,13,14,17,-1,17,14,25,-1,0,12,26,-1,26,12,27,-1,12,11,27,-1,27,11,28,-1,9,29,30,-1,9,30,10,-1,10,30,28,-1,10,28,11,-1,9,7,29,-1,29,7,31,-1,1,32,33,-1,1,33,6,-1,6,33,31,-1,6,31,7,-1,1,0,32,-1,32,0,26,-1,
        ]
    }
}
Shape{
    appearance Appearance {
        material  Material 	{
            diffuseColor 0.2235294117647059 0.2235294117647059 0.2235294117647059
            specularColor 0.11372549019607843 0.11372549019607843 0.11372549019607843
            ambientIntensity 0.2235
            transparency 0.0
            shininess 0.5
        }
    }
    geometry IndexedFaceSet {
        ccw TRUE
        solid FALSE
        coord DEF co Coordinate {
            point [
                -4.2534 1.8699 0.9301, -4.2529 1.8699 0.9301, -4.2547 1.8699 0.9234, -4.2517 1.8699 0.9237, -4.2559 1.8699 0.9189, -4.2503 1.8699 0.9189, -4.2801 1.8699 0.8523, -4.2264 1.8699 0.8523
            ]
        }
        coordIndex [
            0,1,2,-1,2,1,3,-1,2,3,4,-1,4,3,5,-1,4,5,6,-1,6,5,7,-1,
        ]
    }
}
Shape{
    appearance Appearance {
        material  Material 	{
            diffuseColor 1.0 1.0 1.0
            specularColor 0.5019607843137255 0.5019607843137255 0.5019607843137255
            ambientIntensity 1.0
            transparency 0.0
            shininess 0.5
        }
    }
    geometry IndexedFaceSet {
        ccw TRUE
        solid FALSE
        coord DEF co Coordinate {
            point [
                -3.7691 1.8703 0.5547, -3.7691 1.8703 0.5364, -3.7691 1.8699 0.5547, -3.7691 1.8699 0.5364, -3.7036 1.8703 0.5547, -3.7036 1.8699 0.5547, -3.7036 1.8703 0.6085, -3.7036 1.8699 0.6085, -3.7609 1.8703 0.6085, -3.7609 1.8699 0.6085, -3.7609 1.8703 0.6269, -3.7609 1.8699 0.6269, -3.7036 1.8703 0.6269, -3.7036 1.8699 0.6269, -3.7036 1.8703 0.6781, -3.7036 1.8699 0.6781, -3.7655 1.8703 0.6781, -3.7655 1.8699 0.6781, -3.7655 1.8703 0.6965, -3.7655 1.8699 0.6965, -3.683 1.8703 0.6965, -3.683 1.8699 0.6965, -3.683 1.8703 0.5364, -3.683 1.8699 0.5364, -3.8601 1.8703 0.5364, -3.8802 1.8703 0.5364, -3.8601 1.8703 0.5541, -3.8802 1.8703 0.61, -3.8601 1.8703 0.6091, -3.8167 1.8703 0.5852, -3.8216 1.8703 0.5875, -3.8334 1.8703 0.5902, -3.8601 1.8703 0.5938, -3.8601 1.8703 0.5828, -3.8594 1.8703 0.618, -3.8783 1.8703 0.6265, -3.8574 1.8703 0.6251, -3.8751 1.8703 0.6352, -3.855 1.8703 0.6293, -3.8709 1.8703 0.6415, -3.852 1.8703 0.6325, -3.8666 1.8703 0.6456, -3.8484 1.8703 0.6348, -3.86 1.8703 0.6495, -3.8438 1.8703 0.6364, -3.8518 1.8703 0.6521, -3.837 1.8703 0.6371, -3.8389 1.8703 0.6534, -3.8255 1.8703 0.636, -3.821 1.8703 0.6515, -3.8129 1.8703 0.6318, -3.8057 1.8703 0.6462, -3.7995 1.8703 0.6233, -3.7995 1.8703 0.6428, -3.8601 1.8703 0.5815, -3.8588 1.8703 0.5726, -3.8559 1.8703 0.5654, -3.8596 1.8703 0.5541, -3.8515 1.8703 0.5595, -3.8565 1.8703 0.5493, -3.849 1.8703 0.557, -3.8502 1.8703 0.5425, -3.8434 1.8703 0.5532, -3.843 1.8703 0.5378, -3.8373 1.8703 0.551, -3.8349 1.8703 0.5349, -3.8298 1.8703 0.5502, -3.8246 1.8703 0.5337, -3.823 1.8703 0.5509, -3.8126 1.8703 0.5351, -3.8185 1.8703 0.5526, -3.8049 1.8703 0.538, -3.8145 1.8703 0.5553, -3.7981 1.8703 0.5427, -3.8128 1.8703 0.557, -3.8262 1.8703 0.6044, -3.8101 1.8703 0.6002, -3.814 1.8703 0.5832, -3.8019 1.8703 0.5958, -3.8116 1.8703 0.5802, -3.7959 1.8703 0.5904, -3.8098 1.8703 0.5764, -3.7917 1.8703 0.5839, -3.8088 1.8703 0.5719, -3.7893 1.8703 0.5766, -3.8086 1.8703 0.5687, -3.7883 1.8703 0.567, -3.8092 1.8703 0.5641, -3.7893 1.8703 0.5579, -3.8105 1.8703 0.5604, -3.7917 1.8703 0.5512, -3.7959 1.8703 0.545, -3.8389 1.8699 0.6534, -3.821 1.8699 0.6515, -3.8057 1.8699 0.6462, -3.7995 1.8699 0.6428, -3.7995 1.8699 0.6233, -3.8129 1.8699 0.6318, -3.8255 1.8699 0.636, -3.837 1.8699 0.6371, -3.8438 1.8699 0.6364, -3.8484 1.8699 0.6348, -3.852 1.8699 0.6325, -3.855 1.8699 0.6293, -3.8574 1.8699 0.6251, -3.8594 1.8699 0.618, -3.8601 1.8699 0.6091, -3.8262 1.8699 0.6044, -3.8101 1.8699 0.6002, -3.8019 1.8699 0.5958, -3.7959 1.8699 0.5904, -3.7917 1.8699 0.5839, -3.7893 1.8699 0.5766, -3.7883 1.8699 0.567, -3.7893 1.8699 0.5579, -3.7917 1.8699 0.5512, -3.7959 1.8699 0.545, -3.7981 1.8699 0.5427, -3.8246 1.8699 0.5337, -3.8129 1.8699 0.5351, -3.8126 1.8699 0.5351, -3.8049 1.8699 0.538, -3.8349 1.8699 0.5349, -3.8355 1.8699 0.5351, -3.843 1.8699 0.5378, -3.8502 1.8699 0.5425, -3.8565 1.8699 0.5493, -3.8596 1.8699 0.5541, -3.8601 1.8699 0.5541, -3.8601 1.8699 0.5364, -3.8802 1.8699 0.5364, -3.8802 1.8699 0.61, -3.8783 1.8699 0.6265, -3.8751 1.8699 0.6352, -3.8709 1.8699 0.6415, -3.8666 1.8699 0.6456, -3.86 1.8699 0.6495, -3.8518 1.8699 0.6521, -3.814 1.8699 0.5832, -3.8167 1.8699 0.5852, -3.8216 1.8699 0.5875, -3.8334 1.8699 0.5902, -3.8086 1.8699 0.5687, -3.8088 1.8699 0.5719, -3.8098 1.8699 0.5764, -3.8116 1.8699 0.5802, -3.8145 1.8699 0.5553, -3.8128 1.8699 0.557, -3.8105 1.8699 0.5604, -3.8092 1.8699 0.5641, -3.8298 1.8699 0.5502, -3.823 1.8699 0.5509, -3.8185 1.8699 0.5526, -3.8515 1.8699 0.5595, -3.849 1.8699 0.557, -3.8434 1.8699 0.5532, -3.8373 1.8699 0.551, -3.8601 1.8699 0.5828, -3.8601 1.8699 0.5815, -3.8588 1.8699 0.5726, -3.8559 1.8699 0.5654, -3.8601 1.8699 0.5938
            ]
        }
        coordIndex [
            0,1,2,-1,2,1,3,-1,4,0,5,-1,5,0,2,-1,6,4,7,-1,7,4,5,-1,8,6,9,-1,9,6,7,-1,10,8,11,-1,11,8,9,-1,12,10,13,-1,13,10,11,-1,14,12,15,-1,15,12,13,-1,16,14,17,-1,17,14,15,-1,18,16,19,-1,19,16,17,-1,20,18,21,-1,21,18,19,-1,22,20,23,-1,23,20,21,-1,1,22,3,-1,3,22,23,-1,22,1,0,-1,0,4,22,-1,22,4,6,-1,22,6,20,-1,16,18,14,-1,14,18,20,-1,14,20,12,-1,12,20,6,-1,12,6,10,-1,10,6,8,-1,24,25,26,-1,26,25,27,-1,28,29,30,-1,31,32,27,-1,27,32,33,-1,30,31,28,-1,28,31,27,-1,28,27,34,-1,34,27,35,-1,34,35,36,-1,36,35,37,-1,36,37,38,-1,38,37,39,-1,38,39,40,-1,40,39,41,-1,40,41,42,-1,42,41,43,-1,42,43,44,-1,44,43,45,-1,44,45,46,-1,46,45,47,-1,46,47,48,-1,48,47,49,-1,48,49,50,-1,50,49,51,-1,50,51,52,-1,52,51,53,-1,33,54,27,-1,27,54,55,-1,27,55,26,-1,26,55,56,-1,26,56,57,-1,57,56,58,-1,57,58,59,-1,59,58,60,-1,59,60,61,-1,61,60,62,-1,61,62,63,-1,63,62,64,-1,63,64,65,-1,65,64,66,-1,65,66,67,-1,67,66,68,-1,67,68,69,-1,69,68,70,-1,69,70,71,-1,71,70,72,-1,71,72,73,-1,73,72,74,-1,28,75,29,-1,29,75,76,-1,29,76,77,-1,77,76,78,-1,77,78,79,-1,79,78,80,-1,79,80,81,-1,81,80,82,-1,81,82,83,-1,83,82,84,-1,83,84,85,-1,85,84,86,-1,85,86,87,-1,87,86,88,-1,87,88,89,-1,89,88,90,-1,89,90,74,-1,74,90,91,-1,74,91,73,-1,47,92,93,-1,47,93,49,-1,49,93,94,-1,49,94,51,-1,51,94,95,-1,51,95,53,-1,52,53,96,-1,96,53,95,-1,52,96,97,-1,52,97,50,-1,50,97,98,-1,50,98,48,-1,48,98,99,-1,48,99,46,-1,46,99,100,-1,46,100,44,-1,44,100,101,-1,44,101,42,-1,42,101,102,-1,42,102,40,-1,40,102,103,-1,40,103,38,-1,38,103,104,-1,38,104,36,-1,36,104,105,-1,36,105,34,-1,34,105,106,-1,34,106,28,-1,75,28,107,-1,107,28,106,-1,75,107,108,-1,75,108,76,-1,76,108,109,-1,76,109,78,-1,78,109,110,-1,78,110,80,-1,80,110,111,-1,80,111,82,-1,82,111,112,-1,82,112,84,-1,84,112,113,-1,84,113,86,-1,86,113,114,-1,86,114,88,-1,88,114,115,-1,88,115,90,-1,90,115,116,-1,90,116,91,-1,91,116,117,-1,91,117,73,-1,118,67,119,-1,119,67,69,-1,119,69,120,-1,120,69,71,-1,120,71,121,-1,121,71,73,-1,121,73,117,-1,67,118,122,-1,67,122,65,-1,65,122,123,-1,65,123,63,-1,123,124,63,-1,63,124,125,-1,63,125,61,-1,61,125,126,-1,61,126,59,-1,59,126,127,-1,59,127,57,-1,26,57,128,-1,128,57,127,-1,24,26,129,-1,129,26,128,-1,25,24,130,-1,130,24,129,-1,27,25,131,-1,131,25,130,-1,27,131,132,-1,27,132,35,-1,35,132,133,-1,35,133,37,-1,37,133,134,-1,37,134,39,-1,39,134,135,-1,39,135,41,-1,41,135,136,-1,41,136,43,-1,43,136,137,-1,43,137,45,-1,45,137,92,-1,45,92,47,-1,77,138,139,-1,77,139,29,-1,29,139,140,-1,29,140,30,-1,30,140,141,-1,30,141,31,-1,85,142,143,-1,85,143,83,-1,83,143,144,-1,83,144,81,-1,81,144,145,-1,81,145,79,-1,79,145,138,-1,79,138,77,-1,72,146,147,-1,72,147,74,-1,74,147,148,-1,74,148,89,-1,89,148,149,-1,89,149,87,-1,87,149,142,-1,87,142,85,-1,66,150,151,-1,66,151,68,-1,68,151,152,-1,68,152,70,-1,70,152,146,-1,70,146,72,-1,58,153,154,-1,58,154,60,-1,60,154,155,-1,60,155,62,-1,62,155,156,-1,62,156,64,-1,64,156,150,-1,64,150,66,-1,33,157,158,-1,33,158,54,-1,54,158,159,-1,54,159,55,-1,55,159,160,-1,55,160,56,-1,56,160,153,-1,56,153,58,-1,33,32,157,-1,157,32,161,-1,32,31,161,-1,161,31,141,-1,
        ]
    }
}
Shape{
    appearance Appearance {
        material  Material 	{
            diffuseColor 0.2235294117647059 0.2235294117647059 0.2235294117647059
            specularColor 0.11372549019607843 0.11372549019607843 0.11372549019607843
            ambientIntensity 0.2235
            transparency 0.0
            shininess 0.5
        }
    }
    geometry IndexedFaceSet {
        ccw TRUE
        solid FALSE
        coord DEF co Coordinate {
            point [
                -3.8601 1.8699 0.5938, -3.8334 1.8699 0.5902, -3.8601 1.8699 0.5828, -3.8216 1.8699 0.5875, -3.8167 1.8699 0.5852, -3.814 1.8699 0.5832, -3.8601 1.8699 0.5815, -3.8588 1.8699 0.5726, -3.8116 1.8699 0.5802, -3.8559 1.8699 0.5654, -3.8128 1.8699 0.557, -3.8145 1.8699 0.5553, -3.849 1.8699 0.557, -3.8105 1.8699 0.5604, -3.8434 1.8699 0.5532, -3.8373 1.8699 0.551, -3.8298 1.8699 0.5502, -3.8098 1.8699 0.5764, -3.8088 1.8699 0.5719, -3.8515 1.8699 0.5595, -3.8086 1.8699 0.5687, -3.8092 1.8699 0.5641, -3.8185 1.8699 0.5526, -3.823 1.8699 0.5509
            ]
        }
        coordIndex [
            0,1,2,-1,2,1,3,-1,3,4,2,-1,2,4,5,-1,2,5,6,-1,6,5,7,-1,7,5,8,-1,7,8,9,-1,10,11,12,-1,10,12,13,-1,14,12,15,-1,15,12,16,-1,8,17,9,-1,9,17,18,-1,9,18,19,-1,19,18,20,-1,19,20,12,-1,12,20,21,-1,12,21,13,-1,11,22,12,-1,12,22,23,-1,12,23,16,-1,
        ]
    }
}
Shape{
    appearance Appearance {
        material  Material 	{
            diffuseColor 1.0 1.0 1.0
            specularColor 0.5019607843137255 0.5019607843137255 0.5019607843137255
            ambientIntensity 1.0
            transparency 0.0
            shininess 0.5
        }
    }
    geometry IndexedFaceSet {
        ccw TRUE
        solid FALSE
        coord DEF co Coordinate {
            point [
                -3.9074 1.8699 0.5611, -3.9074 1.8703 0.5611, -3.9152 1.8703 0.5563, -3.9404 1.8703 0.5501, -3.9404 1.8699 0.5501, -3.9278 1.8699 0.5516, -3.9278 1.8703 0.5516, -3.9167 1.8699 0.5557, -3.9152 1.8699 0.5563, -3.9074 1.8703 0.5404, -3.9074 1.8699 0.5404, -3.9213 1.8703 0.5355, -3.9167 1.8699 0.5372, -3.9384 1.8699 0.5337, -3.9384 1.8703 0.5337, -3.9256 1.8699 0.5351, -3.9213 1.8699 0.5355, -3.9554 1.8703 0.5356, -3.9507 1.8699 0.5351, -3.9554 1.8699 0.5356, -3.9662 1.8699 0.5395, -3.9662 1.8703 0.5395, -3.9717 1.8699 0.5428, -3.9717 1.8703 0.5428, -3.9775 1.8699 0.5478, -3.9775 1.8703 0.5478, -3.9812 1.8699 0.5531, -3.9812 1.8703 0.5531, -3.9837 1.8699 0.5595, -3.9837 1.8703 0.5595, -3.9846 1.8699 0.5675, -3.9846 1.8703 0.5675, -3.9838 1.8699 0.575, -3.9838 1.8703 0.575, -3.9817 1.8699 0.5809, -3.9817 1.8703 0.5809, -3.9779 1.8699 0.5864, -3.9779 1.8703 0.5864, -3.9731 1.8699 0.5907, -3.9731 1.8703 0.5907, -3.9598 1.8699 0.5981, -3.9598 1.8703 0.5981, -3.952 1.8699 0.6013, -3.952 1.8703 0.6013, -3.9396 1.8699 0.6067, -3.9396 1.8703 0.6067, -3.9326 1.8699 0.6111, -3.9326 1.8703 0.6111, -3.9306 1.8699 0.6132, -3.9306 1.8703 0.6132, -3.9292 1.8699 0.6159, -3.9292 1.8703 0.6159, -3.9284 1.8699 0.6191, -3.9284 1.8703 0.6191, -3.9282 1.8699 0.6217, -3.9282 1.8703 0.6217, -3.9285 1.8699 0.6249, -3.9285 1.8703 0.6249, -3.9295 1.8699 0.6276, -3.9295 1.8703 0.6276, -3.9313 1.8699 0.6302, -3.9313 1.8703 0.6302, -3.9343 1.8699 0.6329, -3.9343 1.8703 0.6329, -3.9388 1.8699 0.6352, -3.9388 1.8703 0.6352, -3.9441 1.8699 0.6367, -3.9441 1.8703 0.6367, -3.9501 1.8699 0.6371, -3.9501 1.8703 0.6371, -3.9645 1.8699 0.6353, -3.9645 1.8703 0.6353, -3.9758 1.8699 0.6308, -3.9758 1.8703 0.6308, -3.9791 1.8699 0.6288, -3.9791 1.8703 0.6288, -3.9791 1.8703 0.6483, -3.9791 1.8699 0.6483, -3.9644 1.8699 0.6525, -3.9644 1.8703 0.6525, -3.952 1.8699 0.6534, -3.952 1.8703 0.6534, -3.9363 1.8699 0.6516, -3.9363 1.8703 0.6516, -3.9255 1.8699 0.6474, -3.9255 1.8703 0.6474, -3.9204 1.8699 0.6443, -3.9204 1.8703 0.6443, -3.9144 1.8703 0.639, -3.9167 1.8699 0.641, -3.9144 1.8699 0.639, -3.9107 1.8699 0.6335, -3.9107 1.8703 0.6335, -3.9083 1.8699 0.6271, -3.9083 1.8703 0.6271, -3.9075 1.8699 0.6199, -3.9075 1.8703 0.6199, -3.9084 1.8699 0.6121, -3.9084 1.8703 0.6121, -3.9106 1.8699 0.606, -3.9106 1.8703 0.606, -3.9132 1.8699 0.6018, -3.9132 1.8703 0.6018, -3.9379 1.8699 0.5867, -3.9379 1.8703 0.5867, -3.9259 1.8703 0.5922, -3.9165 1.8699 0.5984, -3.9165 1.8703 0.5984, -3.9167 1.8699 0.5983, -3.9259 1.8699 0.5922, -3.9511 1.8699 0.5812, -3.9511 1.8703 0.5812, -3.9589 1.8699 0.5764, -3.9589 1.8703 0.5764, -3.9614 1.8699 0.5738, -3.9614 1.8703 0.5738, -3.9629 1.8699 0.5712, -3.9629 1.8703 0.5712, -3.9638 1.8699 0.5681, -3.9638 1.8703 0.5681, -3.964 1.8699 0.5656, -3.964 1.8703 0.5656, -3.9636 1.8699 0.5617, -3.9636 1.8703 0.5617, -3.9626 1.8699 0.5589, -3.9626 1.8703 0.5589, -3.9609 1.8699 0.5563, -3.9609 1.8703 0.5563, -3.9586 1.8699 0.5542, -3.9586 1.8703 0.5542, -3.9567 1.8699 0.5531, -3.9567 1.8703 0.5531, -3.9515 1.8699 0.5512, -3.9515 1.8703 0.5512, -3.9413 1.8699 0.5501, -3.9413 1.8703 0.5501, -4.0841 1.8703 0.6508, -4.1049 1.8703 0.6508, -4.0841 1.8699 0.6508, -4.1049 1.8699 0.6508, -4.0528 1.8703 0.5647, -4.0528 1.8699 0.5647, -4.0513 1.8699 0.5593, -4.0513 1.8703 0.5593, -4.0504 1.8699 0.5554, -4.0504 1.8703 0.5554, -4.0498 1.8703 0.5554, -4.0498 1.8699 0.5554, -4.0474 1.8703 0.5648, -4.0474 1.8699 0.5648, -4.0175 1.8699 0.6508, -4.0175 1.8703 0.6508, -4.0272 1.8699 0.6229, -3.9951 1.8703 0.6508, -3.9951 1.8699 0.6508, -4.0399 1.8699 0.5367, -4.0399 1.8703 0.5367, -4.0272 1.8699 0.5691, -4.0311 1.8699 0.5159, -4.0311 1.8703 0.5159, -4.0393 1.8699 0.5351, -4.0272 1.8699 0.5087, -4.0272 1.8703 0.5087, -4.0272 1.8699 0.5086, -4.0235 1.8703 0.5045, -4.0235 1.8699 0.5045, -4.0198 1.8699 0.5019, -4.0198 1.8703 0.5019, -4.0154 1.8699 0.5003, -4.0154 1.8703 0.5003, -4.0106 1.8699 0.4997, -4.0106 1.8703 0.4997, -4.0033 1.8699 0.5007, -4.0033 1.8703 0.5007, -3.9992 1.8699 0.502, -3.9992 1.8703 0.502, -3.9992 1.8703 0.4842, -3.9992 1.8699 0.4842, -4.0077 1.8699 0.4827, -4.0077 1.8703 0.4827, -4.0121 1.8699 0.4825, -4.0121 1.8703 0.4825, -4.0202 1.8699 0.4835, -4.0272 1.8699 0.4861, -4.0282 1.8703 0.4865, -4.0202 1.8703 0.4835, -4.0282 1.8699 0.4865, -4.0352 1.8699 0.4914, -4.0352 1.8703 0.4914, -4.0365 1.8699 0.4926, -4.0365 1.8703 0.4926, -4.0439 1.8699 0.5015, -4.0439 1.8703 0.5015, -4.0529 1.8699 0.5191, -4.0529 1.8703 0.5191, -4.0592 1.8699 0.5351, -4.2126 1.8703 0.5547, -4.2126 1.8703 0.5364, -4.2126 1.8699 0.5547, -4.2126 1.8699 0.5364, -4.1471 1.8699 0.5547, -4.1471 1.8703 0.5547, -4.1771 1.8699 0.5547, -4.1471 1.8703 0.6085, -4.1471 1.8699 0.6085, -4.2044 1.8699 0.6085, -4.2044 1.8703 0.6085, -4.1771 1.8699 0.6085, -4.2044 1.8703 0.6269, -4.2044 1.8699 0.6269, -4.1471 1.8699 0.6269, -4.1471 1.8703 0.6269, -4.1771 1.8699 0.6269, -4.1471 1.8703 0.6781, -4.1471 1.8699 0.6781, -4.209 1.8699 0.6781, -4.209 1.8703 0.6781, -4.1771 1.8699 0.6781, -4.209 1.8703 0.6965, -4.209 1.8699 0.6965, -4.1265 1.8699 0.6965, -4.1265 1.8703 0.6965, -4.1771 1.8699 0.6965, -4.1265 1.8703 0.5364, -4.1265 1.8699 0.5364, -4.1771 1.8699 0.5364, -4.308 1.8703 0.6759, -4.2916 1.8703 0.6965, -4.2877 1.8703 0.6781, -4.2885 1.8703 0.6965, -4.2635 1.8703 0.6781, -4.2428 1.8703 0.6965, -4.2635 1.8703 0.5547, -4.2428 1.8703 0.5364, -4.2868 1.8703 0.5547, -4.2869 1.8703 0.5364, -4.3057 1.8703 0.5565, -4.3138 1.8703 0.5396, -4.3198 1.8703 0.5613, -4.3321 1.8703 0.5467, -4.3306 1.8703 0.568, -4.3491 1.8703 0.5588, -4.3344 1.8703 0.5714, -4.3427 1.8703 0.5819, -4.36 1.8703 0.5716, -4.3481 1.8703 0.5939, -4.3683 1.8703 0.5879, -4.3511 1.8703 0.6088, -4.3725 1.8703 0.6064, -4.3515 1.8703 0.618, -4.3732 1.8703 0.6185, -4.3496 1.8703 0.636, -4.3714 1.8703 0.6372, -4.3454 1.8703 0.6482, -4.366 1.8703 0.6531, -4.3394 1.8703 0.6575, -4.3566 1.8703 0.6677, -4.3339 1.8703 0.6631, -4.3491 1.8703 0.6753, -4.3219 1.8703 0.671, -4.3347 1.8703 0.6855, -4.3158 1.8703 0.6931, -4.2869 1.8699 0.5364, -4.2428 1.8699 0.5364, -4.3138 1.8699 0.5396, -4.3321 1.8699 0.5467, -4.3491 1.8699 0.5588, -4.36 1.8699 0.5716, -4.3683 1.8699 0.5879, -4.3725 1.8699 0.6064, -4.3732 1.8699 0.6185, -4.3714 1.8699 0.6372, -4.366 1.8699 0.6531, -4.3566 1.8699 0.6677, -4.3491 1.8699 0.6753, -4.3347 1.8699 0.6855, -4.3158 1.8699 0.6931, -4.2916 1.8699 0.6965, -4.2885 1.8699 0.6965, -4.2428 1.8699 0.6965, -4.2877 1.8699 0.6781, -4.2635 1.8699 0.6781, -4.2635 1.8699 0.5547, -4.2868 1.8699 0.5547, -4.3344 1.8699 0.5714, -4.3306 1.8699 0.568, -4.3198 1.8699 0.5613, -4.3057 1.8699 0.5565, -4.3515 1.8699 0.618, -4.3511 1.8699 0.6088, -4.3481 1.8699 0.5939, -4.3427 1.8699 0.5819, -4.3339 1.8699 0.6631, -4.3394 1.8699 0.6575, -4.3454 1.8699 0.6482, -4.3496 1.8699 0.636, -4.308 1.8699 0.6759, -4.3219 1.8699 0.671
            ]
        }
        coordIndex [
            0,1,2,-1,3,4,5,-1,3,5,6,-1,6,5,7,-1,6,7,2,-1,2,7,8,-1,2,8,0,-1,9,1,10,-1,10,1,0,-1,11,9,12,-1,12,9,10,-1,13,14,15,-1,15,14,11,-1,15,11,16,-1,16,11,12,-1,17,14,18,-1,18,14,13,-1,18,19,17,-1,17,19,20,-1,17,20,21,-1,21,20,22,-1,21,22,23,-1,23,22,24,-1,23,24,25,-1,25,24,26,-1,25,26,27,-1,27,26,28,-1,27,28,29,-1,29,28,30,-1,29,30,31,-1,31,30,32,-1,31,32,33,-1,33,32,34,-1,33,34,35,-1,35,34,36,-1,35,36,37,-1,37,36,38,-1,37,38,39,-1,39,38,40,-1,39,40,41,-1,41,40,42,-1,41,42,43,-1,43,42,44,-1,43,44,45,-1,45,44,46,-1,45,46,47,-1,47,46,48,-1,47,48,49,-1,49,48,50,-1,49,50,51,-1,51,50,52,-1,51,52,53,-1,53,52,54,-1,53,54,55,-1,55,54,56,-1,55,56,57,-1,57,56,58,-1,57,58,59,-1,59,58,60,-1,59,60,61,-1,61,60,62,-1,61,62,63,-1,63,62,64,-1,63,64,65,-1,65,64,66,-1,65,66,67,-1,67,66,68,-1,67,68,69,-1,69,68,70,-1,69,70,71,-1,71,70,72,-1,71,72,73,-1,73,72,74,-1,73,74,75,-1,76,75,77,-1,77,75,74,-1,76,77,78,-1,76,78,79,-1,79,78,80,-1,79,80,81,-1,81,80,82,-1,81,82,83,-1,83,82,84,-1,83,84,85,-1,85,84,86,-1,85,86,87,-1,88,87,89,-1,89,87,86,-1,89,90,88,-1,88,90,91,-1,88,91,92,-1,92,91,93,-1,92,93,94,-1,94,93,95,-1,94,95,96,-1,96,95,97,-1,96,97,98,-1,98,97,99,-1,98,99,100,-1,100,99,101,-1,100,101,102,-1,103,104,105,-1,102,101,106,-1,102,106,107,-1,107,106,108,-1,107,108,105,-1,105,108,109,-1,105,109,103,-1,104,103,110,-1,104,110,111,-1,111,110,112,-1,111,112,113,-1,113,112,114,-1,113,114,115,-1,115,114,116,-1,115,116,117,-1,117,116,118,-1,117,118,119,-1,119,118,120,-1,119,120,121,-1,121,120,122,-1,121,122,123,-1,123,122,124,-1,123,124,125,-1,125,124,126,-1,125,126,127,-1,127,126,128,-1,127,128,129,-1,129,128,130,-1,129,130,131,-1,131,130,132,-1,131,132,133,-1,133,132,134,-1,133,134,135,-1,135,134,4,-1,135,4,3,-1,61,63,85,-1,85,63,83,-1,111,43,104,-1,104,43,45,-1,21,23,127,-1,127,23,25,-1,127,25,125,-1,125,25,27,-1,125,27,123,-1,123,27,29,-1,123,29,121,-1,121,29,31,-1,121,31,119,-1,119,31,33,-1,119,33,117,-1,117,33,35,-1,117,35,115,-1,115,35,37,-1,115,37,113,-1,113,37,39,-1,113,39,111,-1,111,39,41,-1,111,41,43,-1,14,3,11,-1,11,3,6,-1,11,6,9,-1,9,6,2,-1,9,2,1,-1,63,65,83,-1,83,65,67,-1,83,67,81,-1,81,67,69,-1,81,69,79,-1,79,69,71,-1,79,71,76,-1,76,71,73,-1,76,73,75,-1,127,129,21,-1,21,129,131,-1,21,131,17,-1,17,131,133,-1,17,133,14,-1,14,133,135,-1,14,135,3,-1,85,87,61,-1,61,87,88,-1,61,88,59,-1,59,88,92,-1,59,92,57,-1,57,92,94,-1,57,94,55,-1,55,94,96,-1,55,96,53,-1,53,96,98,-1,53,98,51,-1,51,98,100,-1,51,100,49,-1,49,100,102,-1,49,102,47,-1,47,102,107,-1,47,107,45,-1,45,107,105,-1,45,105,104,-1,136,137,138,-1,138,137,139,-1,140,136,141,-1,141,136,138,-1,140,141,142,-1,140,142,143,-1,143,142,144,-1,143,144,145,-1,146,145,147,-1,147,145,144,-1,148,146,149,-1,149,146,147,-1,150,151,152,-1,152,151,148,-1,152,148,149,-1,153,151,154,-1,154,151,150,-1,155,156,157,-1,157,156,153,-1,157,153,154,-1,158,159,160,-1,160,159,156,-1,160,156,155,-1,159,158,161,-1,159,161,162,-1,162,161,163,-1,162,163,164,-1,163,165,164,-1,164,165,166,-1,164,166,167,-1,167,166,168,-1,167,168,169,-1,169,168,170,-1,169,170,171,-1,171,170,172,-1,171,172,173,-1,173,172,174,-1,173,174,175,-1,176,175,177,-1,177,175,174,-1,176,177,178,-1,176,178,179,-1,179,178,180,-1,179,180,181,-1,181,180,182,-1,183,184,182,-1,182,184,185,-1,182,185,181,-1,183,186,184,-1,184,186,187,-1,184,187,188,-1,188,187,189,-1,188,189,190,-1,190,189,191,-1,190,191,192,-1,192,191,193,-1,192,193,194,-1,139,137,195,-1,195,137,194,-1,195,194,193,-1,143,145,194,-1,137,136,194,-1,194,136,140,-1,194,140,143,-1,151,153,148,-1,148,153,156,-1,148,156,146,-1,192,162,190,-1,190,162,164,-1,175,176,173,-1,173,176,179,-1,173,179,171,-1,171,179,181,-1,171,181,169,-1,169,181,185,-1,169,185,167,-1,167,185,184,-1,167,184,164,-1,164,184,188,-1,164,188,190,-1,145,146,194,-1,194,146,156,-1,194,156,192,-1,192,156,159,-1,192,159,162,-1,196,197,198,-1,198,197,199,-1,200,201,202,-1,202,201,196,-1,202,196,198,-1,203,201,204,-1,204,201,200,-1,205,206,207,-1,207,206,203,-1,207,203,204,-1,208,206,209,-1,209,206,205,-1,210,211,212,-1,212,211,208,-1,212,208,209,-1,213,211,214,-1,214,211,210,-1,215,216,217,-1,217,216,213,-1,217,213,214,-1,218,216,219,-1,219,216,215,-1,220,221,222,-1,222,221,218,-1,222,218,219,-1,223,221,224,-1,224,221,220,-1,199,197,225,-1,225,197,223,-1,225,223,224,-1,197,196,223,-1,223,196,201,-1,206,208,203,-1,203,208,211,-1,216,218,213,-1,213,218,221,-1,213,221,211,-1,211,221,223,-1,211,223,203,-1,203,223,201,-1,226,227,228,-1,228,227,229,-1,228,229,230,-1,230,229,231,-1,230,231,232,-1,232,231,233,-1,232,233,234,-1,234,233,235,-1,234,235,236,-1,236,235,237,-1,236,237,238,-1,238,237,239,-1,238,239,240,-1,240,239,241,-1,240,241,242,-1,242,241,243,-1,243,241,244,-1,243,244,245,-1,245,244,246,-1,245,246,247,-1,247,246,248,-1,247,248,249,-1,249,248,250,-1,249,250,251,-1,251,250,252,-1,251,252,253,-1,253,252,254,-1,253,254,255,-1,255,254,256,-1,255,256,257,-1,257,256,258,-1,257,258,259,-1,259,258,260,-1,259,260,226,-1,226,260,261,-1,226,261,227,-1,235,233,262,-1,262,233,263,-1,235,262,264,-1,235,264,237,-1,237,264,265,-1,237,265,239,-1,239,265,266,-1,239,266,241,-1,241,266,267,-1,241,267,244,-1,244,267,268,-1,244,268,246,-1,246,268,269,-1,246,269,248,-1,248,269,270,-1,248,270,250,-1,250,270,271,-1,250,271,252,-1,252,271,272,-1,252,272,254,-1,254,272,273,-1,254,273,256,-1,256,273,274,-1,256,274,258,-1,258,274,275,-1,258,275,260,-1,260,275,276,-1,260,276,261,-1,261,276,277,-1,261,277,227,-1,227,277,278,-1,227,278,229,-1,231,229,279,-1,279,229,278,-1,233,231,263,-1,263,231,279,-1,228,230,280,-1,280,230,281,-1,230,232,281,-1,281,232,282,-1,232,234,282,-1,282,234,283,-1,242,284,285,-1,242,285,240,-1,240,285,286,-1,240,286,238,-1,238,286,287,-1,238,287,236,-1,236,287,283,-1,236,283,234,-1,249,288,289,-1,249,289,247,-1,247,289,290,-1,247,290,245,-1,245,290,291,-1,245,291,243,-1,243,291,284,-1,243,284,242,-1,257,292,293,-1,257,293,255,-1,255,293,294,-1,255,294,253,-1,253,294,295,-1,253,295,251,-1,251,295,288,-1,251,288,249,-1,228,280,296,-1,228,296,226,-1,226,296,297,-1,226,297,259,-1,259,297,292,-1,259,292,257,-1,
        ]
    }
}
Shape{
    appearance Appearance {
        material  Material 	{
            diffuseColor 0.2235294117647059 0.2235294117647059 0.2235294117647059
            specularColor 0.11372549019607843 0.11372549019607843 0.11372549019607843
            ambientIntensity 0.2235
            transparency 0.0
            shininess 0.5
        }
    }
    geometry IndexedFaceSet {
        ccw TRUE
        solid FALSE
        coord DEF co Coordinate {
            point [
                -4.2635 1.8699 0.6781, -4.2635 1.8699 0.5547, -4.2877 1.8699 0.6781, -4.2868 1.8699 0.5547, -4.3057 1.8699 0.5565, -4.3198 1.8699 0.5613, -4.3306 1.8699 0.568, -4.3344 1.8699 0.5714, -4.3427 1.8699 0.5819, -4.3481 1.8699 0.5939, -4.3511 1.8699 0.6088, -4.3515 1.8699 0.618, -4.3496 1.8699 0.636, -4.3454 1.8699 0.6482, -4.3394 1.8699 0.6575, -4.3339 1.8699 0.6631, -4.308 1.8699 0.6759, -4.3219 1.8699 0.671
            ]
        }
        coordIndex [
            0,1,2,-1,2,1,3,-1,2,3,4,-1,4,5,2,-1,2,5,6,-1,2,6,7,-1,7,8,2,-1,2,8,9,-1,2,9,10,-1,10,11,2,-1,2,11,12,-1,2,12,13,-1,13,14,2,-1,2,14,15,-1,2,15,16,-1,16,15,17,-1,
        ]
    }
}
Shape{
    appearance Appearance {
        material  Material 	{
            diffuseColor 1.0 1.0 1.0
            specularColor 0.5019607843137255 0.5019607843137255 0.5019607843137255
            ambientIntensity 1.0
            transparency 0.0
            shininess 0.5
        }
    }
    geometry IndexedFaceSet {
        ccw TRUE
        solid FALSE
        coord DEF co Coordinate {
            point [
                -4.4269 1.8703 0.5983, -4.4508 1.8703 0.6649, -4.4431 1.8703 0.6965, -4.3821 1.8703 0.5364, -4.405 1.8703 0.5364, -4.4203 1.8703 0.5802, -4.4522 1.8703 0.6696, -4.4535 1.8703 0.6761, -4.4652 1.8703 0.6965, -4.454 1.8703 0.6761, -4.4552 1.8703 0.6693, -4.4564 1.8703 0.6649, -4.4806 1.8703 0.5983, -4.5262 1.8703 0.5364, -4.5034 1.8703 0.5364, -4.487 1.8703 0.5802, -4.4652 1.8699 0.6965, -4.5262 1.8699 0.5364, -4.4431 1.8699 0.6965, -4.3821 1.8699 0.5364, -4.405 1.8699 0.5364, -4.4203 1.8699 0.5802, -4.487 1.8699 0.5802, -4.5034 1.8699 0.5364, -4.4269 1.8699 0.5983, -4.4806 1.8699 0.5983, -4.4564 1.8699 0.6649, -4.454 1.8699 0.6761, -4.4552 1.8699 0.6693, -4.4535 1.8699 0.6761, -4.4508 1.8699 0.6649, -4.4522 1.8699 0.6696
            ]
        }
        coordIndex [
            0,1,2,-1,3,4,5,-1,1,6,2,-1,2,6,7,-1,2,7,8,-1,8,7,9,-1,8,9,10,-1,10,11,8,-1,8,11,12,-1,8,12,13,-1,14,13,15,-1,15,13,12,-1,15,12,5,-1,5,12,0,-1,5,0,3,-1,3,0,2,-1,8,13,16,-1,16,13,17,-1,2,8,18,-1,18,8,16,-1,3,2,19,-1,19,2,18,-1,4,3,20,-1,20,3,19,-1,5,4,21,-1,21,4,20,-1,15,5,22,-1,22,5,21,-1,14,15,23,-1,23,15,22,-1,13,14,17,-1,17,14,23,-1,0,12,24,-1,24,12,25,-1,12,11,25,-1,25,11,26,-1,9,27,28,-1,9,28,10,-1,10,28,26,-1,10,26,11,-1,9,7,27,-1,27,7,29,-1,1,30,31,-1,1,31,6,-1,6,31,29,-1,6,29,7,-1,1,0,30,-1,30,0,24,-1,
        ]
    }
}
Shape{
    appearance Appearance {
        material  Material 	{
            diffuseColor 0.2235294117647059 0.2235294117647059 0.2235294117647059
            specularColor 0.11372549019607843 0.11372549019607843 0.11372549019607843
            ambientIntensity 0.2235
            transparency 0.0
            shininess 0.5
        }
    }
    geometry IndexedFaceSet {
        ccw TRUE
        solid FALSE
        coord DEF co Coordinate {
            point [
                -4.454 1.8699 0.6761, -4.4535 1.8699 0.6761, -4.4552 1.8699 0.6693, -4.4522 1.8699 0.6696, -4.4564 1.8699 0.6649, -4.4508 1.8699 0.6649, -4.4806 1.8699 0.5983, -4.4269 1.8699 0.5983
            ]
        }
        coordIndex [
            0,1,2,-1,2,1,3,-1,2,3,4,-1,4,3,5,-1,4,5,6,-1,6,5,7,-1,
        ]
    }
}
Shape{
    appearance Appearance {
        material  Material 	{
            diffuseColor 1.0 1.0 1.0
            specularColor 0.5019607843137255 0.5019607843137255 0.5019607843137255
            ambientIntensity 1.0
            transparency 0.0
            shininess 0.5
        }
    }
    geometry IndexedFaceSet {
        ccw TRUE
        solid FALSE
        coord DEF co Coordinate {
            point [
                -2.9758 1.8703 0.5136, -2.9927 1.8703 0.4928, -2.9655 1.8703 0.6144, -3.3457 1.8703 0.6702, -3.3104 1.8703 0.7306, -3.1579 1.8703 0.6509, -3.0808 1.8703 0.6168, -3.0914 1.8703 0.613, -2.9455 1.8703 0.8122, -2.9709 1.8703 0.8257, -2.965 1.8703 0.8958, -3.0361 1.8703 0.8991, -3.0713 1.8703 0.8159, -3.0888 1.8703 0.852, -2.9406 1.8703 0.6297, -2.9499 1.8703 0.5425, -2.9643 1.8703 0.5381, -3.0099 1.8703 0.9013, -3.1006 1.8703 0.6068, -3.1079 1.8703 0.5986, -3.1863 1.8703 0.586, -3.0602 1.8703 0.6164, -3.0452 1.8703 0.6862, -3.0503 1.8703 0.6125, -3.0201 1.8703 0.6766, -3.0414 1.8703 0.6061, -2.9968 1.8703 0.6604, -3.0369 1.8703 0.6014, -2.978 1.8703 0.6388, -3.031 1.8703 0.592, -3.0276 1.8703 0.5813, -3.0271 1.8703 0.5702, -3.1138 1.8703 0.6819, -3.0863 1.8703 0.6887, -3.0725 1.8703 0.6896, -3.3833 1.8703 0.7829, -3.3924 1.8703 0.7829, -3.4391 1.8703 0.8444, -3.4141 1.8703 0.7802, -3.4446 1.8703 0.8426, -3.434 1.8703 0.7726, -3.4785 1.8703 0.8258, -3.5094 1.8703 0.7996, -3.0594 1.8703 0.9262, -3.1143 1.8703 0.8825, -3.0861 1.8703 0.9492, -3.1448 1.8703 0.9048, -3.114 1.8703 0.9664, -2.999 1.8703 0.8324, -3.011 1.8703 0.833, -3.023 1.8703 0.9006, -3.0379 1.8703 0.8297, -3.0634 1.8703 0.8203, -3.1128 1.8703 0.5893, -3.1154 1.8703 0.5787, -3.1863 1.8703 0.5746, -3.1155 1.8703 0.5683, -3.1857 1.8703 0.5625, -3.5097 1.8703 0.5871, -3.4567 1.8703 0.6324, -3.4787 1.8703 0.5609, -3.4399 1.8703 0.6186, -3.444 1.8703 0.5439, -3.4198 1.8703 0.6093, -3.4061 1.8703 0.5359, -3.3993 1.8703 0.6053, -3.3389 1.8703 0.5359, -3.348 1.8703 0.6053, -3.3325 1.8703 0.5369, -3.0713 1.8703 0.6178, -3.1379 1.8703 0.669, -3.4516 1.8703 0.7602, -3.4646 1.8703 0.7457, -3.5327 1.8703 0.7673, -3.4753 1.8703 0.7261, -3.5466 1.8703 0.7325, -3.4807 1.8703 0.7043, -3.5518 1.8703 0.6953, -3.4812 1.8703 0.6941, -3.5466 1.8703 0.6547, -3.4785 1.8703 0.6719, -3.5323 1.8703 0.6186, -3.4706 1.8703 0.6516, -3.4581 1.8703 0.6339, -3.3776 1.8703 0.9344, -3.333 1.8703 0.8821, -3.4154 1.8703 0.8906, -3.3587 1.8703 0.8515, -3.3763 1.8703 0.8148, -2.9006 1.8703 0.7468, -2.8257 1.8703 0.7278, -2.8971 1.8703 0.7192, -2.8254 1.8703 0.7169, -2.8985 1.8703 0.7015, -2.8309 1.8703 0.6722, -2.9067 1.8703 0.6736, -2.8473 1.8703 0.6299, -2.9202 1.8703 0.6507, -2.8732 1.8703 0.5928, -2.9087 1.8703 0.5625, -3.0292 1.8703 0.5595, -3.0337 1.8703 0.5499, -3.1665 1.8703 0.9866, -3.182 1.8703 0.9198, -3.2228 1.8703 0.9936, -3.2239 1.8703 0.9252, -3.2697 1.8703 0.9886, -3.2626 1.8703 0.9205, -3.3268 1.8703 0.9685, -3.2983 1.8703 0.9068, -3.3303 1.8703 0.8846, -2.9228 1.8703 0.8794, -2.8866 1.8703 0.8539, -2.9261 1.8703 0.7948, -2.8789 1.8703 0.8467, -2.9103 1.8703 0.7722, -2.8515 1.8703 0.8116, -2.8334 1.8703 0.7706, -3.179 1.8703 0.5344, -3.1127 1.8703 0.5574, -3.1655 1.8703 0.5091, -3.1074 1.8703 0.5476, -3.1482 1.8703 0.4897, -3.1013 1.8703 0.5406, -3.1255 1.8703 0.4739, -3.0926 1.8703 0.5344, -3.1001 1.8703 0.4641, -3.0828 1.8703 0.5305, -3.0725 1.8703 0.4607, -3.0713 1.8703 0.529, -3.0682 1.8703 0.4608, -3.0694 1.8703 0.5291, -3.0413 1.8703 0.465, -3.0592 1.8703 0.5307, -3.015 1.8703 0.476, -3.0489 1.8703 0.5352, -3.0402 1.8703 0.5418, -3.3423 1.8703 0.6064, -3.3149 1.8703 0.5478, -3.3176 1.8703 0.5451, -3.3457 1.8703 0.6056, -3.325 1.8703 0.5399, -3.3059 1.8703 0.5712, -3.307 1.8703 0.5627, -3.31 1.8703 0.5549, -3.3324 1.8703 0.6053, -3.3246 1.8703 0.6022, -3.3062 1.8703 0.5756, -3.3176 1.8703 0.5973, -3.3128 1.8703 0.5921, -3.3085 1.8703 0.5843, -3.3412 1.8703 0.6064, -3.5518 1.8699 0.6953, -3.5466 1.8699 0.7325, -3.5427 1.8699 0.7422, -3.5327 1.8699 0.7673, -3.5094 1.8699 0.7996, -3.4785 1.8699 0.8258, -3.4446 1.8699 0.8426, -3.4391 1.8699 0.8444, -3.4154 1.8699 0.8906, -3.3776 1.8699 0.9344, -3.3515 1.8699 0.9519, -3.3268 1.8699 0.9685, -3.2697 1.8699 0.9886, -3.2228 1.8699 0.9936, -3.0861 1.8699 0.9492, -3.0907 1.8699 0.9519, -3.114 1.8699 0.9664, -3.1665 1.8699 0.9866, -3.0594 1.8699 0.9262, -3.0361 1.8699 0.8991, -3.023 1.8699 0.9006, -3.0099 1.8699 0.9013, -2.965 1.8699 0.8958, -2.9228 1.8699 0.8794, -2.8866 1.8699 0.8539, -2.8789 1.8699 0.8467, -2.8254 1.8699 0.7169, -2.8515 1.8699 0.8116, -2.8334 1.8699 0.7706, -2.8283 1.8699 0.7422, -2.8257 1.8699 0.7278, -2.8309 1.8699 0.6722, -2.8473 1.8699 0.6299, -2.8732 1.8699 0.5928, -2.9087 1.8699 0.5625, -2.9499 1.8699 0.5425, -2.9643 1.8699 0.5381, -2.9658 1.8699 0.5351, -2.9758 1.8699 0.5136, -2.9927 1.8699 0.4928, -3.015 1.8699 0.476, -3.0254 1.8699 0.4716, -3.0413 1.8699 0.465, -3.0682 1.8699 0.4608, -3.0725 1.8699 0.4607, -3.1863 1.8699 0.5746, -3.1001 1.8699 0.4641, -3.1196 1.8699 0.4716, -3.1255 1.8699 0.4739, -3.1482 1.8699 0.4897, -3.1655 1.8699 0.5091, -3.179 1.8699 0.5344, -3.1791 1.8699 0.5351, -3.1857 1.8699 0.5625, -3.1863 1.8699 0.586, -3.3457 1.8699 0.6702, -3.3104 1.8699 0.7306, -3.1579 1.8699 0.6509, -3.1379 1.8699 0.669, -3.1138 1.8699 0.6819, -3.0863 1.8699 0.6887, -3.0725 1.8699 0.6896, -3.0452 1.8699 0.6862, -3.0201 1.8699 0.6766, -2.9968 1.8699 0.6604, -2.978 1.8699 0.6388, -2.9655 1.8699 0.6144, -2.9406 1.8699 0.6297, -2.9202 1.8699 0.6507, -2.9067 1.8699 0.6736, -2.8985 1.8699 0.7015, -2.8971 1.8699 0.7192, -2.9 1.8699 0.7422, -2.9006 1.8699 0.7468, -2.9103 1.8699 0.7722, -2.9261 1.8699 0.7948, -2.9455 1.8699 0.8122, -2.9709 1.8699 0.8257, -2.999 1.8699 0.8324, -3.011 1.8699 0.833, -3.0379 1.8699 0.8297, -3.0634 1.8699 0.8203, -3.0713 1.8699 0.8159, -3.0888 1.8699 0.852, -3.1143 1.8699 0.8825, -3.1448 1.8699 0.9048, -3.182 1.8699 0.9198, -3.2239 1.8699 0.9252, -3.2626 1.8699 0.9205, -3.2983 1.8699 0.9068, -3.3303 1.8699 0.8846, -3.333 1.8699 0.8821, -3.3587 1.8699 0.8515, -3.3763 1.8699 0.8148, -3.3833 1.8699 0.7829, -3.3924 1.8699 0.7829, -3.4141 1.8699 0.7802, -3.434 1.8699 0.7726, -3.4516 1.8699 0.7602, -3.4646 1.8699 0.7457, -3.4666 1.8699 0.7422, -3.4753 1.8699 0.7261, -3.4807 1.8699 0.7043, -3.4812 1.8699 0.6941, -3.4785 1.8699 0.6719, -3.4706 1.8699 0.6516, -3.4581 1.8699 0.6339, -3.4567 1.8699 0.6324, -3.4399 1.8699 0.6186, -3.4198 1.8699 0.6093, -3.3993 1.8699 0.6053, -3.348 1.8699 0.6053, -3.3457 1.8699 0.6056, -3.3423 1.8699 0.6064, -3.3412 1.8699 0.6064, -3.3324 1.8699 0.6053, -3.3246 1.8699 0.6022, -3.3176 1.8699 0.5973, -3.3128 1.8699 0.5921, -3.3085 1.8699 0.5843, -3.3062 1.8699 0.5756, -3.3059 1.8699 0.5712, -3.307 1.8699 0.5627, -3.31 1.8699 0.5549, -3.3149 1.8699 0.5478, -3.3176 1.8699 0.5451, -3.325 1.8699 0.5399, -3.3325 1.8699 0.5369, -3.3389 1.8699 0.5359, -3.4061 1.8699 0.5359, -3.444 1.8699 0.5439, -3.4787 1.8699 0.5609, -3.5097 1.8699 0.5871, -3.5323 1.8699 0.6186, -3.5466 1.8699 0.6547, -3.0713 1.8699 0.6178, -3.0808 1.8699 0.6168, -3.0914 1.8699 0.613, -3.1006 1.8699 0.6068, -3.1079 1.8699 0.5986, -3.1128 1.8699 0.5893, -3.1154 1.8699 0.5787, -3.1155 1.8699 0.5683, -3.1127 1.8699 0.5574, -3.1074 1.8699 0.5476, -3.1013 1.8699 0.5406, -3.0926 1.8699 0.5344, -3.0828 1.8699 0.5305, -3.0713 1.8699 0.529, -3.0694 1.8699 0.5291, -3.0592 1.8699 0.5307, -3.0489 1.8699 0.5352, -3.0402 1.8699 0.5418, -3.0337 1.8699 0.5499, -3.0292 1.8699 0.5595, -3.0271 1.8699 0.5702, -3.0276 1.8699 0.5813, -3.031 1.8699 0.592, -3.0369 1.8699 0.6014, -3.0414 1.8699 0.6061, -3.0503 1.8699 0.6125, -3.0602 1.8699 0.6164
            ]
        }
        coordIndex [
            0,1,2,-1,3,4,5,-1,6,7,3,-1,8,9,10,-1,11,12,13,-1,14,15,2,-1,2,15,16,-1,2,16,0,-1,10,9,17,-1,7,18,3,-1,3,18,19,-1,3,19,20,-1,21,22,23,-1,23,22,24,-1,23,24,25,-1,25,24,26,-1,25,26,27,-1,27,26,28,-1,27,28,29,-1,29,28,2,-1,29,2,30,-1,30,2,31,-1,32,33,21,-1,21,33,34,-1,21,34,22,-1,35,36,37,-1,37,36,38,-1,37,38,39,-1,39,38,40,-1,39,40,41,-1,41,40,42,-1,11,13,43,-1,43,13,44,-1,43,44,45,-1,45,44,46,-1,45,46,47,-1,9,48,17,-1,17,48,49,-1,17,49,50,-1,50,49,51,-1,50,51,11,-1,11,51,52,-1,11,52,12,-1,19,53,20,-1,20,53,54,-1,20,54,55,-1,55,54,56,-1,55,56,57,-1,58,59,60,-1,60,59,61,-1,60,61,62,-1,62,61,63,-1,62,63,64,-1,64,63,65,-1,64,65,66,-1,66,65,67,-1,66,67,68,-1,6,3,69,-1,69,3,5,-1,69,5,21,-1,21,5,70,-1,21,70,32,-1,40,71,42,-1,42,71,72,-1,42,72,73,-1,73,72,74,-1,73,74,75,-1,75,74,76,-1,75,76,77,-1,77,76,78,-1,77,78,79,-1,79,78,80,-1,79,80,81,-1,81,80,82,-1,81,82,58,-1,58,82,83,-1,58,83,59,-1,84,85,86,-1,86,85,87,-1,86,87,37,-1,37,87,88,-1,37,88,35,-1,89,90,91,-1,91,90,92,-1,91,92,93,-1,93,92,94,-1,93,94,95,-1,95,94,96,-1,95,96,97,-1,97,96,98,-1,97,98,14,-1,14,98,99,-1,14,99,15,-1,31,2,100,-1,100,2,1,-1,100,1,101,-1,47,46,102,-1,102,46,103,-1,102,103,104,-1,104,103,105,-1,104,105,106,-1,106,105,107,-1,106,107,108,-1,108,107,109,-1,108,109,84,-1,84,109,110,-1,84,110,85,-1,10,111,8,-1,8,111,112,-1,8,112,113,-1,113,112,114,-1,113,114,115,-1,115,114,116,-1,115,116,89,-1,89,116,117,-1,89,117,90,-1,57,56,118,-1,118,56,119,-1,118,119,120,-1,120,119,121,-1,120,121,122,-1,122,121,123,-1,122,123,124,-1,124,123,125,-1,124,125,126,-1,126,125,127,-1,126,127,128,-1,128,127,129,-1,128,129,130,-1,130,129,131,-1,130,131,132,-1,132,131,133,-1,132,133,134,-1,134,133,135,-1,134,135,1,-1,1,135,136,-1,1,136,101,-1,137,138,139,-1,67,140,68,-1,68,140,137,-1,68,137,141,-1,141,137,139,-1,142,143,137,-1,137,143,144,-1,137,144,138,-1,145,146,147,-1,146,148,147,-1,147,148,149,-1,147,149,150,-1,142,137,147,-1,147,137,151,-1,147,151,145,-1,77,152,153,-1,77,153,75,-1,75,153,154,-1,75,154,73,-1,154,155,73,-1,73,155,156,-1,73,156,42,-1,42,156,157,-1,42,157,41,-1,41,157,158,-1,41,158,39,-1,39,158,159,-1,39,159,37,-1,37,159,160,-1,37,160,86,-1,86,160,161,-1,86,161,84,-1,108,84,162,-1,162,84,161,-1,162,163,108,-1,108,163,164,-1,108,164,106,-1,106,164,165,-1,106,165,104,-1,166,45,167,-1,167,45,47,-1,167,47,168,-1,168,47,102,-1,168,102,169,-1,169,102,104,-1,169,104,165,-1,45,166,170,-1,45,170,43,-1,43,170,171,-1,43,171,11,-1,11,171,172,-1,11,172,50,-1,50,172,173,-1,50,173,17,-1,17,173,174,-1,17,174,10,-1,10,174,175,-1,10,175,111,-1,111,175,176,-1,111,176,112,-1,112,176,177,-1,112,177,114,-1,178,92,90,-1,114,177,179,-1,114,179,116,-1,116,179,180,-1,116,180,117,-1,117,180,181,-1,117,181,90,-1,90,181,182,-1,90,182,178,-1,92,178,183,-1,92,183,94,-1,94,183,184,-1,94,184,96,-1,96,184,185,-1,96,185,98,-1,98,185,186,-1,98,186,99,-1,99,186,187,-1,99,187,15,-1,15,187,188,-1,15,188,16,-1,16,188,189,-1,16,189,0,-1,189,190,0,-1,0,190,191,-1,0,191,1,-1,1,191,192,-1,1,192,134,-1,134,192,193,-1,134,193,132,-1,193,194,132,-1,132,194,195,-1,132,195,130,-1,130,195,196,-1,130,196,128,-1,197,55,57,-1,128,196,198,-1,128,198,126,-1,126,198,199,-1,126,199,124,-1,199,200,124,-1,124,200,201,-1,124,201,122,-1,122,201,202,-1,122,202,120,-1,120,202,203,-1,120,203,118,-1,118,203,204,-1,118,204,57,-1,57,204,205,-1,57,205,197,-1,20,55,206,-1,206,55,197,-1,3,20,207,-1,207,20,206,-1,4,3,208,-1,208,3,207,-1,5,4,209,-1,209,4,208,-1,5,209,210,-1,5,210,70,-1,70,210,211,-1,70,211,32,-1,32,211,212,-1,32,212,33,-1,33,212,213,-1,33,213,34,-1,34,213,214,-1,34,214,22,-1,22,214,215,-1,22,215,24,-1,24,215,216,-1,24,216,26,-1,26,216,217,-1,26,217,28,-1,28,217,218,-1,28,218,2,-1,2,218,219,-1,2,219,14,-1,14,219,220,-1,14,220,97,-1,97,220,221,-1,97,221,95,-1,95,221,222,-1,95,222,93,-1,93,222,223,-1,93,223,91,-1,89,91,224,-1,224,91,223,-1,224,225,89,-1,89,225,226,-1,89,226,115,-1,115,226,227,-1,115,227,113,-1,113,227,228,-1,113,228,8,-1,8,228,229,-1,8,229,9,-1,9,229,230,-1,9,230,48,-1,48,230,231,-1,48,231,49,-1,49,231,232,-1,49,232,51,-1,51,232,233,-1,51,233,52,-1,52,233,234,-1,52,234,12,-1,12,234,235,-1,12,235,13,-1,13,235,236,-1,13,236,44,-1,44,236,237,-1,44,237,46,-1,46,237,238,-1,46,238,103,-1,103,238,239,-1,103,239,105,-1,105,239,240,-1,105,240,107,-1,107,240,241,-1,107,241,109,-1,109,241,242,-1,109,242,110,-1,110,242,243,-1,110,243,85,-1,85,243,244,-1,85,244,87,-1,87,244,245,-1,87,245,88,-1,88,245,246,-1,88,246,35,-1,36,35,247,-1,247,35,246,-1,36,247,248,-1,36,248,38,-1,38,248,249,-1,38,249,40,-1,40,249,250,-1,40,250,71,-1,71,250,251,-1,71,251,72,-1,72,251,252,-1,72,252,74,-1,252,253,74,-1,74,253,254,-1,74,254,76,-1,76,254,255,-1,76,255,78,-1,78,255,256,-1,78,256,80,-1,80,256,257,-1,80,257,82,-1,82,257,258,-1,82,258,83,-1,83,258,259,-1,83,259,59,-1,59,259,260,-1,59,260,61,-1,61,260,261,-1,61,261,63,-1,63,261,262,-1,63,262,65,-1,67,65,263,-1,263,65,262,-1,67,263,264,-1,67,264,140,-1,140,264,265,-1,140,265,137,-1,137,265,266,-1,137,266,151,-1,151,266,267,-1,151,267,145,-1,145,267,268,-1,145,268,146,-1,146,268,269,-1,146,269,148,-1,148,269,270,-1,148,270,149,-1,149,270,271,-1,149,271,150,-1,150,271,272,-1,150,272,147,-1,147,272,273,-1,147,273,142,-1,142,273,274,-1,142,274,143,-1,143,274,275,-1,143,275,144,-1,144,275,276,-1,144,276,138,-1,138,276,277,-1,138,277,139,-1,139,277,278,-1,139,278,141,-1,141,278,279,-1,141,279,68,-1,68,279,280,-1,68,280,66,-1,64,66,281,-1,281,66,280,-1,64,281,282,-1,64,282,62,-1,62,282,283,-1,62,283,60,-1,60,283,284,-1,60,284,58,-1,58,284,285,-1,58,285,81,-1,81,285,286,-1,81,286,79,-1,79,286,152,-1,79,152,77,-1,69,287,288,-1,69,288,6,-1,6,288,289,-1,6,289,7,-1,7,289,290,-1,7,290,18,-1,18,290,291,-1,18,291,19,-1,19,291,292,-1,19,292,53,-1,53,292,293,-1,53,293,54,-1,54,293,294,-1,54,294,56,-1,56,294,295,-1,56,295,119,-1,119,295,296,-1,119,296,121,-1,121,296,297,-1,121,297,123,-1,123,297,298,-1,123,298,125,-1,125,298,299,-1,125,299,127,-1,127,299,300,-1,127,300,129,-1,129,300,301,-1,129,301,131,-1,131,301,302,-1,131,302,133,-1,133,302,303,-1,133,303,135,-1,135,303,304,-1,135,304,136,-1,136,304,305,-1,136,305,101,-1,101,305,306,-1,101,306,100,-1,100,306,307,-1,100,307,31,-1,31,307,308,-1,31,308,30,-1,30,308,309,-1,30,309,29,-1,29,309,310,-1,29,310,27,-1,27,310,311,-1,27,311,25,-1,25,311,312,-1,25,312,23,-1,23,312,313,-1,23,313,21,-1,21,313,287,-1,21,287,69,-1,
        ]
    }
}
Shape{
    appearance Appearance {
        material  Material 	{
            diffuseColor 0.2235294117647059 0.2235294117647059 0.2235294117647059
            specularColor 0.11372549019607843 0.11372549019607843 0.11372549019607843
            ambientIntensity 0.2235
            transparency 0.0
            shininess 0.5
        }
    }
    geometry IndexedFaceSet {
        ccw TRUE
        solid FALSE
        coord DEF co Coordinate {
            point [
                -3.0694 1.8699 0.5291, -3.0414 1.8699 0.6061, -3.0369 1.8699 0.6014, -3.0828 1.8699 0.5305, -3.0926 1.8699 0.5344, -3.0808 1.8699 0.6168, -3.0713 1.8699 0.6178, -3.0602 1.8699 0.6164, -3.0503 1.8699 0.6125, -3.0292 1.8699 0.5595, -3.0337 1.8699 0.5499, -3.0402 1.8699 0.5418, -3.0713 1.8699 0.529, -3.031 1.8699 0.592, -3.0276 1.8699 0.5813, -3.0271 1.8699 0.5702, -3.0489 1.8699 0.5352, -3.0592 1.8699 0.5307, -3.1013 1.8699 0.5406, -3.1074 1.8699 0.5476, -3.1127 1.8699 0.5574, -3.1155 1.8699 0.5683, -3.1154 1.8699 0.5787, -3.1128 1.8699 0.5893, -3.1079 1.8699 0.5986, -3.1006 1.8699 0.6068, -3.0914 1.8699 0.613
            ]
        }
        coordIndex [
            0,1,2,-1,3,4,5,-1,6,7,0,-1,0,7,8,-1,0,8,1,-1,9,10,2,-1,2,10,11,-1,6,0,5,-1,5,0,12,-1,5,12,3,-1,13,14,2,-1,2,14,15,-1,2,15,9,-1,11,16,2,-1,2,16,17,-1,2,17,0,-1,4,18,5,-1,5,18,19,-1,5,19,20,-1,20,21,5,-1,5,21,22,-1,5,22,23,-1,23,24,5,-1,5,24,25,-1,5,25,26,-1,
        ]
    }
}